<svg width="279" height="44" viewBox="0 0 279 44" fill="none" xmlns="http://www.w3.org/2000/svg">
<rect x="0.5" y="0.5" width="255" height="43" fill="#E5AD3F" stroke="black"/>
<path d="M58.2684 26V24.7183L59.3012 24.4985V16.083L58.1586 15.8633V14.5742H61.4398V24.4985L62.4725 24.7183V26H58.2684ZM63.1098 26V24.7183L64.1425 24.4985V19.584L62.9999 19.3643V18.0752H66.2811V24.4985L67.3065 24.7183V26H63.1098ZM64.0692 16.3979V14.5742H66.2811V16.3979H64.0692ZM71.4227 26.1538C70.8319 26.1538 70.2802 26.0977 69.7675 25.9854C69.2597 25.873 68.7714 25.7119 68.3026 25.502L68.2807 23.2607H69.7675L70.0531 24.4033C70.2191 24.4863 70.3998 24.5522 70.5951 24.6011C70.7953 24.6499 71.0224 24.6743 71.2763 24.6743C71.7548 24.6743 72.0917 24.5962 72.287 24.4399C72.4823 24.2837 72.58 24.0884 72.58 23.854C72.58 23.6343 72.475 23.4414 72.265 23.2754C72.06 23.1045 71.6474 22.9556 71.0272 22.8286C70.0897 22.6333 69.3988 22.3306 68.9545 21.9204C68.5101 21.5103 68.288 20.9854 68.288 20.3457C68.288 19.9062 68.3978 19.5059 68.6176 19.1445C68.8422 18.7832 69.1815 18.4927 69.6356 18.2729C70.0946 18.0532 70.6806 17.9434 71.3934 17.9434C71.9892 17.9434 72.5336 18.002 73.0267 18.1191C73.5248 18.2314 73.9423 18.3804 74.2792 18.5659L74.3012 20.7339H72.8217L72.5946 19.6938C72.4628 19.5962 72.3065 19.5229 72.1259 19.4741C71.9501 19.4253 71.7499 19.4009 71.5253 19.4009C71.1493 19.4009 70.8612 19.4766 70.661 19.6279C70.4608 19.7793 70.3607 19.9746 70.3607 20.2139C70.3607 20.3506 70.3949 20.4775 70.4633 20.5947C70.5365 20.7119 70.6781 20.8218 70.8881 20.9243C71.098 21.0269 71.4032 21.1245 71.8036 21.2173C72.785 21.4419 73.5004 21.7422 73.9496 22.1182C74.3988 22.4893 74.6234 23.0117 74.6234 23.6855C74.6234 24.4229 74.3549 25.0186 73.8178 25.4727C73.2855 25.9268 72.4872 26.1538 71.4227 26.1538ZM78.7103 26.1538C77.973 26.1538 77.4042 25.9512 77.0038 25.5459C76.6083 25.1406 76.4105 24.4985 76.4105 23.6196V19.5767H75.3192V18.0752H76.4105V16.1343H78.5419V18.0752H79.9994V19.5767H78.5419V23.6123C78.5419 23.9199 78.6054 24.1396 78.7323 24.2715C78.8642 24.4033 79.0424 24.4692 79.267 24.4692C79.3891 24.4692 79.516 24.4619 79.6478 24.4473C79.7846 24.4277 79.9017 24.4082 79.9994 24.3887L80.1825 25.9341C79.9628 25.9976 79.7235 26.0488 79.4647 26.0879C79.2108 26.1318 78.9594 26.1538 78.7103 26.1538ZM84.6063 26.1538C83.8495 26.1538 83.1879 25.9878 82.6215 25.6558C82.0551 25.3188 81.6156 24.8574 81.3031 24.2715C80.9955 23.6855 80.8417 23.0166 80.8417 22.2646V21.9717C80.8417 21.1855 80.9882 20.4897 81.2811 19.8843C81.5741 19.2739 81.9867 18.7954 82.5189 18.4487C83.056 18.0972 83.6884 17.9238 84.4159 17.9287C85.1337 17.9287 85.7367 18.0703 86.225 18.3535C86.7133 18.6367 87.0844 19.0444 87.3383 19.5767C87.5922 20.1089 87.7191 20.7534 87.7191 21.5103V22.6748H83.0609L83.0463 22.7188C83.0756 23.0654 83.161 23.3755 83.3026 23.6489C83.4491 23.9175 83.6542 24.1299 83.9179 24.2861C84.1815 24.4375 84.5014 24.5132 84.8773 24.5132C85.268 24.5132 85.6317 24.4644 85.9686 24.3667C86.3104 24.2642 86.6425 24.1152 86.9647 23.9199L87.5434 25.2383C87.2162 25.502 86.8036 25.7217 86.3056 25.8975C85.8124 26.0684 85.246 26.1538 84.6063 26.1538ZM83.0756 21.2612H85.7196V21.0708C85.7196 20.7485 85.6757 20.4727 85.5878 20.2432C85.5048 20.0088 85.3681 19.8281 85.1776 19.7012C84.9921 19.5742 84.7504 19.5107 84.4525 19.5107C84.1693 19.5107 83.9301 19.5864 83.7348 19.7378C83.5394 19.8843 83.3856 20.0869 83.2733 20.3457C83.1659 20.6045 83.0927 20.8975 83.0536 21.2246L83.0756 21.2612ZM88.6273 26V24.7183L89.6527 24.4985V19.584L88.5175 19.3643V18.0752H91.6449L91.7401 19.2104C92.0038 18.8052 92.3285 18.4902 92.7142 18.2656C93.1049 18.041 93.5492 17.9287 94.0473 17.9287C94.8334 17.9287 95.4486 18.1802 95.893 18.6831C96.3373 19.186 96.5595 19.9746 96.5595 21.0488V24.4985L97.5849 24.7183V26H93.4979V24.7183L94.4135 24.4985V21.0562C94.4135 20.5239 94.3085 20.1479 94.0985 19.9282C93.8886 19.7036 93.5761 19.5913 93.161 19.5913C92.8534 19.5913 92.5849 19.6572 92.3554 19.7891C92.1308 19.916 91.9428 20.0991 91.7914 20.3384V24.4985L92.6557 24.7183V26H88.6273ZM105.744 26.1538C104.963 26.1538 104.291 25.9829 103.73 25.6411C103.168 25.2993 102.739 24.8257 102.441 24.2202C102.143 23.6099 101.994 22.9092 101.994 22.1182V21.9644C101.994 21.1782 102.143 20.4824 102.441 19.877C102.739 19.2666 103.166 18.7905 103.723 18.4487C104.284 18.1021 104.953 17.9287 105.729 17.9287C106.516 17.9287 107.187 18.1021 107.744 18.4487C108.3 18.7905 108.727 19.2642 109.025 19.8696C109.323 20.4751 109.472 21.1733 109.472 21.9644V22.1182C109.472 22.9092 109.323 23.6099 109.025 24.2202C108.727 24.8257 108.3 25.2993 107.744 25.6411C107.187 25.9829 106.52 26.1538 105.744 26.1538ZM105.744 24.5132C106.115 24.5132 106.418 24.4131 106.652 24.2129C106.887 24.0127 107.06 23.7344 107.172 23.3779C107.285 23.0166 107.341 22.5967 107.341 22.1182V21.9644C107.341 21.4956 107.285 21.083 107.172 20.7266C107.06 20.3652 106.884 20.0845 106.645 19.8843C106.411 19.6792 106.105 19.5767 105.729 19.5767C105.363 19.5767 105.06 19.6792 104.821 19.8843C104.582 20.0845 104.406 20.3652 104.294 20.7266C104.186 21.083 104.133 21.4956 104.133 21.9644V22.1182C104.133 22.5967 104.186 23.0166 104.294 23.3779C104.406 23.7393 104.582 24.02 104.821 24.2202C105.06 24.4155 105.368 24.5132 105.744 24.5132ZM110.351 26V24.7183L111.376 24.4985V19.584L110.241 19.3643V18.0752H113.369L113.464 19.2104C113.727 18.8052 114.052 18.4902 114.438 18.2656C114.829 18.041 115.273 17.9287 115.771 17.9287C116.557 17.9287 117.172 18.1802 117.617 18.6831C118.061 19.186 118.283 19.9746 118.283 21.0488V24.4985L119.308 24.7183V26H115.222V24.7183L116.137 24.4985V21.0562C116.137 20.5239 116.032 20.1479 115.822 19.9282C115.612 19.7036 115.3 19.5913 114.885 19.5913C114.577 19.5913 114.308 19.6572 114.079 19.7891C113.854 19.916 113.666 20.0991 113.515 20.3384V24.4985L114.379 24.7183V26H110.351ZM126.34 26.1538C125.554 26.1538 124.929 25.9438 124.465 25.5239C124.001 25.0991 123.769 24.5229 123.769 23.7954C123.769 23.2974 123.903 22.8604 124.172 22.4844C124.445 22.1084 124.846 21.813 125.373 21.5981C125.905 21.3833 126.559 21.2759 127.336 21.2759H128.383V20.6899C128.383 20.3091 128.271 20.0015 128.046 19.7671C127.827 19.5278 127.495 19.4082 127.05 19.4082C126.821 19.4082 126.616 19.4375 126.435 19.4961C126.254 19.5498 126.088 19.6279 125.937 19.7305L125.768 20.7778H124.23L124.201 18.7197C124.616 18.4854 125.065 18.2949 125.549 18.1484C126.032 18.002 126.572 17.9287 127.167 17.9287C128.203 17.9287 129.02 18.1704 129.621 18.6538C130.222 19.1323 130.522 19.8184 130.522 20.7119V23.9785C130.522 24.0859 130.522 24.1934 130.522 24.3008C130.527 24.4033 130.537 24.5034 130.551 24.6011L131.379 24.7183V26H128.727C128.674 25.8633 128.62 25.7168 128.566 25.5605C128.513 25.4043 128.474 25.248 128.449 25.0918C128.195 25.4141 127.895 25.6729 127.548 25.8682C127.206 26.0586 126.804 26.1538 126.34 26.1538ZM126.911 24.5718C127.209 24.5718 127.492 24.5059 127.761 24.374C128.029 24.2373 128.237 24.0591 128.383 23.8394V22.5869H127.329C126.86 22.5869 126.503 22.6943 126.259 22.9092C126.02 23.124 125.9 23.3828 125.9 23.6855C125.9 23.9688 125.988 24.1885 126.164 24.3447C126.345 24.4961 126.594 24.5718 126.911 24.5718ZM132.089 29.0469V27.7578L133.122 27.5381V19.584L131.979 19.3643V18.0752H135.085L135.187 18.998C135.422 18.6562 135.705 18.3926 136.037 18.207C136.369 18.0215 136.765 17.9287 137.224 17.9287C137.863 17.9287 138.41 18.1045 138.864 18.4561C139.318 18.8027 139.665 19.2886 139.904 19.9136C140.148 20.5386 140.27 21.2686 140.27 22.1035V22.2573C140.27 23.0386 140.148 23.7222 139.904 24.3081C139.665 24.8892 139.316 25.3433 138.857 25.6704C138.403 25.9927 137.853 26.1538 137.209 26.1538C136.784 26.1538 136.408 26.0781 136.081 25.9268C135.759 25.7705 135.483 25.5435 135.253 25.2456V27.5381L136.286 27.7578V29.0469H132.089ZM136.572 24.5132C137.119 24.5132 137.514 24.3105 137.758 23.9053C138.007 23.5 138.132 22.9507 138.132 22.2573V22.1035C138.132 21.6006 138.076 21.1636 137.963 20.7925C137.851 20.4165 137.678 20.1235 137.443 19.9136C137.214 19.6987 136.918 19.5913 136.557 19.5913C136.264 19.5913 136.005 19.6572 135.781 19.7891C135.561 19.9209 135.385 20.1089 135.253 20.353V23.8247C135.385 24.0493 135.561 24.2202 135.781 24.3374C136.005 24.4546 136.269 24.5132 136.572 24.5132ZM141.025 29.0469V27.7578L142.058 27.5381V19.584L140.915 19.3643V18.0752H144.02L144.123 18.998C144.357 18.6562 144.641 18.3926 144.973 18.207C145.305 18.0215 145.7 17.9287 146.159 17.9287C146.799 17.9287 147.346 18.1045 147.8 18.4561C148.254 18.8027 148.6 19.2886 148.84 19.9136C149.084 20.5386 149.206 21.2686 149.206 22.1035V22.2573C149.206 23.0386 149.084 23.7222 148.84 24.3081C148.6 24.8892 148.251 25.3433 147.792 25.6704C147.338 25.9927 146.789 26.1538 146.144 26.1538C145.72 26.1538 145.344 26.0781 145.016 25.9268C144.694 25.7705 144.418 25.5435 144.189 25.2456V27.5381L145.222 27.7578V29.0469H141.025ZM145.507 24.5132C146.054 24.5132 146.45 24.3105 146.694 23.9053C146.943 23.5 147.067 22.9507 147.067 22.2573V22.1035C147.067 21.6006 147.011 21.1636 146.899 20.7925C146.787 20.4165 146.613 20.1235 146.379 19.9136C146.149 19.6987 145.854 19.5913 145.493 19.5913C145.2 19.5913 144.941 19.6572 144.716 19.7891C144.496 19.9209 144.321 20.1089 144.189 20.353V23.8247C144.321 24.0493 144.496 24.2202 144.716 24.3374C144.941 24.4546 145.204 24.5132 145.507 24.5132ZM149.894 26V24.7183L150.927 24.4985V16.083L149.785 15.8633V14.5742H153.066V24.4985L154.099 24.7183V26H149.894ZM158.449 26.1538C157.692 26.1538 157.031 25.9878 156.464 25.6558C155.898 25.3188 155.458 24.8574 155.146 24.2715C154.838 23.6855 154.684 23.0166 154.684 22.2646V21.9717C154.684 21.1855 154.831 20.4897 155.124 19.8843C155.417 19.2739 155.829 18.7954 156.362 18.4487C156.899 18.0972 157.531 17.9238 158.259 17.9287C158.976 17.9287 159.579 18.0703 160.068 18.3535C160.556 18.6367 160.927 19.0444 161.181 19.5767C161.435 20.1089 161.562 20.7534 161.562 21.5103V22.6748H156.904L156.889 22.7188C156.918 23.0654 157.004 23.3755 157.145 23.6489C157.292 23.9175 157.497 24.1299 157.761 24.2861C158.024 24.4375 158.344 24.5132 158.72 24.5132C159.111 24.5132 159.475 24.4644 159.811 24.3667C160.153 24.2642 160.485 24.1152 160.808 23.9199L161.386 25.2383C161.059 25.502 160.646 25.7217 160.148 25.8975C159.655 26.0684 159.089 26.1538 158.449 26.1538ZM156.918 21.2612H159.562V21.0708C159.562 20.7485 159.518 20.4727 159.431 20.2432C159.348 20.0088 159.211 19.8281 159.02 19.7012C158.835 19.5742 158.593 19.5107 158.295 19.5107C158.012 19.5107 157.773 19.5864 157.578 19.7378C157.382 19.8843 157.228 20.0869 157.116 20.3457C157.009 20.6045 156.935 20.8975 156.896 21.2246L156.918 21.2612ZM166.147 26V24.7183L167.18 24.4985V19.584L166.037 19.3643V18.0752H169.164L169.252 19.1226C169.506 18.7417 169.824 18.4487 170.204 18.2437C170.59 18.0337 171.035 17.9287 171.537 17.9287C172.045 17.9287 172.48 18.041 172.841 18.2656C173.207 18.4902 173.481 18.8296 173.662 19.2837C173.906 18.8589 174.223 18.5269 174.614 18.2876C175.004 18.0483 175.463 17.9287 175.991 17.9287C176.772 17.9287 177.387 18.1948 177.836 18.7271C178.29 19.2593 178.517 20.0698 178.517 21.1587V24.4985L179.55 24.7183V26H175.456V24.7183L176.379 24.4985V21.1514C176.379 20.5654 176.281 20.1602 176.086 19.9355C175.895 19.7061 175.617 19.5913 175.251 19.5913C174.919 19.5913 174.638 19.6865 174.409 19.877C174.179 20.0625 174.013 20.3091 173.911 20.6167V24.4985L174.775 24.7183V26H170.915V24.7183L171.779 24.4985V21.1514C171.779 20.5801 171.682 20.1772 171.486 19.9429C171.296 19.7085 171.013 19.5913 170.637 19.5913C170.334 19.5913 170.073 19.6523 169.853 19.7744C169.633 19.8965 169.453 20.0723 169.311 20.3018V24.4985L170.234 24.7183V26H166.147ZM183.315 26.1538C182.48 26.1538 181.823 25.8901 181.345 25.3628C180.871 24.8306 180.634 24.0054 180.634 22.8872V19.584L179.763 19.3643V18.0752H180.634H182.773V22.9019C182.773 23.4683 182.87 23.876 183.066 24.125C183.266 24.3691 183.566 24.4912 183.967 24.4912C184.284 24.4912 184.565 24.4302 184.809 24.3081C185.053 24.1812 185.253 24.0029 185.41 23.7734V19.584L184.465 19.3643V18.0752H185.41H187.548V24.4985L188.5 24.7183V26H185.673L185.527 24.9966C185.278 25.3677 184.965 25.6533 184.589 25.8535C184.213 26.0537 183.788 26.1538 183.315 26.1538ZM192.697 26.1538C192.106 26.1538 191.555 26.0977 191.042 25.9854C190.534 25.873 190.046 25.7119 189.577 25.502L189.555 23.2607H191.042L191.328 24.4033C191.494 24.4863 191.674 24.5522 191.87 24.6011C192.07 24.6499 192.297 24.6743 192.551 24.6743C193.029 24.6743 193.366 24.5962 193.561 24.4399C193.757 24.2837 193.854 24.0884 193.854 23.854C193.854 23.6343 193.749 23.4414 193.539 23.2754C193.334 23.1045 192.922 22.9556 192.302 22.8286C191.364 22.6333 190.673 22.3306 190.229 21.9204C189.785 21.5103 189.562 20.9854 189.562 20.3457C189.562 19.9062 189.672 19.5059 189.892 19.1445C190.117 18.7832 190.456 18.4927 190.91 18.2729C191.369 18.0532 191.955 17.9434 192.668 17.9434C193.264 17.9434 193.808 18.002 194.301 18.1191C194.799 18.2314 195.217 18.3804 195.554 18.5659L195.576 20.7339H194.096L193.869 19.6938C193.737 19.5962 193.581 19.5229 193.4 19.4741C193.225 19.4253 193.024 19.4009 192.8 19.4009C192.424 19.4009 192.136 19.4766 191.935 19.6279C191.735 19.7793 191.635 19.9746 191.635 20.2139C191.635 20.3506 191.669 20.4775 191.738 20.5947C191.811 20.7119 191.953 20.8218 192.162 20.9243C192.372 21.0269 192.678 21.1245 193.078 21.2173C194.059 21.4419 194.775 21.7422 195.224 22.1182C195.673 22.4893 195.898 23.0117 195.898 23.6855C195.898 24.4229 195.629 25.0186 195.092 25.4727C194.56 25.9268 193.762 26.1538 192.697 26.1538ZM196.806 26V24.7183L197.839 24.4985V19.584L196.696 19.3643V18.0752H199.977V24.4985L201.003 24.7183V26H196.806ZM197.766 16.3979V14.5742H199.977V16.3979H197.766ZM205.449 26.1538C204.687 26.1538 204.028 25.9829 203.471 25.6411C202.919 25.2993 202.495 24.8281 202.197 24.2275C201.899 23.6221 201.75 22.9312 201.75 22.1548V21.9351C201.75 21.1538 201.901 20.4629 202.204 19.8623C202.507 19.2617 202.934 18.7905 203.486 18.4487C204.037 18.1021 204.687 17.9287 205.434 17.9287C206.147 17.9287 206.76 18.041 207.272 18.2656C207.79 18.4854 208.21 18.7417 208.532 19.0347L208.517 21.3052H206.906L206.62 19.8916C206.503 19.7744 206.354 19.6792 206.174 19.606C205.993 19.5327 205.81 19.4961 205.624 19.4961C205.234 19.4961 204.909 19.5938 204.65 19.7891C204.396 19.9844 204.206 20.2627 204.079 20.624C203.952 20.9854 203.889 21.4224 203.889 21.9351V22.1548C203.889 22.6968 203.959 23.1436 204.101 23.4951C204.243 23.8418 204.431 24.0981 204.665 24.2642C204.904 24.4302 205.17 24.5132 205.463 24.5132C205.839 24.5132 206.14 24.4155 206.364 24.2202C206.594 24.02 206.75 23.7393 206.833 23.3779H208.664L208.686 23.4219C208.603 23.9834 208.437 24.4692 208.188 24.8794C207.944 25.2896 207.597 25.6045 207.148 25.8242C206.704 26.0439 206.137 26.1538 205.449 26.1538Z" fill="black"/>
</svg>
