<svg width="256" height="44" viewBox="0 0 256 44" fill="none" xmlns="http://www.w3.org/2000/svg">
<rect x="0.5" y="0.5" width="255" height="43" fill="#E5AD3F" stroke="black"/>
<path d="M41.0111 26.1538C40.2542 26.1538 39.5926 25.9878 39.0262 25.6558C38.4598 25.3188 38.0203 24.8574 37.7078 24.2715C37.4002 23.6855 37.2464 23.0166 37.2464 22.2646V21.9717C37.2464 21.1855 37.3929 20.4897 37.6859 19.8843C37.9788 19.2739 38.3914 18.7954 38.9237 18.4487C39.4608 18.0972 40.0931 17.9238 40.8206 17.9287C41.5384 17.9287 42.1414 18.0703 42.6297 18.3535C43.118 18.6367 43.4891 19.0444 43.743 19.5767C43.9969 20.1089 44.1238 20.7534 44.1238 21.5103V22.6748H39.4656L39.451 22.7188C39.4803 23.0654 39.5657 23.3755 39.7073 23.6489C39.8538 23.9175 40.0589 24.1299 40.3226 24.2861C40.5863 24.4375 40.9061 24.5132 41.2821 24.5132C41.6727 24.5132 42.0364 24.4644 42.3734 24.3667C42.7152 24.2642 43.0472 24.1152 43.3695 23.9199L43.9481 25.2383C43.6209 25.502 43.2083 25.7217 42.7103 25.8975C42.2171 26.0684 41.6507 26.1538 41.0111 26.1538ZM39.4803 21.2612H42.1243V21.0708C42.1243 20.7485 42.0804 20.4727 41.9925 20.2432C41.9095 20.0088 41.7728 19.8281 41.5823 19.7012C41.3968 19.5742 41.1551 19.5107 40.8572 19.5107C40.574 19.5107 40.3348 19.5864 40.1395 19.7378C39.9442 19.8843 39.7904 20.0869 39.678 20.3457C39.5706 20.6045 39.4974 20.8975 39.4583 21.2246L39.4803 21.2612ZM39.5023 16.5737L40.9598 14.5742H43.223L43.2376 14.6182L41.2161 16.5737H39.5609H39.5023ZM48.8406 26.1538C48.0789 26.1538 47.4197 25.9829 46.8631 25.6411C46.3113 25.2993 45.8865 24.8281 45.5887 24.2275C45.2908 23.6221 45.1419 22.9312 45.1419 22.1548V21.9351C45.1419 21.1538 45.2933 20.4629 45.596 19.8623C45.8988 19.2617 46.326 18.7905 46.8778 18.4487C47.4295 18.1021 48.0789 17.9287 48.826 17.9287C49.5389 17.9287 50.1517 18.041 50.6644 18.2656C51.182 18.4854 51.6019 18.7417 51.9241 19.0347L51.9095 21.3052H50.2982L50.0125 19.8916C49.8953 19.7744 49.7464 19.6792 49.5657 19.606C49.3851 19.5327 49.202 19.4961 49.0164 19.4961C48.6258 19.4961 48.3011 19.5938 48.0423 19.7891C47.7884 19.9844 47.598 20.2627 47.471 20.624C47.3441 20.9854 47.2806 21.4224 47.2806 21.9351V22.1548C47.2806 22.6968 47.3514 23.1436 47.493 23.4951C47.6346 23.8418 47.8226 24.0981 48.057 24.2642C48.2962 24.4302 48.5623 24.5132 48.8553 24.5132C49.2313 24.5132 49.5316 24.4155 49.7562 24.2202C49.9857 24.02 50.1419 23.7393 50.2249 23.3779H52.056L52.0779 23.4219C51.9949 23.9834 51.8289 24.4692 51.5799 24.8794C51.3358 25.2896 50.9891 25.6045 50.5399 25.8242C50.0955 26.0439 49.5291 26.1538 48.8406 26.1538ZM56.8167 26.1538C56.0355 26.1538 55.3641 25.9829 54.8026 25.6411C54.241 25.2993 53.8113 24.8257 53.5135 24.2202C53.2156 23.6099 53.0667 22.9092 53.0667 22.1182V21.9644C53.0667 21.1782 53.2156 20.4824 53.5135 19.877C53.8113 19.2666 54.2386 18.7905 54.7952 18.4487C55.3568 18.1021 56.0257 17.9287 56.8021 17.9287C57.5882 17.9287 58.2596 18.1021 58.8162 18.4487C59.3729 18.7905 59.8001 19.2642 60.098 19.8696C60.3958 20.4751 60.5447 21.1733 60.5447 21.9644V22.1182C60.5447 22.9092 60.3958 23.6099 60.098 24.2202C59.8001 24.8257 59.3729 25.2993 58.8162 25.6411C58.2596 25.9829 57.5931 26.1538 56.8167 26.1538ZM56.8167 24.5132C57.1878 24.5132 57.4905 24.4131 57.7249 24.2129C57.9593 24.0127 58.1326 23.7344 58.2449 23.3779C58.3572 23.0166 58.4134 22.5967 58.4134 22.1182V21.9644C58.4134 21.4956 58.3572 21.083 58.2449 20.7266C58.1326 20.3652 57.9569 20.0845 57.7176 19.8843C57.4832 19.6792 57.178 19.5767 56.8021 19.5767C56.4359 19.5767 56.1331 19.6792 55.8939 19.8843C55.6546 20.0845 55.4788 20.3652 55.3665 20.7266C55.2591 21.083 55.2054 21.4956 55.2054 21.9644V22.1182C55.2054 22.5967 55.2591 23.0166 55.3665 23.3779C55.4788 23.7393 55.6546 24.02 55.8939 24.2202C56.1331 24.4155 56.4407 24.5132 56.8167 24.5132ZM64.866 26.1538C64.0311 26.1538 63.3743 25.8901 62.8958 25.3628C62.4222 24.8306 62.1854 24.0054 62.1854 22.8872V19.584L61.3138 19.3643V18.0752H62.1854H64.324V22.9019C64.324 23.4683 64.4217 23.876 64.617 24.125C64.8172 24.3691 65.1175 24.4912 65.5179 24.4912C65.8353 24.4912 66.116 24.4302 66.3602 24.3081C66.6043 24.1812 66.8045 24.0029 66.9608 23.7734V19.584L66.0159 19.3643V18.0752H66.9608H69.0994V24.4985L70.0516 24.7183V26H67.2244L67.0779 24.9966C66.8289 25.3677 66.5164 25.6533 66.1404 25.8535C65.7645 26.0537 65.3397 26.1538 64.866 26.1538ZM73.9627 26.1538C73.2254 26.1538 72.6566 25.9512 72.2562 25.5459C71.8607 25.1406 71.6629 24.4985 71.6629 23.6196V19.5767H70.5716V18.0752H71.6629V16.1343H73.7943V18.0752H75.2518V19.5767H73.7943V23.6123C73.7943 23.9199 73.8577 24.1396 73.9847 24.2715C74.1165 24.4033 74.2947 24.4692 74.5194 24.4692C74.6414 24.4692 74.7684 24.4619 74.9002 24.4473C75.0369 24.4277 75.1541 24.4082 75.2518 24.3887L75.4349 25.9341C75.2152 25.9976 74.9759 26.0488 74.7171 26.0879C74.4632 26.1318 74.2117 26.1538 73.9627 26.1538ZM79.8587 26.1538C79.1019 26.1538 78.4403 25.9878 77.8738 25.6558C77.3074 25.3188 76.868 24.8574 76.5555 24.2715C76.2479 23.6855 76.0941 23.0166 76.0941 22.2646V21.9717C76.0941 21.1855 76.2405 20.4897 76.5335 19.8843C76.8265 19.2739 77.2391 18.7954 77.7713 18.4487C78.3084 18.0972 78.9407 17.9238 79.6683 17.9287C80.3861 17.9287 80.9891 18.0703 81.4774 18.3535C81.9656 18.6367 82.3367 19.0444 82.5906 19.5767C82.8446 20.1089 82.9715 20.7534 82.9715 21.5103V22.6748H78.3133L78.2987 22.7188C78.3279 23.0654 78.4134 23.3755 78.555 23.6489C78.7015 23.9175 78.9066 24.1299 79.1702 24.2861C79.4339 24.4375 79.7537 24.5132 80.1297 24.5132C80.5203 24.5132 80.8841 24.4644 81.221 24.3667C81.5628 24.2642 81.8948 24.1152 82.2171 23.9199L82.7957 25.2383C82.4686 25.502 82.056 25.7217 81.5579 25.8975C81.0648 26.0684 80.4984 26.1538 79.8587 26.1538ZM78.3279 21.2612H80.972V21.0708C80.972 20.7485 80.928 20.4727 80.8402 20.2432C80.7571 20.0088 80.6204 19.8281 80.43 19.7012C80.2445 19.5742 80.0028 19.5107 79.7049 19.5107C79.4217 19.5107 79.1824 19.5864 78.9871 19.7378C78.7918 19.8843 78.638 20.0869 78.5257 20.3457C78.4183 20.6045 78.345 20.8975 78.306 21.2246L78.3279 21.2612ZM84.1434 26V24.7402L88.2669 19.5693H86.1282L85.8865 20.9243H84.3192V18.0752H90.8304V19.4448L86.9412 24.4692H89.1824L89.4974 23.0117H90.9988V26H84.1434ZM99.1507 26.1538C98.5599 26.1538 98.0081 26.0977 97.4954 25.9854C96.9876 25.873 96.4993 25.7119 96.0306 25.502L96.0086 23.2607H97.4954L97.7811 24.4033C97.9471 24.4863 98.1278 24.5522 98.3231 24.6011C98.5233 24.6499 98.7503 24.6743 99.0042 24.6743C99.4827 24.6743 99.8196 24.5962 100.015 24.4399C100.21 24.2837 100.308 24.0884 100.308 23.854C100.308 23.6343 100.203 23.4414 99.993 23.2754C99.7879 23.1045 99.3753 22.9556 98.7552 22.8286C97.8177 22.6333 97.1268 22.3306 96.6824 21.9204C96.2381 21.5103 96.0159 20.9854 96.0159 20.3457C96.0159 19.9062 96.1258 19.5059 96.3455 19.1445C96.5701 18.7832 96.9095 18.4927 97.3636 18.2729C97.8226 18.0532 98.4085 17.9434 99.1214 17.9434C99.7171 17.9434 100.262 18.002 100.755 18.1191C101.253 18.2314 101.67 18.3804 102.007 18.5659L102.029 20.7339H100.55L100.323 19.6938C100.191 19.5962 100.034 19.5229 99.8538 19.4741C99.678 19.4253 99.4779 19.4009 99.2532 19.4009C98.8773 19.4009 98.5892 19.4766 98.389 19.6279C98.1888 19.7793 98.0887 19.9746 98.0887 20.2139C98.0887 20.3506 98.1229 20.4775 98.1912 20.5947C98.2645 20.7119 98.4061 20.8218 98.616 20.9243C98.826 21.0269 99.1312 21.1245 99.5316 21.2173C100.513 21.4419 101.228 21.7422 101.678 22.1182C102.127 22.4893 102.351 23.0117 102.351 23.6855C102.351 24.4229 102.083 25.0186 101.546 25.4727C101.013 25.9268 100.215 26.1538 99.1507 26.1538ZM106.687 26.1538C105.852 26.1538 105.196 25.8901 104.717 25.3628C104.243 24.8306 104.007 24.0054 104.007 22.8872V19.584L103.135 19.3643V18.0752H104.007H106.145V22.9019C106.145 23.4683 106.243 23.876 106.438 24.125C106.638 24.3691 106.939 24.4912 107.339 24.4912C107.657 24.4912 107.937 24.4302 108.181 24.3081C108.426 24.1812 108.626 24.0029 108.782 23.7734V19.584L107.837 19.3643V18.0752H108.782H110.921V24.4985L111.873 24.7183V26H109.046L108.899 24.9966C108.65 25.3677 108.338 25.6533 107.962 25.8535C107.586 26.0537 107.161 26.1538 106.687 26.1538ZM112.832 26V24.7183L113.858 24.4985V19.584L112.722 19.3643V18.0752H115.85L115.93 19.0566L115.945 19.2324C116.14 18.8027 116.382 18.478 116.67 18.2583C116.958 18.0386 117.303 17.9287 117.703 17.9287C117.83 17.9287 117.969 17.9409 118.12 17.9653C118.272 17.9849 118.406 18.0117 118.523 18.0459L118.296 20.0161L117.234 19.9575C116.931 19.9429 116.685 19.9941 116.494 20.1113C116.309 20.2285 116.143 20.397 115.996 20.6167V24.4985L117.022 24.7183V26H112.832ZM125.489 26.1538C124.702 26.1538 124.077 25.9438 123.614 25.5239C123.15 25.0991 122.918 24.5229 122.918 23.7954C122.918 23.2974 123.052 22.8604 123.321 22.4844C123.594 22.1084 123.994 21.813 124.522 21.5981C125.054 21.3833 125.708 21.2759 126.485 21.2759H127.532V20.6899C127.532 20.3091 127.42 20.0015 127.195 19.7671C126.975 19.5278 126.643 19.4082 126.199 19.4082C125.97 19.4082 125.764 19.4375 125.584 19.4961C125.403 19.5498 125.237 19.6279 125.086 19.7305L124.917 20.7778H123.379L123.35 18.7197C123.765 18.4854 124.214 18.2949 124.698 18.1484C125.181 18.002 125.721 17.9287 126.316 17.9287C127.351 17.9287 128.169 18.1704 128.77 18.6538C129.37 19.1323 129.671 19.8184 129.671 20.7119V23.9785C129.671 24.0859 129.671 24.1934 129.671 24.3008C129.676 24.4033 129.685 24.5034 129.7 24.6011L130.528 24.7183V26H127.876C127.823 25.8633 127.769 25.7168 127.715 25.5605C127.661 25.4043 127.622 25.248 127.598 25.0918C127.344 25.4141 127.044 25.6729 126.697 25.8682C126.355 26.0586 125.952 26.1538 125.489 26.1538ZM126.06 24.5718C126.358 24.5718 126.641 24.5059 126.909 24.374C127.178 24.2373 127.386 24.0591 127.532 23.8394V22.5869H126.477C126.009 22.5869 125.652 22.6943 125.408 22.9092C125.169 23.124 125.049 23.3828 125.049 23.6855C125.049 23.9688 125.137 24.1885 125.313 24.3447C125.493 24.4961 125.743 24.5718 126.06 24.5718ZM131.238 29.0469V27.7578L132.271 27.5381V19.584L131.128 19.3643V18.0752H134.234L134.336 18.998C134.571 18.6562 134.854 18.3926 135.186 18.207C135.518 18.0215 135.913 17.9287 136.372 17.9287C137.012 17.9287 137.559 18.1045 138.013 18.4561C138.467 18.8027 138.814 19.2886 139.053 19.9136C139.297 20.5386 139.419 21.2686 139.419 22.1035V22.2573C139.419 23.0386 139.297 23.7222 139.053 24.3081C138.814 24.8892 138.465 25.3433 138.006 25.6704C137.552 25.9927 137.002 26.1538 136.358 26.1538C135.933 26.1538 135.557 26.0781 135.23 25.9268C134.908 25.7705 134.632 25.5435 134.402 25.2456V27.5381L135.435 27.7578V29.0469H131.238ZM135.721 24.5132C136.267 24.5132 136.663 24.3105 136.907 23.9053C137.156 23.5 137.281 22.9507 137.281 22.2573V22.1035C137.281 21.6006 137.224 21.1636 137.112 20.7925C137 20.4165 136.826 20.1235 136.592 19.9136C136.363 19.6987 136.067 19.5913 135.706 19.5913C135.413 19.5913 135.154 19.6572 134.93 19.7891C134.71 19.9209 134.534 20.1089 134.402 20.353V23.8247C134.534 24.0493 134.71 24.2202 134.93 24.3374C135.154 24.4546 135.418 24.5132 135.721 24.5132ZM140.174 29.0469V27.7578L141.206 27.5381V19.584L140.064 19.3643V18.0752H143.169L143.272 18.998C143.506 18.6562 143.789 18.3926 144.121 18.207C144.453 18.0215 144.849 17.9287 145.308 17.9287C145.948 17.9287 146.494 18.1045 146.949 18.4561C147.403 18.8027 147.749 19.2886 147.989 19.9136C148.233 20.5386 148.355 21.2686 148.355 22.1035V22.2573C148.355 23.0386 148.233 23.7222 147.989 24.3081C147.749 24.8892 147.4 25.3433 146.941 25.6704C146.487 25.9927 145.938 26.1538 145.293 26.1538C144.868 26.1538 144.492 26.0781 144.165 25.9268C143.843 25.7705 143.567 25.5435 143.338 25.2456V27.5381L144.37 27.7578V29.0469H140.174ZM144.656 24.5132C145.203 24.5132 145.598 24.3105 145.843 23.9053C146.092 23.5 146.216 22.9507 146.216 22.2573V22.1035C146.216 21.6006 146.16 21.1636 146.048 20.7925C145.935 20.4165 145.762 20.1235 145.528 19.9136C145.298 19.6987 145.003 19.5913 144.641 19.5913C144.348 19.5913 144.09 19.6572 143.865 19.7891C143.645 19.9209 143.47 20.1089 143.338 20.353V23.8247C143.47 24.0493 143.645 24.2202 143.865 24.3374C144.09 24.4546 144.353 24.5132 144.656 24.5132ZM149.043 26V24.7183L150.076 24.4985V16.083L148.933 15.8633V14.5742H152.215V24.4985L153.247 24.7183V26H149.043ZM157.598 26.1538C156.841 26.1538 156.18 25.9878 155.613 25.6558C155.047 25.3188 154.607 24.8574 154.295 24.2715C153.987 23.6855 153.833 23.0166 153.833 22.2646V21.9717C153.833 21.1855 153.98 20.4897 154.273 19.8843C154.566 19.2739 154.978 18.7954 155.511 18.4487C156.048 18.0972 156.68 17.9238 157.408 17.9287C158.125 17.9287 158.728 18.0703 159.217 18.3535C159.705 18.6367 160.076 19.0444 160.33 19.5767C160.584 20.1089 160.711 20.7534 160.711 21.5103V22.6748H156.053L156.038 22.7188C156.067 23.0654 156.153 23.3755 156.294 23.6489C156.441 23.9175 156.646 24.1299 156.909 24.2861C157.173 24.4375 157.493 24.5132 157.869 24.5132C158.26 24.5132 158.623 24.4644 158.96 24.3667C159.302 24.2642 159.634 24.1152 159.956 23.9199L160.535 25.2383C160.208 25.502 159.795 25.7217 159.297 25.8975C158.804 26.0684 158.238 26.1538 157.598 26.1538ZM156.067 21.2612H158.711V21.0708C158.711 20.7485 158.667 20.4727 158.579 20.2432C158.496 20.0088 158.36 19.8281 158.169 19.7012C157.984 19.5742 157.742 19.5107 157.444 19.5107C157.161 19.5107 156.922 19.5864 156.726 19.7378C156.531 19.8843 156.377 20.0869 156.265 20.3457C156.158 20.6045 156.084 20.8975 156.045 21.2246L156.067 21.2612ZM165.296 26V24.7183L166.328 24.4985V19.584L165.186 19.3643V18.0752H168.313L168.401 19.1226C168.655 18.7417 168.972 18.4487 169.353 18.2437C169.739 18.0337 170.183 17.9287 170.686 17.9287C171.194 17.9287 171.629 18.041 171.99 18.2656C172.356 18.4902 172.63 18.8296 172.81 19.2837C173.055 18.8589 173.372 18.5269 173.763 18.2876C174.153 18.0483 174.612 17.9287 175.139 17.9287C175.921 17.9287 176.536 18.1948 176.985 18.7271C177.439 19.2593 177.666 20.0698 177.666 21.1587V24.4985L178.699 24.7183V26H174.605V24.7183L175.528 24.4985V21.1514C175.528 20.5654 175.43 20.1602 175.235 19.9355C175.044 19.7061 174.766 19.5913 174.4 19.5913C174.068 19.5913 173.787 19.6865 173.557 19.877C173.328 20.0625 173.162 20.3091 173.059 20.6167V24.4985L173.924 24.7183V26H170.064V24.7183L170.928 24.4985V21.1514C170.928 20.5801 170.83 20.1772 170.635 19.9429C170.445 19.7085 170.161 19.5913 169.785 19.5913C169.483 19.5913 169.221 19.6523 169.002 19.7744C168.782 19.8965 168.601 20.0723 168.46 20.3018V24.4985L169.383 24.7183V26H165.296ZM182.464 26.1538C181.629 26.1538 180.972 25.8901 180.493 25.3628C180.02 24.8306 179.783 24.0054 179.783 22.8872V19.584L178.911 19.3643V18.0752H179.783H181.922V22.9019C181.922 23.4683 182.019 23.876 182.215 24.125C182.415 24.3691 182.715 24.4912 183.116 24.4912C183.433 24.4912 183.714 24.4302 183.958 24.3081C184.202 24.1812 184.402 24.0029 184.558 23.7734V19.584L183.614 19.3643V18.0752H184.558H186.697V24.4985L187.649 24.7183V26H184.822L184.676 24.9966C184.427 25.3677 184.114 25.6533 183.738 25.8535C183.362 26.0537 182.937 26.1538 182.464 26.1538ZM191.846 26.1538C191.255 26.1538 190.703 26.0977 190.191 25.9854C189.683 25.873 189.195 25.7119 188.726 25.502L188.704 23.2607H190.191L190.476 24.4033C190.642 24.4863 190.823 24.5522 191.018 24.6011C191.219 24.6499 191.446 24.6743 191.7 24.6743C192.178 24.6743 192.515 24.5962 192.71 24.4399C192.906 24.2837 193.003 24.0884 193.003 23.854C193.003 23.6343 192.898 23.4414 192.688 23.2754C192.483 23.1045 192.071 22.9556 191.451 22.8286C190.513 22.6333 189.822 22.3306 189.378 21.9204C188.933 21.5103 188.711 20.9854 188.711 20.3457C188.711 19.9062 188.821 19.5059 189.041 19.1445C189.265 18.7832 189.605 18.4927 190.059 18.2729C190.518 18.0532 191.104 17.9434 191.817 17.9434C192.412 17.9434 192.957 18.002 193.45 18.1191C193.948 18.2314 194.366 18.3804 194.702 18.5659L194.724 20.7339H193.245L193.018 19.6938C192.886 19.5962 192.73 19.5229 192.549 19.4741C192.373 19.4253 192.173 19.4009 191.949 19.4009C191.573 19.4009 191.284 19.4766 191.084 19.6279C190.884 19.7793 190.784 19.9746 190.784 20.2139C190.784 20.3506 190.818 20.4775 190.887 20.5947C190.96 20.7119 191.101 20.8218 191.311 20.9243C191.521 21.0269 191.826 21.1245 192.227 21.2173C193.208 21.4419 193.924 21.7422 194.373 22.1182C194.822 22.4893 195.047 23.0117 195.047 23.6855C195.047 24.4229 194.778 25.0186 194.241 25.4727C193.709 25.9268 192.91 26.1538 191.846 26.1538ZM195.955 26V24.7183L196.988 24.4985V19.584L195.845 19.3643V18.0752H199.126V24.4985L200.152 24.7183V26H195.955ZM196.914 16.3979V14.5742H199.126V16.3979H196.914ZM204.597 26.1538C203.836 26.1538 203.177 25.9829 202.62 25.6411C202.068 25.2993 201.643 24.8281 201.346 24.2275C201.048 23.6221 200.899 22.9312 200.899 22.1548V21.9351C200.899 21.1538 201.05 20.4629 201.353 19.8623C201.656 19.2617 202.083 18.7905 202.635 18.4487C203.186 18.1021 203.836 17.9287 204.583 17.9287C205.296 17.9287 205.909 18.041 206.421 18.2656C206.939 18.4854 207.359 18.7417 207.681 19.0347L207.666 21.3052H206.055L205.769 19.8916C205.652 19.7744 205.503 19.6792 205.323 19.606C205.142 19.5327 204.959 19.4961 204.773 19.4961C204.383 19.4961 204.058 19.5938 203.799 19.7891C203.545 19.9844 203.355 20.2627 203.228 20.624C203.101 20.9854 203.037 21.4224 203.037 21.9351V22.1548C203.037 22.6968 203.108 23.1436 203.25 23.4951C203.391 23.8418 203.579 24.0981 203.814 24.2642C204.053 24.4302 204.319 24.5132 204.612 24.5132C204.988 24.5132 205.288 24.4155 205.513 24.2202C205.742 24.02 205.899 23.7393 205.982 23.3779H207.813L207.835 23.4219C207.752 23.9834 207.586 24.4692 207.337 24.8794C207.093 25.2896 206.746 25.6045 206.297 25.8242C205.852 26.0439 205.286 26.1538 204.597 26.1538Z" fill="black"/>
</svg>
