<svg width="252" height="60" viewBox="0 0 252 60" fill="none" xmlns="http://www.w3.org/2000/svg">
<rect x="12.733" y="17.8914" width="189.835" height="26.8261" fill="#E5AD3F" stroke="black"/>
<path d="M37.0433 36V34.7183L38.076 34.4985V26.083L36.9334 25.8633V24.5742H40.2147V34.4985L41.2474 34.7183V36H37.0433ZM41.8846 36V34.7183L42.9173 34.4985V29.584L41.7747 29.3643V28.0752H45.056V34.4985L46.0814 34.7183V36H41.8846ZM42.8441 26.3979V24.5742H45.056V26.3979H42.8441ZM46.9603 36V34.7183L47.9857 34.4985V29.584L46.8504 29.3643V28.0752H49.9778L50.0584 29.0566L50.0731 29.2324C50.2684 28.8027 50.5101 28.478 50.7982 28.2583C51.0862 28.0386 51.4305 27.9287 51.8309 27.9287C51.9578 27.9287 52.097 27.9409 52.2484 27.9653C52.3997 27.9849 52.534 28.0117 52.6512 28.0459L52.4241 30.0161L51.3621 29.9575C51.0594 29.9429 50.8128 29.9941 50.6224 30.1113C50.4368 30.2285 50.2708 30.397 50.1243 30.6167V34.4985L51.1497 34.7183V36H46.9603ZM56.9359 36.1538C56.179 36.1538 55.5174 35.9878 54.951 35.6558C54.3846 35.3188 53.9451 34.8574 53.6326 34.2715C53.325 33.6855 53.1712 33.0166 53.1712 32.2646V31.9717C53.1712 31.1855 53.3177 30.4897 53.6107 29.8843C53.9036 29.2739 54.3162 28.7954 54.8484 28.4487C55.3856 28.0972 56.0179 27.9238 56.7454 27.9287C57.4632 27.9287 58.0662 28.0703 58.5545 28.3535C59.0428 28.6367 59.4139 29.0444 59.6678 29.5767C59.9217 30.1089 60.0486 30.7534 60.0486 31.5103V32.6748H55.3904L55.3758 32.7188C55.4051 33.0654 55.4905 33.3755 55.6321 33.6489C55.7786 33.9175 55.9837 34.1299 56.2474 34.2861C56.511 34.4375 56.8309 34.5132 57.2068 34.5132C57.5975 34.5132 57.9612 34.4644 58.2982 34.3667C58.64 34.2642 58.972 34.1152 59.2943 33.9199L59.8729 35.2383C59.5457 35.502 59.1331 35.7217 58.6351 35.8975C58.1419 36.0684 57.5755 36.1538 56.9359 36.1538ZM55.4051 31.2612H58.0491V31.0708C58.0491 30.7485 58.0052 30.4727 57.9173 30.2432C57.8343 30.0088 57.6976 29.8281 57.5071 29.7012C57.3216 29.5742 57.0799 29.5107 56.782 29.5107C56.4988 29.5107 56.2596 29.5864 56.0643 29.7378C55.869 29.8843 55.7151 30.0869 55.6028 30.3457C55.4954 30.6045 55.4222 30.8975 55.3831 31.2246L55.4051 31.2612ZM64.597 36V34.7183L65.6297 34.4985V26.083L64.4871 25.8633V24.5742H67.7684V34.4985L68.8011 34.7183V36H64.597ZM70.5296 28.8369L69.4749 28.2583C69.6653 27.9214 69.8118 27.5723 69.9144 27.2109C70.0169 26.8447 70.0682 26.4321 70.0682 25.9731V24.5742H71.8626V25.9731C71.8626 26.3003 71.8016 26.6421 71.6795 26.9985C71.5623 27.3501 71.4036 27.687 71.2034 28.0093C71.0032 28.3315 70.7786 28.6074 70.5296 28.8369ZM75.2464 36.1538C74.4603 36.1538 73.8353 35.9438 73.3714 35.5239C72.9075 35.0991 72.6756 34.5229 72.6756 33.7954C72.6756 33.2974 72.8099 32.8604 73.0784 32.4844C73.3519 32.1084 73.7523 31.813 74.2796 31.5981C74.8118 31.3833 75.4661 31.2759 76.2425 31.2759H77.2899V30.6899C77.2899 30.3091 77.1776 30.0015 76.9529 29.7671C76.7332 29.5278 76.4012 29.4082 75.9568 29.4082C75.7274 29.4082 75.5223 29.4375 75.3416 29.4961C75.1609 29.5498 74.9949 29.6279 74.8436 29.7305L74.6751 30.7778H73.137L73.1077 28.7197C73.5228 28.4854 73.972 28.2949 74.4554 28.1484C74.9388 28.002 75.4783 27.9287 76.074 27.9287C77.1092 27.9287 77.9271 28.1704 78.5276 28.6538C79.1282 29.1323 79.4285 29.8184 79.4285 30.7119V33.9785C79.4285 34.0859 79.4285 34.1934 79.4285 34.3008C79.4334 34.4033 79.4432 34.5034 79.4578 34.6011L80.2855 34.7183V36H77.6341C77.5804 35.8633 77.5267 35.7168 77.473 35.5605C77.4193 35.4043 77.3802 35.248 77.3558 35.0918C77.1019 35.4141 76.8016 35.6729 76.4549 35.8682C76.1131 36.0586 75.7103 36.1538 75.2464 36.1538ZM75.8177 34.5718C76.1155 34.5718 76.3987 34.5059 76.6673 34.374C76.9359 34.2373 77.1434 34.0591 77.2899 33.8394V32.5869H76.2352C75.7664 32.5869 75.41 32.6943 75.1658 32.9092C74.9266 33.124 74.8069 33.3828 74.8069 33.6855C74.8069 33.9688 74.8948 34.1885 75.0706 34.3447C75.2513 34.4961 75.5003 34.5718 75.8177 34.5718ZM81.2083 36V34.7183L82.2337 34.4985V29.584L81.0984 29.3643V28.0752H84.2259L84.3065 29.0566L84.3211 29.2324C84.5164 28.8027 84.7581 28.478 85.0462 28.2583C85.3343 28.0386 85.6785 27.9287 86.0789 27.9287C86.2059 27.9287 86.345 27.9409 86.4964 27.9653C86.6478 27.9849 86.782 28.0117 86.8992 28.0459L86.6722 30.0161L85.6102 29.9575C85.3074 29.9429 85.0609 29.9941 84.8704 30.1113C84.6849 30.2285 84.5189 30.397 84.3724 30.6167V34.4985L85.3978 34.7183V36H81.2083ZM90.825 36.1538C90.0877 36.1538 89.5189 35.9512 89.1185 35.5459C88.723 35.1406 88.5252 34.4985 88.5252 33.6196V29.5767H87.4339V28.0752H88.5252V26.1343H90.6566V28.0752H92.1141V29.5767H90.6566V33.6123C90.6566 33.9199 90.72 34.1396 90.847 34.2715C90.9788 34.4033 91.157 34.4692 91.3817 34.4692C91.5037 34.4692 91.6307 34.4619 91.7625 34.4473C91.8992 34.4277 92.0164 34.4082 92.1141 34.3887L92.2972 35.9341C92.0775 35.9976 91.8382 36.0488 91.5794 36.0879C91.3255 36.1318 91.074 36.1538 90.825 36.1538ZM93.2127 36V34.7183L94.2454 34.4985V29.584L93.1028 29.3643V28.0752H96.3841V34.4985L97.4095 34.7183V36H93.2127ZM94.1722 26.3979V24.5742H96.3841V26.3979H94.1722ZM101.855 36.1538C101.094 36.1538 100.434 35.9829 99.8777 35.6411C99.326 35.2993 98.9012 34.8281 98.6033 34.2275C98.3055 33.6221 98.1566 32.9312 98.1566 32.1548V31.9351C98.1566 31.1538 98.3079 30.4629 98.6107 29.8623C98.9134 29.2617 99.3406 28.7905 99.8924 28.4487C100.444 28.1021 101.094 27.9287 101.841 27.9287C102.554 27.9287 103.166 28.041 103.679 28.2656C104.197 28.4854 104.617 28.7417 104.939 29.0347L104.924 31.3052H103.313L103.027 29.8916C102.91 29.7744 102.761 29.6792 102.58 29.606C102.4 29.5327 102.217 29.4961 102.031 29.4961C101.64 29.4961 101.316 29.5938 101.057 29.7891C100.803 29.9844 100.613 30.2627 100.486 30.624C100.359 30.9854 100.295 31.4224 100.295 31.9351V32.1548C100.295 32.6968 100.366 33.1436 100.508 33.4951C100.649 33.8418 100.837 34.0981 101.072 34.2642C101.311 34.4302 101.577 34.5132 101.87 34.5132C102.246 34.5132 102.546 34.4155 102.771 34.2202C103 34.02 103.157 33.7393 103.24 33.3779H105.071L105.093 33.4219C105.01 33.9834 104.844 34.4692 104.595 34.8794C104.35 35.2896 104.004 35.6045 103.555 35.8242C103.11 36.0439 102.544 36.1538 101.855 36.1538ZM105.935 36V34.7183L106.968 34.4985V26.083L105.825 25.8633V24.5742H109.106V34.4985L110.139 34.7183V36H105.935ZM114.49 36.1538C113.733 36.1538 113.071 35.9878 112.505 35.6558C111.938 35.3188 111.499 34.8574 111.186 34.2715C110.879 33.6855 110.725 33.0166 110.725 32.2646V31.9717C110.725 31.1855 110.871 30.4897 111.164 29.8843C111.457 29.2739 111.87 28.7954 112.402 28.4487C112.939 28.0972 113.572 27.9238 114.299 27.9287C115.017 27.9287 115.62 28.0703 116.108 28.3535C116.596 28.6367 116.968 29.0444 117.221 29.5767C117.475 30.1089 117.602 30.7534 117.602 31.5103V32.6748H112.944L112.93 32.7188C112.959 33.0654 113.044 33.3755 113.186 33.6489C113.332 33.9175 113.537 34.1299 113.801 34.2861C114.065 34.4375 114.385 34.5132 114.761 34.5132C115.151 34.5132 115.515 34.4644 115.852 34.3667C116.194 34.2642 116.526 34.1152 116.848 33.9199L117.427 35.2383C117.099 35.502 116.687 35.7217 116.189 35.8975C115.696 36.0684 115.129 36.1538 114.49 36.1538ZM112.959 31.2612H115.603V31.0708C115.603 30.7485 115.559 30.4727 115.471 30.2432C115.388 30.0088 115.251 29.8281 115.061 29.7012C114.875 29.5742 114.634 29.5107 114.336 29.5107C114.053 29.5107 113.813 29.5864 113.618 29.7378C113.423 29.8843 113.269 30.0869 113.157 30.3457C113.049 30.6045 112.976 30.8975 112.937 31.2246L112.959 31.2612ZM125.666 36.1538C125.076 36.1538 124.524 36.0977 124.011 35.9854C123.503 35.873 123.015 35.7119 122.546 35.502L122.524 33.2607H124.011L124.297 34.4033C124.463 34.4863 124.643 34.5522 124.839 34.6011C125.039 34.6499 125.266 34.6743 125.52 34.6743C125.998 34.6743 126.335 34.5962 126.531 34.4399C126.726 34.2837 126.824 34.0884 126.824 33.854C126.824 33.6343 126.719 33.4414 126.509 33.2754C126.304 33.1045 125.891 32.9556 125.271 32.8286C124.333 32.6333 123.642 32.3306 123.198 31.9204C122.754 31.5103 122.532 30.9854 122.532 30.3457C122.532 29.9062 122.641 29.5059 122.861 29.1445C123.086 28.7832 123.425 28.4927 123.879 28.2729C124.338 28.0532 124.924 27.9434 125.637 27.9434C126.233 27.9434 126.777 28.002 127.27 28.1191C127.768 28.2314 128.186 28.3804 128.523 28.5659L128.545 30.7339H127.065L126.838 29.6938C126.706 29.5962 126.55 29.5229 126.369 29.4741C126.194 29.4253 125.993 29.4009 125.769 29.4009C125.393 29.4009 125.105 29.4766 124.905 29.6279C124.704 29.7793 124.604 29.9746 124.604 30.2139C124.604 30.3506 124.638 30.4775 124.707 30.5947C124.78 30.7119 124.922 30.8218 125.132 30.9243C125.342 31.0269 125.647 31.1245 126.047 31.2173C127.029 31.4419 127.744 31.7422 128.193 32.1182C128.642 32.4893 128.867 33.0117 128.867 33.6855C128.867 34.4229 128.598 35.0186 128.061 35.4727C127.529 35.9268 126.731 36.1538 125.666 36.1538ZM133.203 36.1538C132.368 36.1538 131.711 35.8901 131.233 35.3628C130.759 34.8306 130.522 34.0054 130.522 32.8872V29.584L129.651 29.3643V28.0752H130.522H132.661V32.9019C132.661 33.4683 132.759 33.876 132.954 34.125C133.154 34.3691 133.454 34.4912 133.855 34.4912C134.172 34.4912 134.453 34.4302 134.697 34.3081C134.941 34.1812 135.141 34.0029 135.298 33.7734V29.584L134.353 29.3643V28.0752H135.298H137.436V34.4985L138.388 34.7183V36H135.561L135.415 34.9966C135.166 35.3677 134.853 35.6533 134.477 35.8535C134.101 36.0537 133.677 36.1538 133.203 36.1538ZM139.121 36V34.7183L140.154 34.4985V29.584L139.011 29.3643V28.0752H142.292V34.4985L143.318 34.7183V36H139.121ZM140.08 26.3979V24.5742H142.292V26.3979H140.08ZM146.987 36L144.592 29.4961L143.735 29.3643V28.0752H147.58V29.3569L146.745 29.5034L147.939 33.0996L148.122 33.7148H148.166L148.371 33.0996L149.682 29.5107L148.708 29.3569V28.0752H152.546V29.3643L151.667 29.5107L149.162 36H146.987ZM155.71 36.1538C154.924 36.1538 154.299 35.9438 153.835 35.5239C153.371 35.0991 153.139 34.5229 153.139 33.7954C153.139 33.2974 153.274 32.8604 153.542 32.4844C153.816 32.1084 154.216 31.813 154.743 31.5981C155.276 31.3833 155.93 31.2759 156.706 31.2759H157.754V30.6899C157.754 30.3091 157.641 30.0015 157.417 29.7671C157.197 29.5278 156.865 29.4082 156.421 29.4082C156.191 29.4082 155.986 29.4375 155.805 29.4961C155.625 29.5498 155.459 29.6279 155.307 29.7305L155.139 30.7778H153.601L153.572 28.7197C153.987 28.4854 154.436 28.2949 154.919 28.1484C155.403 28.002 155.942 27.9287 156.538 27.9287C157.573 27.9287 158.391 28.1704 158.992 28.6538C159.592 29.1323 159.892 29.8184 159.892 30.7119V33.9785C159.892 34.0859 159.892 34.1934 159.892 34.3008C159.897 34.4033 159.907 34.5034 159.922 34.6011L160.749 34.7183V36H158.098C158.044 35.8633 157.991 35.7168 157.937 35.5605C157.883 35.4043 157.844 35.248 157.82 35.0918C157.566 35.4141 157.265 35.6729 156.919 35.8682C156.577 36.0586 156.174 36.1538 155.71 36.1538ZM156.282 34.5718C156.579 34.5718 156.863 34.5059 157.131 34.374C157.4 34.2373 157.607 34.0591 157.754 33.8394V32.5869H156.699C156.23 32.5869 155.874 32.6943 155.63 32.9092C155.39 33.124 155.271 33.3828 155.271 33.6855C155.271 33.9688 155.359 34.1885 155.534 34.3447C155.715 34.4961 155.964 34.5718 156.282 34.5718ZM161.43 36V34.7183L162.456 34.4985V29.584L161.321 29.3643V28.0752H164.448L164.543 29.2104C164.807 28.8052 165.132 28.4902 165.517 28.2656C165.908 28.041 166.352 27.9287 166.85 27.9287C167.637 27.9287 168.252 28.1802 168.696 28.6831C169.14 29.186 169.363 29.9746 169.363 31.0488V34.4985L170.388 34.7183V36H166.301V34.7183L167.217 34.4985V31.0562C167.217 30.5239 167.112 30.1479 166.902 29.9282C166.692 29.7036 166.379 29.5913 165.964 29.5913C165.657 29.5913 165.388 29.6572 165.159 29.7891C164.934 29.916 164.746 30.0991 164.595 30.3384V34.4985L165.459 34.7183V36H161.43ZM173.94 36.1538C173.203 36.1538 172.634 35.9512 172.234 35.5459C171.838 35.1406 171.64 34.4985 171.64 33.6196V29.5767H170.549V28.0752H171.64V26.1343H173.772V28.0752H175.229V29.5767H173.772V33.6123C173.772 33.9199 173.835 34.1396 173.962 34.2715C174.094 34.4033 174.272 34.4692 174.497 34.4692C174.619 34.4692 174.746 34.4619 174.878 34.4473C175.014 34.4277 175.132 34.4082 175.229 34.3887L175.412 35.9341C175.193 35.9976 174.953 36.0488 174.695 36.0879C174.441 36.1318 174.189 36.1538 173.94 36.1538Z" fill="black"/>
</svg>
