<svg width="279" height="44" viewBox="0 0 279 44" fill="none" xmlns="http://www.w3.org/2000/svg">
<rect x="0.5" y="0.5" width="255" height="43" fill="#E5AD3F" stroke="black"/>
<path d="M77.7142 26V24.7183L78.747 24.4985V16.083L77.6044 15.8633V14.5742H80.8856V24.4985L81.9184 24.7183V26H77.7142ZM82.5556 26V24.7183L83.5883 24.4985V19.584L82.4457 19.3643V18.0752H85.7269V24.4985L86.7523 24.7183V26H82.5556ZM83.515 16.3979V14.5742H85.7269V16.3979H83.515ZM90.8685 26.1538C90.2777 26.1538 89.726 26.0977 89.2133 25.9854C88.7055 25.873 88.2172 25.7119 87.7484 25.502L87.7265 23.2607H89.2133L89.4989 24.4033C89.6649 24.4863 89.8456 24.5522 90.0409 24.6011C90.2411 24.6499 90.4682 24.6743 90.7221 24.6743C91.2006 24.6743 91.5375 24.5962 91.7328 24.4399C91.9281 24.2837 92.0258 24.0884 92.0258 23.854C92.0258 23.6343 91.9208 23.4414 91.7108 23.2754C91.5058 23.1045 91.0932 22.9556 90.473 22.8286C89.5355 22.6333 88.8446 22.3306 88.4003 21.9204C87.9559 21.5103 87.7338 20.9854 87.7338 20.3457C87.7338 19.9062 87.8436 19.5059 88.0634 19.1445C88.288 18.7832 88.6273 18.4927 89.0814 18.2729C89.5404 18.0532 90.1264 17.9434 90.8392 17.9434C91.435 17.9434 91.9794 18.002 92.4725 18.1191C92.9706 18.2314 93.3881 18.3804 93.725 18.5659L93.747 20.7339H92.2675L92.0404 19.6938C91.9086 19.5962 91.7523 19.5229 91.5717 19.4741C91.3959 19.4253 91.1957 19.4009 90.9711 19.4009C90.5951 19.4009 90.307 19.4766 90.1068 19.6279C89.9066 19.7793 89.8065 19.9746 89.8065 20.2139C89.8065 20.3506 89.8407 20.4775 89.9091 20.5947C89.9823 20.7119 90.1239 20.8218 90.3339 20.9243C90.5438 21.0269 90.849 21.1245 91.2494 21.2173C92.2309 21.4419 92.9462 21.7422 93.3954 22.1182C93.8446 22.4893 94.0692 23.0117 94.0692 23.6855C94.0692 24.4229 93.8007 25.0186 93.2636 25.4727C92.7313 25.9268 91.933 26.1538 90.8685 26.1538ZM98.1561 26.1538C97.4188 26.1538 96.85 25.9512 96.4496 25.5459C96.0541 25.1406 95.8563 24.4985 95.8563 23.6196V19.5767H94.765V18.0752H95.8563V16.1343H97.9877V18.0752H99.4452V19.5767H97.9877V23.6123C97.9877 23.9199 98.0512 24.1396 98.1781 24.2715C98.31 24.4033 98.4882 24.4692 98.7128 24.4692C98.8349 24.4692 98.9618 24.4619 99.0936 24.4473C99.2304 24.4277 99.3475 24.4082 99.4452 24.3887L99.6283 25.9341C99.4086 25.9976 99.1693 26.0488 98.9105 26.0879C98.6566 26.1318 98.4052 26.1538 98.1561 26.1538ZM104.052 26.1538C103.295 26.1538 102.634 25.9878 102.067 25.6558C101.501 25.3188 101.061 24.8574 100.749 24.2715C100.441 23.6855 100.287 23.0166 100.287 22.2646V21.9717C100.287 21.1855 100.434 20.4897 100.727 19.8843C101.02 19.2739 101.433 18.7954 101.965 18.4487C102.502 18.0972 103.134 17.9238 103.862 17.9287C104.579 17.9287 105.183 18.0703 105.671 18.3535C106.159 18.6367 106.53 19.0444 106.784 19.5767C107.038 20.1089 107.165 20.7534 107.165 21.5103V22.6748H102.507L102.492 22.7188C102.521 23.0654 102.607 23.3755 102.748 23.6489C102.895 23.9175 103.1 24.1299 103.364 24.2861C103.627 24.4375 103.947 24.5132 104.323 24.5132C104.714 24.5132 105.078 24.4644 105.414 24.3667C105.756 24.2642 106.088 24.1152 106.411 23.9199L106.989 25.2383C106.662 25.502 106.249 25.7217 105.751 25.8975C105.258 26.0684 104.692 26.1538 104.052 26.1538ZM102.521 21.2612H105.165V21.0708C105.165 20.7485 105.121 20.4727 105.034 20.2432C104.951 20.0088 104.814 19.8281 104.623 19.7012C104.438 19.5742 104.196 19.5107 103.898 19.5107C103.615 19.5107 103.376 19.5864 103.181 19.7378C102.985 19.8843 102.831 20.0869 102.719 20.3457C102.612 20.6045 102.538 20.8975 102.499 21.2246L102.521 21.2612ZM108.073 26V24.7183L109.099 24.4985V19.584L107.963 19.3643V18.0752H111.091L111.186 19.2104C111.45 18.8052 111.774 18.4902 112.16 18.2656C112.551 18.041 112.995 17.9287 113.493 17.9287C114.279 17.9287 114.894 18.1802 115.339 18.6831C115.783 19.186 116.005 19.9746 116.005 21.0488V24.4985L117.031 24.7183V26H112.944V24.7183L113.859 24.4985V21.0562C113.859 20.5239 113.754 20.1479 113.544 19.9282C113.334 19.7036 113.022 19.5913 112.607 19.5913C112.299 19.5913 112.031 19.6572 111.801 19.7891C111.577 19.916 111.389 20.0991 111.237 20.3384V24.4985L112.101 24.7183V26H108.073ZM125.19 26.1538C124.409 26.1538 123.737 25.9829 123.176 25.6411C122.614 25.2993 122.184 24.8257 121.887 24.2202C121.589 23.6099 121.44 22.9092 121.44 22.1182V21.9644C121.44 21.1782 121.589 20.4824 121.887 19.877C122.184 19.2666 122.612 18.7905 123.168 18.4487C123.73 18.1021 124.399 17.9287 125.175 17.9287C125.961 17.9287 126.633 18.1021 127.189 18.4487C127.746 18.7905 128.173 19.2642 128.471 19.8696C128.769 20.4751 128.918 21.1733 128.918 21.9644V22.1182C128.918 22.9092 128.769 23.6099 128.471 24.2202C128.173 24.8257 127.746 25.2993 127.189 25.6411C126.633 25.9829 125.966 26.1538 125.19 26.1538ZM125.19 24.5132C125.561 24.5132 125.864 24.4131 126.098 24.2129C126.332 24.0127 126.506 23.7344 126.618 23.3779C126.73 23.0166 126.787 22.5967 126.787 22.1182V21.9644C126.787 21.4956 126.73 21.083 126.618 20.7266C126.506 20.3652 126.33 20.0845 126.091 19.8843C125.856 19.6792 125.551 19.5767 125.175 19.5767C124.809 19.5767 124.506 19.6792 124.267 19.8843C124.028 20.0845 123.852 20.3652 123.74 20.7266C123.632 21.083 123.579 21.4956 123.579 21.9644V22.1182C123.579 22.5967 123.632 23.0166 123.74 23.3779C123.852 23.7393 124.028 24.02 124.267 24.2202C124.506 24.4155 124.814 24.5132 125.19 24.5132ZM129.797 26V24.7183L130.822 24.4985V19.584L129.687 19.3643V18.0752H132.814L132.91 19.2104C133.173 18.8052 133.498 18.4902 133.884 18.2656C134.274 18.041 134.719 17.9287 135.217 17.9287C136.003 17.9287 136.618 18.1802 137.062 18.6831C137.507 19.186 137.729 19.9746 137.729 21.0488V24.4985L138.754 24.7183V26H134.667V24.7183L135.583 24.4985V21.0562C135.583 20.5239 135.478 20.1479 135.268 19.9282C135.058 19.7036 134.745 19.5913 134.33 19.5913C134.023 19.5913 133.754 19.6572 133.525 19.7891C133.3 19.916 133.112 20.0991 132.961 20.3384V24.4985L133.825 24.7183V26H129.797ZM146.181 26.1538C145.551 26.1538 145.009 25.9927 144.555 25.6704C144.106 25.3433 143.762 24.8892 143.522 24.3081C143.283 23.7222 143.163 23.0386 143.163 22.2573V22.1035C143.163 21.2686 143.283 20.5386 143.522 19.9136C143.766 19.2886 144.113 18.8027 144.562 18.4561C145.012 18.1045 145.549 17.9287 146.174 17.9287C146.608 17.9287 146.989 18.0166 147.316 18.1924C147.643 18.3633 147.927 18.6074 148.166 18.9248V16.083L147.023 15.8633V14.5742H148.166H150.305V24.4985L151.33 24.7183V26H148.452L148.29 25.0332C148.041 25.3994 147.744 25.6777 147.397 25.8682C147.055 26.0586 146.65 26.1538 146.181 26.1538ZM146.818 24.4912C147.116 24.4912 147.377 24.4277 147.602 24.3008C147.827 24.1738 148.015 23.9907 148.166 23.7515V20.3896C148.019 20.1357 147.834 19.9404 147.609 19.8037C147.385 19.6621 147.126 19.5913 146.833 19.5913C146.476 19.5913 146.183 19.6987 145.954 19.9136C145.729 20.1235 145.563 20.4165 145.456 20.7925C145.353 21.1685 145.302 21.6055 145.302 22.1035V22.2573C145.302 22.9507 145.419 23.4976 145.654 23.8979C145.888 24.2935 146.276 24.4912 146.818 24.4912ZM155.79 26.1538C155.034 26.1538 154.372 25.9878 153.806 25.6558C153.239 25.3188 152.8 24.8574 152.487 24.2715C152.18 23.6855 152.026 23.0166 152.026 22.2646V21.9717C152.026 21.1855 152.172 20.4897 152.465 19.8843C152.758 19.2739 153.171 18.7954 153.703 18.4487C154.24 18.0972 154.872 17.9238 155.6 17.9287C156.318 17.9287 156.921 18.0703 157.409 18.3535C157.897 18.6367 158.268 19.0444 158.522 19.5767C158.776 20.1089 158.903 20.7534 158.903 21.5103V22.6748H154.245L154.23 22.7188C154.26 23.0654 154.345 23.3755 154.487 23.6489C154.633 23.9175 154.838 24.1299 155.102 24.2861C155.366 24.4375 155.685 24.5132 156.061 24.5132C156.452 24.5132 156.816 24.4644 157.153 24.3667C157.495 24.2642 157.827 24.1152 158.149 23.9199L158.727 25.2383C158.4 25.502 157.988 25.7217 157.49 25.8975C156.996 26.0684 156.43 26.1538 155.79 26.1538ZM154.26 21.2612H156.904V21.0708C156.904 20.7485 156.86 20.4727 156.772 20.2432C156.689 20.0088 156.552 19.8281 156.362 19.7012C156.176 19.5742 155.934 19.5107 155.637 19.5107C155.353 19.5107 155.114 19.5864 154.919 19.7378C154.724 19.8843 154.57 20.0869 154.457 20.3457C154.35 20.6045 154.277 20.8975 154.238 21.2246L154.26 21.2612ZM163.715 26.1538C162.958 26.1538 162.297 25.9878 161.73 25.6558C161.164 25.3188 160.725 24.8574 160.412 24.2715C160.104 23.6855 159.951 23.0166 159.951 22.2646V21.9717C159.951 21.1855 160.097 20.4897 160.39 19.8843C160.683 19.2739 161.096 18.7954 161.628 18.4487C162.165 18.0972 162.797 17.9238 163.525 17.9287C164.243 17.9287 164.846 18.0703 165.334 18.3535C165.822 18.6367 166.193 19.0444 166.447 19.5767C166.701 20.1089 166.828 20.7534 166.828 21.5103V22.6748H162.17L162.155 22.7188C162.184 23.0654 162.27 23.3755 162.412 23.6489C162.558 23.9175 162.763 24.1299 163.027 24.2861C163.29 24.4375 163.61 24.5132 163.986 24.5132C164.377 24.5132 164.741 24.4644 165.078 24.3667C165.419 24.2642 165.751 24.1152 166.074 23.9199L166.652 25.2383C166.325 25.502 165.912 25.7217 165.414 25.8975C164.921 26.0684 164.355 26.1538 163.715 26.1538ZM162.184 21.2612H164.829V21.0708C164.829 20.7485 164.785 20.4727 164.697 20.2432C164.614 20.0088 164.477 19.8281 164.287 19.7012C164.101 19.5742 163.859 19.5107 163.561 19.5107C163.278 19.5107 163.039 19.5864 162.844 19.7378C162.648 19.8843 162.495 20.0869 162.382 20.3457C162.275 20.6045 162.202 20.8975 162.162 21.2246L162.184 21.2612ZM168 26V24.7402L172.123 19.5693H169.985L169.743 20.9243H168.176V18.0752H174.687V19.4448L170.798 24.4692H173.039L173.354 23.0117H174.855V26H168ZM179.609 26.1538C178.852 26.1538 178.19 25.9878 177.624 25.6558C177.058 25.3188 176.618 24.8574 176.306 24.2715C175.998 23.6855 175.844 23.0166 175.844 22.2646V21.9717C175.844 21.1855 175.991 20.4897 176.284 19.8843C176.577 19.2739 176.989 18.7954 177.521 18.4487C178.058 18.0972 178.691 17.9238 179.418 17.9287C180.136 17.9287 180.739 18.0703 181.227 18.3535C181.716 18.6367 182.087 19.0444 182.341 19.5767C182.595 20.1089 182.722 20.7534 182.722 21.5103V22.6748H178.063L178.049 22.7188C178.078 23.0654 178.163 23.3755 178.305 23.6489C178.452 23.9175 178.657 24.1299 178.92 24.2861C179.184 24.4375 179.504 24.5132 179.88 24.5132C180.27 24.5132 180.634 24.4644 180.971 24.3667C181.313 24.2642 181.645 24.1152 181.967 23.9199L182.546 25.2383C182.219 25.502 181.806 25.7217 181.308 25.8975C180.815 26.0684 180.248 26.1538 179.609 26.1538ZM178.078 21.2612H180.722V21.0708C180.722 20.7485 180.678 20.4727 180.59 20.2432C180.507 20.0088 180.37 19.8281 180.18 19.7012C179.995 19.5742 179.753 19.5107 179.455 19.5107C179.172 19.5107 178.933 19.5864 178.737 19.7378C178.542 19.8843 178.388 20.0869 178.276 20.3457C178.168 20.6045 178.095 20.8975 178.056 21.2246L178.078 21.2612ZM183.871 26V24.7183L184.897 24.4985V19.584L183.762 19.3643V18.0752H186.889L186.97 19.0566L186.984 19.2324C187.18 18.8027 187.421 18.478 187.709 18.2583C187.997 18.0386 188.342 17.9287 188.742 17.9287C188.869 17.9287 189.008 17.9409 189.16 17.9653C189.311 17.9849 189.445 18.0117 189.562 18.0459L189.335 20.0161L188.273 19.9575C187.971 19.9429 187.724 19.9941 187.534 20.1113C187.348 20.2285 187.182 20.397 187.036 20.6167V24.4985L188.061 24.7183V26H183.871Z" fill="black"/>
</svg>
