<svg width="256" height="44" viewBox="0 0 256 44" fill="none" xmlns="http://www.w3.org/2000/svg">
<rect x="0.5" y="0.5" width="255" height="43" fill="#E5AD3F" stroke="black"/>
<path d="M60.4569 26.1538C59.7 26.1538 59.0384 25.9878 58.472 25.6558C57.9056 25.3188 57.4661 24.8574 57.1536 24.2715C56.846 23.6855 56.6922 23.0166 56.6922 22.2646V21.9717C56.6922 21.1855 56.8387 20.4897 57.1317 19.8843C57.4246 19.2739 57.8372 18.7954 58.3695 18.4487C58.9066 18.0972 59.5389 17.9238 60.2664 17.9287C60.9842 17.9287 61.5872 18.0703 62.0755 18.3535C62.5638 18.6367 62.9349 19.0444 63.1888 19.5767C63.4427 20.1089 63.5696 20.7534 63.5696 21.5103V22.6748H58.9114L58.8968 22.7188C58.9261 23.0654 59.0115 23.3755 59.1531 23.6489C59.2996 23.9175 59.5047 24.1299 59.7684 24.2861C60.0321 24.4375 60.3519 24.5132 60.7279 24.5132C61.1185 24.5132 61.4822 24.4644 61.8192 24.3667C62.161 24.2642 62.493 24.1152 62.8153 23.9199L63.3939 25.2383C63.0667 25.502 62.6541 25.7217 62.1561 25.8975C61.6629 26.0684 61.0965 26.1538 60.4569 26.1538ZM58.9261 21.2612H61.5701V21.0708C61.5701 20.7485 61.5262 20.4727 61.4383 20.2432C61.3553 20.0088 61.2186 19.8281 61.0281 19.7012C60.8426 19.5742 60.6009 19.5107 60.303 19.5107C60.0198 19.5107 59.7806 19.5864 59.5853 19.7378C59.39 19.8843 59.2362 20.0869 59.1238 20.3457C59.0164 20.6045 58.9432 20.8975 58.9041 21.2246L58.9261 21.2612ZM58.9481 16.5737L60.4056 14.5742H62.6688L62.6834 14.6182L60.6619 16.5737H59.0067H58.9481ZM68.2864 26.1538C67.5247 26.1538 66.8655 25.9829 66.3089 25.6411C65.7571 25.2993 65.3323 24.8281 65.0345 24.2275C64.7366 23.6221 64.5877 22.9312 64.5877 22.1548V21.9351C64.5877 21.1538 64.7391 20.4629 65.0418 19.8623C65.3446 19.2617 65.7718 18.7905 66.3236 18.4487C66.8753 18.1021 67.5247 17.9287 68.2718 17.9287C68.9847 17.9287 69.5975 18.041 70.1102 18.2656C70.6278 18.4854 71.0477 18.7417 71.3699 19.0347L71.3553 21.3052H69.744L69.4583 19.8916C69.3411 19.7744 69.1922 19.6792 69.0115 19.606C68.8309 19.5327 68.6478 19.4961 68.4622 19.4961C68.0716 19.4961 67.7469 19.5938 67.4881 19.7891C67.2342 19.9844 67.0438 20.2627 66.9168 20.624C66.7899 20.9854 66.7264 21.4224 66.7264 21.9351V22.1548C66.7264 22.6968 66.7972 23.1436 66.9388 23.4951C67.0804 23.8418 67.2684 24.0981 67.5028 24.2642C67.742 24.4302 68.0081 24.5132 68.3011 24.5132C68.6771 24.5132 68.9774 24.4155 69.202 24.2202C69.4315 24.02 69.5877 23.7393 69.6707 23.3779H71.5018L71.5238 23.4219C71.4407 23.9834 71.2747 24.4692 71.0257 24.8794C70.7816 25.2896 70.4349 25.6045 69.9857 25.8242C69.5413 26.0439 68.9749 26.1538 68.2864 26.1538ZM76.2625 26.1538C75.4813 26.1538 74.8099 25.9829 74.2484 25.6411C73.6868 25.2993 73.2571 24.8257 72.9593 24.2202C72.6614 23.6099 72.5125 22.9092 72.5125 22.1182V21.9644C72.5125 21.1782 72.6614 20.4824 72.9593 19.877C73.2571 19.2666 73.6844 18.7905 74.241 18.4487C74.8026 18.1021 75.4715 17.9287 76.2479 17.9287C77.034 17.9287 77.7054 18.1021 78.262 18.4487C78.8187 18.7905 79.2459 19.2642 79.5438 19.8696C79.8416 20.4751 79.9905 21.1733 79.9905 21.9644V22.1182C79.9905 22.9092 79.8416 23.6099 79.5438 24.2202C79.2459 24.8257 78.8187 25.2993 78.262 25.6411C77.7054 25.9829 77.0389 26.1538 76.2625 26.1538ZM76.2625 24.5132C76.6336 24.5132 76.9363 24.4131 77.1707 24.2129C77.4051 24.0127 77.5784 23.7344 77.6907 23.3779C77.803 23.0166 77.8592 22.5967 77.8592 22.1182V21.9644C77.8592 21.4956 77.803 21.083 77.6907 20.7266C77.5784 20.3652 77.4027 20.0845 77.1634 19.8843C76.929 19.6792 76.6238 19.5767 76.2479 19.5767C75.8817 19.5767 75.5789 19.6792 75.3397 19.8843C75.1004 20.0845 74.9246 20.3652 74.8123 20.7266C74.7049 21.083 74.6512 21.4956 74.6512 21.9644V22.1182C74.6512 22.5967 74.7049 23.0166 74.8123 23.3779C74.9246 23.7393 75.1004 24.02 75.3397 24.2202C75.5789 24.4155 75.8865 24.5132 76.2625 24.5132ZM84.3118 26.1538C83.4769 26.1538 82.8201 25.8901 82.3416 25.3628C81.868 24.8306 81.6312 24.0054 81.6312 22.8872V19.584L80.7596 19.3643V18.0752H81.6312H83.7698V22.9019C83.7698 23.4683 83.8675 23.876 84.0628 24.125C84.263 24.3691 84.5633 24.4912 84.9637 24.4912C85.2811 24.4912 85.5618 24.4302 85.806 24.3081C86.0501 24.1812 86.2503 24.0029 86.4066 23.7734V19.584L85.4617 19.3643V18.0752H86.4066H88.5452V24.4985L89.4974 24.7183V26H86.6702L86.5238 24.9966C86.2747 25.3677 85.9622 25.6533 85.5863 25.8535C85.2103 26.0537 84.7855 26.1538 84.3118 26.1538ZM93.4085 26.1538C92.6712 26.1538 92.1024 25.9512 91.702 25.5459C91.3065 25.1406 91.1087 24.4985 91.1087 23.6196V19.5767H90.0174V18.0752H91.1087V16.1343H93.2401V18.0752H94.6976V19.5767H93.2401V23.6123C93.2401 23.9199 93.3035 24.1396 93.4305 24.2715C93.5623 24.4033 93.7405 24.4692 93.9652 24.4692C94.0872 24.4692 94.2142 24.4619 94.346 24.4473C94.4827 24.4277 94.5999 24.4082 94.6976 24.3887L94.8807 25.9341C94.661 25.9976 94.4217 26.0488 94.1629 26.0879C93.909 26.1318 93.6575 26.1538 93.4085 26.1538ZM99.3045 26.1538C98.5477 26.1538 97.8861 25.9878 97.3196 25.6558C96.7532 25.3188 96.3138 24.8574 96.0013 24.2715C95.6937 23.6855 95.5399 23.0166 95.5399 22.2646V21.9717C95.5399 21.1855 95.6863 20.4897 95.9793 19.8843C96.2723 19.2739 96.6849 18.7954 97.2171 18.4487C97.7542 18.0972 98.3865 17.9238 99.1141 17.9287C99.8319 17.9287 100.435 18.0703 100.923 18.3535C101.411 18.6367 101.783 19.0444 102.036 19.5767C102.29 20.1089 102.417 20.7534 102.417 21.5103V22.6748H97.7591L97.7445 22.7188C97.7738 23.0654 97.8592 23.3755 98.0008 23.6489C98.1473 23.9175 98.3524 24.1299 98.616 24.2861C98.8797 24.4375 99.1995 24.5132 99.5755 24.5132C99.9661 24.5132 100.33 24.4644 100.667 24.3667C101.009 24.2642 101.341 24.1152 101.663 23.9199L102.242 25.2383C101.914 25.502 101.502 25.7217 101.004 25.8975C100.511 26.0684 99.9442 26.1538 99.3045 26.1538ZM97.7738 21.2612H100.418V21.0708C100.418 20.7485 100.374 20.4727 100.286 20.2432C100.203 20.0088 100.066 19.8281 99.8758 19.7012C99.6903 19.5742 99.4486 19.5107 99.1507 19.5107C98.8675 19.5107 98.6282 19.5864 98.4329 19.7378C98.2376 19.8843 98.0838 20.0869 97.9715 20.3457C97.8641 20.6045 97.7908 20.8975 97.7518 21.2246L97.7738 21.2612ZM103.589 26V24.7402L107.713 19.5693H105.574L105.332 20.9243H103.765V18.0752H110.276V19.4448L106.387 24.4692H108.628L108.943 23.0117H110.445V26H103.589ZM118.597 26.1538C118.006 26.1538 117.454 26.0977 116.941 25.9854C116.433 25.873 115.945 25.7119 115.476 25.502L115.454 23.2607H116.941L117.227 24.4033C117.393 24.4863 117.574 24.5522 117.769 24.6011C117.969 24.6499 118.196 24.6743 118.45 24.6743C118.929 24.6743 119.265 24.5962 119.461 24.4399C119.656 24.2837 119.754 24.0884 119.754 23.854C119.754 23.6343 119.649 23.4414 119.439 23.2754C119.234 23.1045 118.821 22.9556 118.201 22.8286C117.263 22.6333 116.573 22.3306 116.128 21.9204C115.684 21.5103 115.462 20.9854 115.462 20.3457C115.462 19.9062 115.572 19.5059 115.791 19.1445C116.016 18.7832 116.355 18.4927 116.809 18.2729C117.268 18.0532 117.854 17.9434 118.567 17.9434C119.163 17.9434 119.707 18.002 120.201 18.1191C120.699 18.2314 121.116 18.3804 121.453 18.5659L121.475 20.7339H119.995L119.768 19.6938C119.637 19.5962 119.48 19.5229 119.3 19.4741C119.124 19.4253 118.924 19.4009 118.699 19.4009C118.323 19.4009 118.035 19.4766 117.835 19.6279C117.635 19.7793 117.534 19.9746 117.534 20.2139C117.534 20.3506 117.569 20.4775 117.637 20.5947C117.71 20.7119 117.852 20.8218 118.062 20.9243C118.272 21.0269 118.577 21.1245 118.977 21.2173C119.959 21.4419 120.674 21.7422 121.123 22.1182C121.573 22.4893 121.797 23.0117 121.797 23.6855C121.797 24.4229 121.529 25.0186 120.992 25.4727C120.459 25.9268 119.661 26.1538 118.597 26.1538ZM126.133 26.1538C125.298 26.1538 124.641 25.8901 124.163 25.3628C123.689 24.8306 123.452 24.0054 123.452 22.8872V19.584L122.581 19.3643V18.0752H123.452H125.591V22.9019C125.591 23.4683 125.689 23.876 125.884 24.125C126.084 24.3691 126.385 24.4912 126.785 24.4912C127.102 24.4912 127.383 24.4302 127.627 24.3081C127.871 24.1812 128.072 24.0029 128.228 23.7734V19.584L127.283 19.3643V18.0752H128.228H130.367V24.4985L131.319 24.7183V26H128.492L128.345 24.9966C128.096 25.3677 127.784 25.6533 127.408 25.8535C127.032 26.0537 126.607 26.1538 126.133 26.1538ZM132.278 26V24.7183L133.304 24.4985V19.584L132.168 19.3643V18.0752H135.296L135.376 19.0566L135.391 19.2324C135.586 18.8027 135.828 18.478 136.116 18.2583C136.404 18.0386 136.748 17.9287 137.149 17.9287C137.276 17.9287 137.415 17.9409 137.566 17.9653C137.718 17.9849 137.852 18.0117 137.969 18.0459L137.742 20.0161L136.68 19.9575C136.377 19.9429 136.131 19.9941 135.94 20.1113C135.755 20.2285 135.589 20.397 135.442 20.6167V24.4985L136.468 24.7183V26H132.278ZM145.33 26.1538C144.7 26.1538 144.158 25.9927 143.704 25.6704C143.255 25.3433 142.91 24.8892 142.671 24.3081C142.432 23.7222 142.312 23.0386 142.312 22.2573V22.1035C142.312 21.2686 142.432 20.5386 142.671 19.9136C142.915 19.2886 143.262 18.8027 143.711 18.4561C144.16 18.1045 144.698 17.9287 145.323 17.9287C145.757 17.9287 146.138 18.0166 146.465 18.1924C146.792 18.3633 147.076 18.6074 147.315 18.9248V16.083L146.172 15.8633V14.5742H147.315H149.453V24.4985L150.479 24.7183V26H147.6L147.439 25.0332C147.19 25.3994 146.892 25.6777 146.546 25.8682C146.204 26.0586 145.799 26.1538 145.33 26.1538ZM145.967 24.4912C146.265 24.4912 146.526 24.4277 146.751 24.3008C146.975 24.1738 147.163 23.9907 147.315 23.7515V20.3896C147.168 20.1357 146.983 19.9404 146.758 19.8037C146.534 19.6621 146.275 19.5913 145.982 19.5913C145.625 19.5913 145.332 19.6987 145.103 19.9136C144.878 20.1235 144.712 20.4165 144.605 20.7925C144.502 21.1685 144.451 21.6055 144.451 22.1035V22.2573C144.451 22.9507 144.568 23.4976 144.803 23.8979C145.037 24.2935 145.425 24.4912 145.967 24.4912ZM154.939 26.1538C154.182 26.1538 153.521 25.9878 152.954 25.6558C152.388 25.3188 151.949 24.8574 151.636 24.2715C151.328 23.6855 151.175 23.0166 151.175 22.2646V21.9717C151.175 21.1855 151.321 20.4897 151.614 19.8843C151.907 19.2739 152.32 18.7954 152.852 18.4487C153.389 18.0972 154.021 17.9238 154.749 17.9287C155.467 17.9287 156.07 18.0703 156.558 18.3535C157.046 18.6367 157.417 19.0444 157.671 19.5767C157.925 20.1089 158.052 20.7534 158.052 21.5103V22.6748H153.394L153.379 22.7188C153.409 23.0654 153.494 23.3755 153.636 23.6489C153.782 23.9175 153.987 24.1299 154.251 24.2861C154.514 24.4375 154.834 24.5132 155.21 24.5132C155.601 24.5132 155.965 24.4644 156.302 24.3667C156.643 24.2642 156.975 24.1152 157.298 23.9199L157.876 25.2383C157.549 25.502 157.137 25.7217 156.638 25.8975C156.145 26.0684 155.579 26.1538 154.939 26.1538ZM153.409 21.2612H156.053V21.0708C156.053 20.7485 156.009 20.4727 155.921 20.2432C155.838 20.0088 155.701 19.8281 155.511 19.7012C155.325 19.5742 155.083 19.5107 154.785 19.5107C154.502 19.5107 154.263 19.5864 154.068 19.7378C153.872 19.8843 153.719 20.0869 153.606 20.3457C153.499 20.6045 153.426 20.8975 153.387 21.2246L153.409 21.2612ZM162.864 26.1538C162.107 26.1538 161.446 25.9878 160.879 25.6558C160.313 25.3188 159.873 24.8574 159.561 24.2715C159.253 23.6855 159.099 23.0166 159.099 22.2646V21.9717C159.099 21.1855 159.246 20.4897 159.539 19.8843C159.832 19.2739 160.244 18.7954 160.777 18.4487C161.314 18.0972 161.946 17.9238 162.674 17.9287C163.391 17.9287 163.994 18.0703 164.483 18.3535C164.971 18.6367 165.342 19.0444 165.596 19.5767C165.85 20.1089 165.977 20.7534 165.977 21.5103V22.6748H161.319L161.304 22.7188C161.333 23.0654 161.419 23.3755 161.56 23.6489C161.707 23.9175 161.912 24.1299 162.176 24.2861C162.439 24.4375 162.759 24.5132 163.135 24.5132C163.526 24.5132 163.889 24.4644 164.226 24.3667C164.568 24.2642 164.9 24.1152 165.222 23.9199L165.801 25.2383C165.474 25.502 165.061 25.7217 164.563 25.8975C164.07 26.0684 163.504 26.1538 162.864 26.1538ZM161.333 21.2612H163.977V21.0708C163.977 20.7485 163.933 20.4727 163.846 20.2432C163.763 20.0088 163.626 19.8281 163.435 19.7012C163.25 19.5742 163.008 19.5107 162.71 19.5107C162.427 19.5107 162.188 19.5864 161.992 19.7378C161.797 19.8843 161.643 20.0869 161.531 20.3457C161.424 20.6045 161.35 20.8975 161.311 21.2246L161.333 21.2612ZM167.149 26V24.7402L171.272 19.5693H169.134L168.892 20.9243H167.325V18.0752H173.836V19.4448L169.947 24.4692H172.188L172.503 23.0117H174.004V26H167.149ZM178.758 26.1538C178.001 26.1538 177.339 25.9878 176.773 25.6558C176.206 25.3188 175.767 24.8574 175.454 24.2715C175.147 23.6855 174.993 23.0166 174.993 22.2646V21.9717C174.993 21.1855 175.139 20.4897 175.432 19.8843C175.725 19.2739 176.138 18.7954 176.67 18.4487C177.207 18.0972 177.84 17.9238 178.567 17.9287C179.285 17.9287 179.888 18.0703 180.376 18.3535C180.865 18.6367 181.236 19.0444 181.49 19.5767C181.743 20.1089 181.87 20.7534 181.87 21.5103V22.6748H177.212L177.198 22.7188C177.227 23.0654 177.312 23.3755 177.454 23.6489C177.6 23.9175 177.805 24.1299 178.069 24.2861C178.333 24.4375 178.653 24.5132 179.029 24.5132C179.419 24.5132 179.783 24.4644 180.12 24.3667C180.462 24.2642 180.794 24.1152 181.116 23.9199L181.695 25.2383C181.367 25.502 180.955 25.7217 180.457 25.8975C179.964 26.0684 179.397 26.1538 178.758 26.1538ZM177.227 21.2612H179.871V21.0708C179.871 20.7485 179.827 20.4727 179.739 20.2432C179.656 20.0088 179.519 19.8281 179.329 19.7012C179.143 19.5742 178.902 19.5107 178.604 19.5107C178.321 19.5107 178.081 19.5864 177.886 19.7378C177.691 19.8843 177.537 20.0869 177.425 20.3457C177.317 20.6045 177.244 20.8975 177.205 21.2246L177.227 21.2612ZM183.02 26V24.7183L184.046 24.4985V19.584L182.91 19.3643V18.0752H186.038L186.118 19.0566L186.133 19.2324C186.328 18.8027 186.57 18.478 186.858 18.2583C187.146 18.0386 187.491 17.9287 187.891 17.9287C188.018 17.9287 188.157 17.9409 188.308 17.9653C188.46 17.9849 188.594 18.0117 188.711 18.0459L188.484 20.0161L187.422 19.9575C187.119 19.9429 186.873 19.9941 186.682 20.1113C186.497 20.2285 186.331 20.397 186.184 20.6167V24.4985L187.21 24.7183V26H183.02Z" fill="black"/>
</svg>
