<svg width="273" height="62" viewBox="0 0 273 62" fill="none" xmlns="http://www.w3.org/2000/svg">
<rect x="16.3502" y="18.768" width="230.451" height="26.8261" transform="rotate(0.0638295 16.3502 18.768)" fill="#E5AD3F" stroke="black"/>
<path d="M46.1257 36.9099L46.1271 35.6281L47.1527 35.4095L47.1582 30.495L46.0232 30.274L46.0246 28.9849L49.1521 28.9884L49.2315 29.9699L49.246 30.1457C49.4418 29.7163 49.6838 29.3918 49.9722 29.1724C50.2605 28.953 50.6049 28.8435 51.0053 28.844C51.1322 28.8441 51.2714 28.8565 51.4227 28.8811C51.574 28.9008 51.7083 28.9278 51.8254 28.9621L51.5962 30.9321L50.5343 30.8723C50.2315 30.8573 49.9849 30.9083 49.7943 31.0253C49.6087 31.1422 49.4425 31.3105 49.2957 31.5301L49.2914 35.4119L50.3165 35.6328L50.3151 36.9145L46.1257 36.9099ZM56.1011 37.0748C55.3442 37.0739 54.6828 36.9072 54.1168 36.5745C53.5507 36.237 53.1118 35.7751 52.8 35.1888C52.493 34.6025 52.3399 33.9334 52.3408 33.1814L52.3411 32.8885C52.342 32.1023 52.4892 31.4067 52.7829 30.8015C53.0765 30.1915 53.4896 29.7135 54.0223 29.3674C54.5598 29.0164 55.1923 28.8438 55.9198 28.8495C56.6376 28.8503 57.2405 28.9925 57.7284 29.2763C58.2164 29.56 58.587 29.9682 58.8403 30.5007C59.0936 31.0332 59.2199 31.6779 59.219 32.4347L59.2177 33.5992L54.5595 33.594L54.5448 33.638C54.5738 33.9847 54.6589 34.2948 54.8002 34.5684C54.9463 34.8372 55.1512 35.0498 55.4147 35.2063C55.6782 35.358 55.9979 35.434 56.3739 35.4345C56.7645 35.4349 57.1283 35.3865 57.4654 35.2892C57.8073 35.187 58.1395 35.0385 58.462 34.8435L59.0391 36.1625C58.7117 36.4258 58.2988 36.6451 57.8006 36.8203C57.3072 36.9907 56.7407 37.0755 56.1011 37.0748ZM54.5758 32.1805L57.2198 32.1834L57.22 31.993C57.2204 31.6707 57.1767 31.3948 57.0891 31.1652C57.0064 30.9308 56.8698 30.7499 56.6796 30.6228C56.4941 30.4956 56.2525 30.4319 55.9547 30.4315C55.6715 30.4312 55.4321 30.5066 55.2366 30.6578C55.0412 30.8041 54.8871 31.0065 54.7745 31.2652C54.6668 31.5239 54.5933 31.8167 54.5538 32.1438L54.5758 32.1805ZM62.8686 37.0823C62.0825 37.0814 61.4578 36.8708 60.9944 36.4503C60.531 36.025 60.2997 35.4486 60.3005 34.7211C60.301 34.223 60.4358 33.7861 60.7048 33.4105C60.9786 33.0348 61.3793 32.7398 61.9069 32.5256C62.4394 32.3113 63.0938 32.2046 63.8702 32.2055L64.9175 32.2067L64.9182 31.6207C64.9186 31.2399 64.8067 30.9321 64.5823 30.6975C64.3628 30.458 64.0309 30.338 63.5866 30.3375C63.3571 30.3372 63.152 30.3663 62.9713 30.4247C62.7906 30.4782 62.6245 30.5562 62.473 30.6585L62.3033 31.7057L60.7653 31.704L60.7383 29.6459C61.1536 29.4119 61.603 29.222 62.0866 29.0761C62.5701 28.9301 63.1097 28.8575 63.7054 28.8581C64.7406 28.8593 65.5582 29.1019 66.1583 29.586C66.7583 30.0652 67.0578 30.7515 67.0568 31.6451L67.0532 34.9117C67.0531 35.0191 67.053 35.1265 67.0528 35.2339C67.0576 35.3365 67.0673 35.4366 67.0818 35.5343L67.9093 35.6524L67.9079 36.9341L65.2565 36.9312C65.203 36.7944 65.1494 36.6478 65.0959 36.4915C65.0423 36.3352 65.0034 36.1789 64.9792 36.0227C64.7249 36.3446 64.4244 36.6031 64.0775 36.798C63.7355 36.9881 63.3325 37.0828 62.8686 37.0823ZM63.4417 35.5009C63.7396 35.5013 64.0228 35.4356 64.2915 35.3041C64.5602 35.1677 64.768 34.9897 64.9147 34.7701L64.9161 33.5177L63.8614 33.5165C63.3926 33.516 63.0361 33.623 62.7917 33.8376C62.5522 34.0522 62.4323 34.3108 62.4319 34.6136C62.4316 34.8968 62.5193 35.1166 62.6949 35.273C62.8754 35.4246 63.1243 35.5006 63.4417 35.5009ZM71.7163 37.0922C71.0864 37.0915 70.5446 36.9297 70.0909 36.607C69.642 36.2793 69.2983 35.8248 69.0597 35.2435C68.8211 34.6573 68.7022 33.9736 68.7031 33.1923L68.7032 33.0385C68.7042 32.2036 68.8246 31.4737 69.0646 30.849C69.3094 30.2242 69.6566 29.7388 70.1062 29.3926C70.5558 29.0416 71.0931 28.8664 71.7181 28.8671C72.1527 28.8676 72.5335 28.9559 72.8604 29.132C73.1874 29.3033 73.4703 29.5477 73.7092 29.8654L73.7124 27.0236L72.57 26.8026L72.5715 25.5135L73.7141 25.5148L75.8527 25.5172L75.8417 35.4415L76.8668 35.6624L76.8654 36.9441L73.987 36.9409L73.8269 35.9739C73.5775 36.3398 73.2793 36.6178 72.9324 36.8079C72.5904 36.9979 72.185 37.0927 71.7163 37.0922ZM72.3554 35.4303C72.6532 35.4306 72.9145 35.3674 73.1393 35.2407C73.364 35.114 73.5522 34.9311 73.7038 34.692L73.7076 31.3302C73.5614 31.0762 73.3761 30.8806 73.1516 30.7437C72.9271 30.6018 72.6684 30.5307 72.3755 30.5304C72.019 30.53 71.7259 30.6371 71.4962 30.8517C71.2714 31.0614 71.105 31.3542 70.9972 31.73C70.8942 32.1059 70.8425 32.5429 70.8419 33.0409L70.8417 33.1947C70.841 33.8881 70.9575 34.4351 71.1915 34.8357C71.4254 35.2315 71.8134 35.4297 72.3554 35.4303ZM84.3359 37.1062C83.5986 37.1054 83.03 36.9021 82.6301 36.4964C82.235 36.0907 82.038 35.4484 82.0389 34.5695L82.0434 30.5265L80.9521 30.5253L80.9538 29.0238L82.0451 29.0251L82.0473 27.0841L84.1786 27.0865L84.1765 29.0274L85.634 29.0291L85.6323 30.5305L84.1748 30.5289L84.1703 34.5645C84.17 34.8722 84.2332 35.092 84.36 35.2239C84.4917 35.3559 84.6698 35.422 84.8944 35.4223C85.0165 35.4224 85.1435 35.4152 85.2753 35.4007C85.4121 35.3814 85.5293 35.362 85.6269 35.3425L85.8083 36.8881C85.5885 36.9514 85.3492 37.0024 85.0904 37.0412C84.8364 37.0848 84.5849 37.1065 84.3359 37.1062ZM86.4967 36.9548L86.4982 35.6731L87.5311 35.4545L87.5405 27.039L86.3982 26.818L86.3996 25.5289L89.6735 25.5326L89.6685 30.0443C89.9179 29.6784 90.2259 29.3955 90.5923 29.1957C90.9636 28.991 91.3837 28.889 91.8524 28.8895C92.6483 28.8904 93.2779 29.1572 93.7412 29.6899C94.2093 30.2178 94.4428 31.0359 94.4416 32.1443L94.4379 35.4622L95.463 35.6831L95.4616 36.9648L91.3747 36.9603L91.3761 35.6785L92.2992 35.4598L92.3029 32.1273C92.3035 31.556 92.1966 31.1506 91.982 30.9111C91.7674 30.6716 91.4526 30.5517 91.0376 30.5512C90.7495 30.5509 90.4857 30.6116 90.2463 30.7334C90.0118 30.8503 89.8188 31.0235 89.6672 31.2528L89.6625 35.4569L90.5851 35.6776L90.5836 36.9594L86.4967 36.9548ZM99.8559 37.1235C99.0991 37.1227 98.4377 36.9559 97.8716 36.6233C97.3056 36.2857 96.8667 35.8238 96.5548 35.2375C96.2478 34.6512 96.0948 33.9821 96.0956 33.2302L96.0959 32.9372C96.0968 32.1511 96.2441 31.4554 96.5377 30.8503C96.8314 30.2403 97.2445 29.7622 97.7771 29.4161C98.3146 29.0652 98.9471 28.8925 99.6747 28.8982C100.392 28.899 100.995 29.0413 101.483 29.325C101.971 29.6088 102.342 30.0169 102.595 30.5494C102.849 31.0819 102.975 31.7266 102.974 32.4834L102.973 33.648L98.3144 33.6428L98.2997 33.6867C98.3286 34.0334 98.4137 34.3436 98.555 34.6172C98.7012 34.8859 98.906 35.0985 99.1695 35.2551C99.433 35.4067 99.7528 35.4828 100.129 35.4832C100.519 35.4836 100.883 35.4352 101.22 35.3379C101.562 35.2358 101.894 35.0872 102.217 34.8923L102.794 36.2113C102.467 36.4746 102.054 36.6938 101.555 36.8691C101.062 37.0394 100.496 37.1242 99.8559 37.1235ZM98.3306 32.2292L100.975 32.2322L100.975 32.0418C100.975 31.7195 100.932 31.4436 100.844 31.214C100.761 30.9795 100.625 30.7987 100.434 30.6715C100.249 30.5444 100.007 30.4806 99.7095 30.4803C99.4263 30.48 99.187 30.5554 98.9915 30.7065C98.796 30.8528 98.642 31.0553 98.5294 31.3139C98.4217 31.5726 98.3481 31.8655 98.3087 32.1926L98.3306 32.2292ZM107.752 36.9785L107.753 35.6968L108.786 35.4782L108.791 30.5563L107.612 30.555L107.614 29.0535L108.793 29.0549L108.794 28.176C108.795 27.2873 109.05 26.604 109.558 26.126C110.071 25.6432 110.787 25.4023 111.705 25.4033C111.934 25.4036 112.176 25.4234 112.43 25.4627C112.684 25.4972 112.901 25.5389 113.082 25.588L112.897 27.1771C112.78 27.1428 112.645 27.1182 112.494 27.1034C112.343 27.0837 112.189 27.0738 112.033 27.0736C111.662 27.0732 111.386 27.1681 111.205 27.3583C111.024 27.5486 110.933 27.8219 110.933 28.1783L110.932 29.0572L112.726 29.0592L112.725 30.5607L110.93 30.5587L110.925 35.4806L112.323 35.7019L112.322 36.9836L107.752 36.9785ZM117.273 37.1429C116.492 37.1421 115.82 36.9704 115.259 36.628C114.698 36.2856 114.269 35.8114 113.972 35.2056C113.675 34.595 113.527 33.8941 113.527 33.1031L113.528 32.9493C113.528 32.1632 113.678 31.4675 113.977 30.8624C114.275 30.2524 114.703 29.7768 115.26 29.4356C115.822 29.0895 116.491 28.9169 117.267 28.9178C118.054 28.9187 118.725 29.0928 119.281 29.4401C119.837 29.7825 120.264 30.2566 120.561 30.8624C120.858 31.4682 121.006 32.1666 121.006 32.9576L121.005 33.1114C121.005 33.9024 120.855 34.603 120.556 35.213C120.258 35.8181 119.83 36.2913 119.273 36.6325C118.716 36.9736 118.049 37.1438 117.273 37.1429ZM117.275 35.5023C117.646 35.5027 117.949 35.403 118.183 35.203C118.418 35.0031 118.592 34.725 118.704 34.3686C118.817 34.0074 118.874 33.5876 118.874 33.1091L118.874 32.9552C118.875 32.4865 118.819 32.0738 118.707 31.7173C118.595 31.3558 118.42 31.0749 118.181 30.8744C117.947 30.6691 117.642 30.5662 117.266 30.5658C116.899 30.5654 116.597 30.6676 116.357 30.8724C116.118 31.0723 115.941 31.3529 115.829 31.7141C115.721 32.0704 115.667 32.4829 115.666 32.9517L115.666 33.1055C115.666 33.584 115.719 34.004 115.826 34.3654C115.938 34.7269 116.113 35.0078 116.352 35.2083C116.591 35.4039 116.899 35.5019 117.275 35.5023ZM121.697 36.994L121.698 35.7123L122.731 35.4937L122.741 27.0782L121.598 26.8572L121.6 25.5681L124.881 25.5718L124.87 35.4961L125.902 35.717L125.901 36.9987L121.697 36.994ZM126.487 36.9994L126.488 35.7176L127.521 35.4991L127.531 27.0835L126.388 26.8625L126.39 25.5735L129.671 25.5771L129.66 35.5014L130.692 35.7223L130.691 37.0041L126.487 36.9994ZM135.027 37.1627C134.246 37.1618 133.574 36.9902 133.013 36.6478C132.452 36.3053 132.023 35.8312 131.726 35.2254C131.429 34.6147 131.28 33.9139 131.281 33.1229L131.281 32.9691C131.282 32.1829 131.432 31.4873 131.731 30.8822C132.029 30.2721 132.457 29.7966 133.014 29.4554C133.576 29.1093 134.245 28.9367 135.021 28.9376C135.807 28.9385 136.479 29.1126 137.035 29.4599C137.591 29.8023 138.018 30.2764 138.315 30.8822C138.612 31.488 138.76 32.1864 138.76 32.9774L138.759 33.1312C138.758 33.9222 138.609 34.6227 138.31 35.2328C138.012 35.8379 137.584 36.3111 137.027 36.6522C136.47 36.9934 135.803 37.1636 135.027 37.1627ZM135.029 35.5221C135.4 35.5225 135.703 35.4227 135.937 35.2228C136.172 35.0229 136.345 34.7447 136.458 34.3884C136.571 34.0272 136.627 33.6074 136.628 33.1288L136.628 32.975C136.629 32.5063 136.573 32.0936 136.461 31.737C136.349 31.3756 136.174 31.0946 135.935 30.8942C135.701 30.6888 135.395 30.586 135.019 30.5855C134.653 30.5851 134.35 30.6873 134.111 30.8921C133.871 31.0921 133.695 31.3726 133.583 31.7338C133.475 32.0902 133.421 32.5027 133.42 32.9715L133.42 33.1253C133.419 33.6038 133.473 34.0238 133.58 34.3852C133.692 34.7467 133.867 35.0276 134.106 35.2281C134.345 35.4237 134.653 35.5217 135.029 35.5221ZM142.088 37.0168L140.249 30.5547L139.282 30.3779L139.284 29.0888L143.114 29.0931L143.113 30.3748L142.278 30.535L143.007 33.6193L143.153 34.2274L143.197 34.2275L143.395 33.6198L145.026 29.0952L146.462 29.0968L148.031 33.6835L148.236 34.3283L148.279 34.3283L148.471 33.684L149.338 30.5502L148.416 30.3807L148.417 29.099L152.167 29.1032L152.166 30.3922L151.243 30.567L149.221 37.0247L147.42 37.0227L145.974 33.0953L145.718 32.2234L145.674 32.2234L145.417 33.102L143.984 37.0189L142.088 37.0168ZM152.774 37.0287L152.775 35.7469L153.808 35.5283L153.813 30.6138L152.671 30.3928L152.673 29.1037L155.954 29.1074L155.947 35.5307L156.972 35.7516L156.97 37.0333L152.774 37.0287ZM153.744 27.4277L153.746 25.604L155.958 25.6064L155.956 27.4301L153.744 27.4277ZM157.608 37.034L157.609 35.7523L158.635 35.5337L158.64 30.6192L157.505 30.3982L157.506 29.1091L160.634 29.1126L160.728 30.248C160.992 29.843 161.317 29.5284 161.703 29.3042C162.094 29.0801 162.538 28.9682 163.036 28.9688C163.823 28.9697 164.438 29.2218 164.881 29.7253C165.325 30.2287 165.546 31.0175 165.545 32.0917L165.541 35.5414L166.566 35.7623L166.565 37.044L162.478 37.0395L162.48 35.7577L163.395 35.539L163.399 32.0966C163.4 31.5644 163.295 31.1883 163.085 30.9684C162.876 30.7435 162.563 30.6309 162.148 30.6304C161.841 30.6301 161.572 30.6957 161.342 30.8273C161.118 30.954 160.93 31.1369 160.778 31.376L160.773 35.5361L161.637 35.7568L161.636 37.0385L157.608 37.034ZM170.67 40.2493C170.27 40.2488 169.821 40.1971 169.323 40.094C168.825 39.9909 168.386 39.8439 168.005 39.6531L168.402 38.1301C168.744 38.2769 169.105 38.3921 169.486 38.4755C169.871 38.5638 170.23 38.6082 170.562 38.6085C171.134 38.6092 171.551 38.4509 171.815 38.1339C172.084 37.8168 172.219 37.375 172.22 36.8086L172.22 36.2886C171.985 36.5862 171.709 36.8129 171.392 36.9688C171.074 37.1247 170.71 37.2025 170.3 37.202C169.656 37.2013 169.102 37.0395 168.638 36.7167C168.175 36.3891 167.821 35.9321 167.578 35.3459C167.334 34.7597 167.213 34.0784 167.214 33.3021L167.214 33.1483C167.215 32.3133 167.338 31.5835 167.583 30.9587C167.827 30.334 168.177 29.8486 168.632 29.5024C169.086 29.1513 169.631 28.9761 170.265 28.9769C170.739 28.9774 171.147 29.0779 171.488 29.2785C171.83 29.4742 172.12 29.7553 172.359 30.1218L172.514 29.1258L174.374 29.1279L174.366 36.8183C174.365 37.5166 174.215 38.1219 173.917 38.6342C173.623 39.1466 173.2 39.5441 172.648 39.8267C172.096 40.1093 171.437 40.2501 170.67 40.2493ZM170.903 35.5401C171.205 35.5404 171.467 35.4821 171.687 35.3652C171.906 35.2433 172.085 35.0678 172.222 34.8384L172.226 31.396C172.089 31.1566 171.909 30.9709 171.684 30.8388C171.465 30.7067 171.208 30.6405 170.915 30.6402C170.549 30.6398 170.251 30.7469 170.022 30.9614C169.792 31.1712 169.623 31.4639 169.515 31.8398C169.407 32.2108 169.353 32.6477 169.353 33.1506L169.352 33.3045C169.352 33.9978 169.471 34.5448 169.709 34.9455C169.948 35.3413 170.346 35.5394 170.903 35.5401ZM174.101 30.673L173.173 29.1266L175.304 29.129L175.303 30.418L174.101 30.673ZM182.283 37.2153C181.497 37.2145 180.872 37.0038 180.408 36.5834C179.945 36.1581 179.714 35.5816 179.714 34.8541C179.715 34.356 179.85 33.9192 180.119 33.5435C180.393 33.1678 180.793 32.8729 181.321 32.6586C181.853 32.4444 182.508 32.3377 183.284 32.3385L184.332 32.3397L184.332 31.7538C184.333 31.3729 184.221 31.0652 183.996 30.8305C183.777 30.591 183.445 30.471 183.001 30.4705C182.771 30.4703 182.566 30.4993 182.385 30.5577C182.205 30.6112 182.038 30.6892 181.887 30.7916L181.717 31.8387L180.179 31.837L180.152 29.7789C180.568 29.545 181.017 29.355 181.501 29.2091C181.984 29.0632 182.524 28.9905 183.119 28.9912C184.155 28.9923 184.972 29.2349 185.572 29.719C186.172 30.1982 186.472 30.8846 186.471 31.7781L186.467 35.0447C186.467 35.1521 186.467 35.2596 186.467 35.367C186.472 35.4695 186.481 35.5696 186.496 35.6673L187.323 35.7854L187.322 37.0671L184.671 37.0642C184.617 36.9274 184.563 36.7809 184.51 36.6246C184.456 36.4683 184.417 36.312 184.393 36.1557C184.139 36.4777 183.838 36.7361 183.491 36.931C183.149 37.1211 182.747 37.2159 182.283 37.2153ZM182.856 35.634C183.154 35.6343 183.437 35.5687 183.706 35.4371C183.974 35.3007 184.182 35.1227 184.329 34.9032L184.33 33.6507L183.275 33.6496C182.807 33.649 182.45 33.7561 182.206 33.9706C181.966 34.1852 181.846 34.4439 181.846 34.7466C181.846 35.0298 181.933 35.2496 182.109 35.4061C182.289 35.5576 182.538 35.6336 182.856 35.634ZM188.245 37.0682L188.246 35.7864L189.272 35.5679L189.277 30.6533L188.142 30.4323L188.144 29.1433L191.271 29.1467L191.351 30.1283L191.365 30.3041C191.561 29.8746 191.803 29.5502 192.091 29.3308C192.38 29.1114 192.724 29.0019 193.124 29.0023C193.251 29.0025 193.39 29.0148 193.542 29.0394C193.693 29.0591 193.827 29.0861 193.944 29.1204L193.715 31.0904L192.653 31.0306C192.351 31.0156 192.104 31.0666 191.913 31.1836C191.728 31.3006 191.562 31.4688 191.415 31.6884L191.41 35.5702L192.436 35.7911L192.434 37.0728L188.245 37.0682ZM197.861 37.2327C197.124 37.2319 196.555 37.0286 196.155 36.6229C195.76 36.2172 195.563 35.5749 195.564 34.696L195.569 30.653L194.477 30.6518L194.479 29.1503L195.57 29.1515L195.573 27.2106L197.704 27.213L197.702 29.1539L199.159 29.1555L199.158 30.657L197.7 30.6554L197.696 34.691C197.695 34.9986 197.759 35.2184 197.885 35.3504C198.017 35.4824 198.195 35.5485 198.42 35.5488C198.542 35.5489 198.669 35.5417 198.801 35.5272C198.937 35.5078 199.055 35.4884 199.152 35.469L199.334 37.0146C199.114 37.0778 198.875 37.1288 198.616 37.1676C198.362 37.2113 198.11 37.233 197.861 37.2327ZM200.249 37.0816L200.251 35.7998L201.283 35.5812L201.289 30.6667L200.147 30.4457L200.148 29.1566L203.429 29.1603L203.422 35.5836L204.447 35.8045L204.446 37.0862L200.249 37.0816ZM201.219 27.4806L201.221 25.6568L203.433 25.6593L203.431 27.483L201.219 27.4806ZM208.892 37.245C208.13 37.2441 207.471 37.0725 206.915 36.7301C206.363 36.3877 205.939 35.916 205.642 35.3151C205.345 34.7093 205.196 34.0182 205.197 33.2418L205.197 33.0221C205.198 32.2409 205.35 31.5501 205.654 30.9499C205.957 30.3496 206.385 29.8789 206.937 29.5377C207.489 29.1917 208.139 29.019 208.886 29.0199C209.599 29.0207 210.212 29.1337 210.724 29.3588C211.241 29.5791 211.661 29.836 211.983 30.1293L211.966 32.3998L210.354 32.398L210.07 30.9841C209.953 30.8668 209.804 30.7714 209.624 30.6979C209.443 30.6245 209.26 30.5877 209.075 30.5875C208.684 30.587 208.359 30.6843 208.1 30.8794C207.846 31.0744 207.655 31.3525 207.528 31.7137C207.401 32.0749 207.337 32.5118 207.336 33.0245L207.336 33.2442C207.335 33.7862 207.406 34.2331 207.547 34.5848C207.688 34.9316 207.876 35.1882 208.11 35.3545C208.349 35.5207 208.615 35.6041 208.908 35.6044C209.284 35.6048 209.584 35.5075 209.809 35.3124C210.039 35.1125 210.195 34.8319 210.279 34.4707L212.11 34.4727L212.132 34.5167C212.048 35.0781 211.882 35.5637 211.632 35.9736C211.388 36.3835 211.041 36.6981 210.591 36.9173C210.147 37.1365 209.58 37.2458 208.892 37.245ZM212.971 37.0957L212.973 35.814L214.006 35.5954L214.015 27.1799L212.873 26.9589L212.874 25.6698L216.155 25.6735L216.144 35.5978L217.177 35.8187L217.175 37.1004L212.971 37.0957ZM221.526 37.2591C220.769 37.2582 220.108 37.0915 219.541 36.7588C218.975 36.4213 218.537 35.9593 218.225 35.3731C217.918 34.7868 217.765 34.1177 217.765 33.3657L217.766 33.0727C217.767 32.2866 217.914 31.591 218.208 30.9858C218.501 30.3758 218.914 29.8978 219.447 29.5517C219.984 29.2007 220.617 29.0281 221.345 29.0338C222.062 29.0346 222.665 29.1768 223.153 29.4606C223.641 29.7443 224.012 30.1525 224.265 30.685C224.518 31.2175 224.645 31.8621 224.644 32.619L224.642 33.7835L219.984 33.7783L219.97 33.8223C219.998 34.169 220.084 34.4791 220.225 34.7527C220.371 35.0214 220.576 35.2341 220.839 35.3906C221.103 35.5423 221.423 35.6183 221.799 35.6187C222.189 35.6192 222.553 35.5708 222.89 35.4735C223.232 35.3713 223.564 35.2228 223.887 35.0278L224.464 36.3468C224.136 36.6101 223.724 36.8294 223.225 37.0046C222.732 37.175 222.165 37.2598 221.526 37.2591ZM220 32.3648L222.645 32.3677L222.645 32.1773C222.645 31.855 222.601 31.5791 222.514 31.3495C222.431 31.115 222.295 30.9342 222.104 30.8071C221.919 30.6799 221.677 30.6162 221.379 30.6158C221.096 30.6155 220.857 30.6909 220.661 30.8421C220.466 30.9883 220.312 31.1908 220.199 31.4495C220.092 31.7081 220.018 32.001 219.979 32.3281L220 32.3648Z" fill="black"/>
</svg>
