<svg width="103" height="69" viewBox="0 0 103 69" fill="none" xmlns="http://www.w3.org/2000/svg">
<rect x="5.5" y="20.5" width="90" height="31" fill="#E5AD3F" stroke="black"/>
<path d="M15.4102 40V38.7183L16.5454 38.4985V30.8447L15.4102 30.625V29.3359H16.5454H19.7095L22.6172 36.77H22.6611L25.4736 29.3359H29.7803V30.625L28.6377 30.8447V38.4985L29.7803 38.7183V40H25.3638V38.7183L26.5576 38.4985V36.4551L26.5942 31.6431L26.5503 31.6357L23.3643 39.8535H21.7456L18.4863 31.7017L18.4424 31.709L18.5669 36.2354V38.4985L19.8267 38.7183V40H15.4102ZM34.3726 40.1538C33.5913 40.1538 32.9199 39.9829 32.3584 39.6411C31.7969 39.2993 31.3672 38.8257 31.0693 38.2202C30.7715 37.6099 30.6226 36.9092 30.6226 36.1182V35.9644C30.6226 35.1782 30.7715 34.4824 31.0693 33.877C31.3672 33.2666 31.7944 32.7905 32.3511 32.4487C32.9126 32.1021 33.5815 31.9287 34.3579 31.9287C35.144 31.9287 35.8154 32.1021 36.3721 32.4487C36.9287 32.7905 37.356 33.2642 37.6538 33.8696C37.9517 34.4751 38.1006 35.1733 38.1006 35.9644V36.1182C38.1006 36.9092 37.9517 37.6099 37.6538 38.2202C37.356 38.8257 36.9287 39.2993 36.3721 39.6411C35.8154 39.9829 35.1489 40.1538 34.3726 40.1538ZM34.3726 38.5132C34.7437 38.5132 35.0464 38.4131 35.2808 38.2129C35.5151 38.0127 35.6885 37.7344 35.8008 37.3779C35.9131 37.0166 35.9692 36.5967 35.9692 36.1182V35.9644C35.9692 35.4956 35.9131 35.083 35.8008 34.7266C35.6885 34.3652 35.5127 34.0845 35.2734 33.8843C35.0391 33.6792 34.7339 33.5767 34.3579 33.5767C33.9917 33.5767 33.689 33.6792 33.4497 33.8843C33.2104 34.0845 33.0347 34.3652 32.9224 34.7266C32.8149 35.083 32.7612 35.4956 32.7612 35.9644V36.1182C32.7612 36.5967 32.8149 37.0166 32.9224 37.3779C33.0347 37.7393 33.2104 38.02 33.4497 38.2202C33.689 38.4155 33.9966 38.5132 34.3726 38.5132ZM39.2212 40V38.7183L40.2466 38.4985V33.584L39.1113 33.3643V32.0752H42.2388L42.3193 33.0566L42.334 33.2324C42.5293 32.8027 42.771 32.478 43.0591 32.2583C43.3472 32.0386 43.6914 31.9287 44.0918 31.9287C44.2188 31.9287 44.3579 31.9409 44.5093 31.9653C44.6606 31.9849 44.7949 32.0117 44.9121 32.0459L44.6851 34.0161L43.623 33.9575C43.3203 33.9429 43.0737 33.9941 42.8833 34.1113C42.6978 34.2285 42.5317 34.397 42.3853 34.6167V38.4985L43.4106 38.7183V40H39.2212ZM49.1968 40.1538C48.4399 40.1538 47.7783 39.9878 47.2119 39.6558C46.6455 39.3188 46.2061 38.8574 45.8936 38.2715C45.5859 37.6855 45.4321 37.0166 45.4321 36.2646V35.9717C45.4321 35.1855 45.5786 34.4897 45.8716 33.8843C46.1646 33.2739 46.5771 32.7954 47.1094 32.4487C47.6465 32.0972 48.2788 31.9238 49.0063 31.9287C49.7241 31.9287 50.3271 32.0703 50.8154 32.3535C51.3037 32.6367 51.6748 33.0444 51.9287 33.5767C52.1826 34.1089 52.3096 34.7534 52.3096 35.5103V36.6748H47.6514L47.6367 36.7188C47.666 37.0654 47.7515 37.3755 47.8931 37.6489C48.0396 37.9175 48.2446 38.1299 48.5083 38.2861C48.772 38.4375 49.0918 38.5132 49.4678 38.5132C49.8584 38.5132 50.2222 38.4644 50.5591 38.3667C50.9009 38.2642 51.2329 38.1152 51.5552 37.9199L52.1338 39.2383C51.8066 39.502 51.394 39.7217 50.896 39.8975C50.4028 40.0684 49.8364 40.1538 49.1968 40.1538ZM47.666 35.2612H50.3101V35.0708C50.3101 34.7485 50.2661 34.4727 50.1782 34.2432C50.0952 34.0088 49.9585 33.8281 49.7681 33.7012C49.5825 33.5742 49.3408 33.5107 49.043 33.5107C48.7598 33.5107 48.5205 33.5864 48.3252 33.7378C48.1299 33.8843 47.9761 34.0869 47.8638 34.3457C47.7563 34.6045 47.6831 34.8975 47.644 35.2246L47.666 35.2612ZM56.8579 40V38.7183L57.8906 38.4985V30.083L56.748 29.8633V28.5742H60.022V33.0859C60.271 32.7197 60.5786 32.4365 60.9448 32.2363C61.3159 32.0312 61.7358 31.9287 62.2046 31.9287C63.0005 31.9287 63.6304 32.1948 64.0942 32.7271C64.563 33.2544 64.7974 34.0723 64.7974 35.1807V38.4985L65.8228 38.7183V40H61.7358V38.7183L62.6587 38.4985V35.166C62.6587 34.5947 62.5513 34.1895 62.3364 33.9502C62.1216 33.7109 61.8066 33.5913 61.3916 33.5913C61.1035 33.5913 60.8398 33.6523 60.6006 33.7744C60.3662 33.8916 60.1733 34.0649 60.022 34.2944V38.4985L60.9448 38.7183V40H56.8579ZM70.2173 40.1538C69.4604 40.1538 68.7988 39.9878 68.2324 39.6558C67.666 39.3188 67.2266 38.8574 66.9141 38.2715C66.6064 37.6855 66.4526 37.0166 66.4526 36.2646V35.9717C66.4526 35.1855 66.5991 34.4897 66.8921 33.8843C67.1851 33.2739 67.5977 32.7954 68.1299 32.4487C68.667 32.0972 69.2993 31.9238 70.0269 31.9287C70.7446 31.9287 71.3477 32.0703 71.8359 32.3535C72.3242 32.6367 72.6953 33.0444 72.9492 33.5767C73.2031 34.1089 73.3301 34.7534 73.3301 35.5103V36.6748H68.6719L68.6572 36.7188C68.6865 37.0654 68.772 37.3755 68.9136 37.6489C69.0601 37.9175 69.2651 38.1299 69.5288 38.2861C69.7925 38.4375 70.1123 38.5132 70.4883 38.5132C70.8789 38.5132 71.2427 38.4644 71.5796 38.3667C71.9214 38.2642 72.2534 38.1152 72.5757 37.9199L73.1543 39.2383C72.8271 39.502 72.4146 39.7217 71.9165 39.8975C71.4233 40.0684 70.8569 40.1538 70.2173 40.1538ZM68.6865 35.2612H71.3306V35.0708C71.3306 34.7485 71.2866 34.4727 71.1987 34.2432C71.1157 34.0088 70.979 33.8281 70.7886 33.7012C70.603 33.5742 70.3613 33.5107 70.0635 33.5107C69.7803 33.5107 69.541 33.5864 69.3457 33.7378C69.1504 33.8843 68.9966 34.0869 68.8843 34.3457C68.7769 34.6045 68.7036 34.8975 68.6646 35.2246L68.6865 35.2612ZM74.48 40V38.7183L75.5054 38.4985V33.584L74.3701 33.3643V32.0752H77.4976L77.5781 33.0566L77.5928 33.2324C77.7881 32.8027 78.0298 32.478 78.3179 32.2583C78.606 32.0386 78.9502 31.9287 79.3506 31.9287C79.4775 31.9287 79.6167 31.9409 79.7681 31.9653C79.9194 31.9849 80.0537 32.0117 80.1709 32.0459L79.9438 34.0161L78.8818 33.9575C78.5791 33.9429 78.3325 33.9941 78.1421 34.1113C77.9565 34.2285 77.7905 34.397 77.644 34.6167V38.4985L78.6694 38.7183V40H74.48ZM84.4556 40.1538C83.6987 40.1538 83.0371 39.9878 82.4707 39.6558C81.9043 39.3188 81.4648 38.8574 81.1523 38.2715C80.8447 37.6855 80.6909 37.0166 80.6909 36.2646V35.9717C80.6909 35.1855 80.8374 34.4897 81.1304 33.8843C81.4233 33.2739 81.8359 32.7954 82.3682 32.4487C82.9053 32.0972 83.5376 31.9238 84.2651 31.9287C84.9829 31.9287 85.5859 32.0703 86.0742 32.3535C86.5625 32.6367 86.9336 33.0444 87.1875 33.5767C87.4414 34.1089 87.5684 34.7534 87.5684 35.5103V36.6748H82.9102L82.8955 36.7188C82.9248 37.0654 83.0103 37.3755 83.1519 37.6489C83.2983 37.9175 83.5034 38.1299 83.7671 38.2861C84.0308 38.4375 84.3506 38.5132 84.7266 38.5132C85.1172 38.5132 85.481 38.4644 85.8179 38.3667C86.1597 38.2642 86.4917 38.1152 86.814 37.9199L87.3926 39.2383C87.0654 39.502 86.6528 39.7217 86.1548 39.8975C85.6616 40.0684 85.0952 40.1538 84.4556 40.1538ZM82.9248 35.2612H85.5688V35.0708C85.5688 34.7485 85.5249 34.4727 85.437 34.2432C85.354 34.0088 85.2173 33.8281 85.0269 33.7012C84.8413 33.5742 84.5996 33.5107 84.3018 33.5107C84.0186 33.5107 83.7793 33.5864 83.584 33.7378C83.3887 33.8843 83.2349 34.0869 83.1226 34.3457C83.0151 34.6045 82.9419 34.8975 82.9028 35.2246L82.9248 35.2612Z" fill="black"/>
</svg>
