<svg width="103" height="69" viewBox="0 0 103 69" fill="none" xmlns="http://www.w3.org/2000/svg">
<rect x="5.5" y="20.5" width="77" height="31" fill="#E5AD3F" stroke="black"/>
<path d="M15.4102 40V38.7183L16.5454 38.4985V30.8447L15.4102 30.625V29.3359H16.5454H20.4858C21.3013 29.3359 22.0044 29.48 22.5952 29.7681C23.186 30.0513 23.6401 30.4492 23.9575 30.9619C24.2749 31.4697 24.4336 32.063 24.4336 32.7417C24.4336 33.4204 24.2749 34.0161 23.9575 34.5288C23.6401 35.0366 23.186 35.4321 22.5952 35.7153C22.0044 35.9937 21.3013 36.1328 20.4858 36.1328H18.6841V38.4985L19.8267 38.7183V40H15.4102ZM18.6841 34.4849H20.4858C21.0815 34.4849 21.5308 34.3237 21.8335 34.0015C22.1411 33.6743 22.2949 33.2593 22.2949 32.7563C22.2949 32.2437 22.1411 31.8213 21.8335 31.4893C21.5308 31.1523 21.0815 30.9839 20.4858 30.9839H18.6841V34.4849ZM25.0562 40V38.7183L26.0889 38.4985V30.083L24.9463 29.8633V28.5742H28.2275V38.4985L29.2603 38.7183V40H25.0562ZM33.3252 40.1538C32.4902 40.1538 31.8335 39.8901 31.355 39.3628C30.8813 38.8306 30.6445 38.0054 30.6445 36.8872V33.584L29.7729 33.3643V32.0752H30.6445H32.7832V36.9019C32.7832 37.4683 32.8809 37.876 33.0762 38.125C33.2764 38.3691 33.5767 38.4912 33.9771 38.4912C34.2944 38.4912 34.5752 38.4302 34.8193 38.3081C35.0635 38.1812 35.2637 38.0029 35.4199 37.7734V33.584L34.4751 33.3643V32.0752H35.4199H37.5586V38.4985L38.5107 38.7183V40H35.6836L35.5371 38.9966C35.2881 39.3677 34.9756 39.6533 34.5996 39.8535C34.2236 40.0537 33.7988 40.1538 33.3252 40.1538ZM42.7075 40.1538C42.1167 40.1538 41.5649 40.0977 41.0522 39.9854C40.5444 39.873 40.0562 39.7119 39.5874 39.502L39.5654 37.2607H41.0522L41.3379 38.4033C41.5039 38.4863 41.6846 38.5522 41.8799 38.6011C42.0801 38.6499 42.3071 38.6743 42.561 38.6743C43.0396 38.6743 43.3765 38.5962 43.5718 38.4399C43.7671 38.2837 43.8647 38.0884 43.8647 37.854C43.8647 37.6343 43.7598 37.4414 43.5498 37.2754C43.3447 37.1045 42.9321 36.9556 42.312 36.8286C41.3745 36.6333 40.6836 36.3306 40.2393 35.9204C39.7949 35.5103 39.5728 34.9854 39.5728 34.3457C39.5728 33.9062 39.6826 33.5059 39.9023 33.1445C40.127 32.7832 40.4663 32.4927 40.9204 32.2729C41.3794 32.0532 41.9653 31.9434 42.6782 31.9434C43.2739 31.9434 43.8184 32.002 44.3115 32.1191C44.8096 32.2314 45.2271 32.3804 45.564 32.5659L45.5859 34.7339H44.1064L43.8794 33.6938C43.7476 33.5962 43.5913 33.5229 43.4106 33.4741C43.2349 33.4253 43.0347 33.4009 42.8101 33.4009C42.4341 33.4009 42.146 33.4766 41.9458 33.6279C41.7456 33.7793 41.6455 33.9746 41.6455 34.2139C41.6455 34.3506 41.6797 34.4775 41.748 34.5947C41.8213 34.7119 41.9629 34.8218 42.1729 34.9243C42.3828 35.0269 42.688 35.1245 43.0884 35.2173C44.0698 35.4419 44.7852 35.7422 45.2344 36.1182C45.6836 36.4893 45.9082 37.0117 45.9082 37.6855C45.9082 38.4229 45.6396 39.0186 45.1025 39.4727C44.5703 39.9268 43.772 40.1538 42.7075 40.1538ZM50.4932 40V38.7183L51.5259 38.4985V33.584L50.3833 33.3643V32.0752H53.6646V38.4985L54.6899 38.7183V40H50.4932ZM51.4526 30.3979V28.5742H53.6646V30.3979H51.4526ZM59.1357 40.1538C58.374 40.1538 57.7148 39.9829 57.1582 39.6411C56.6064 39.2993 56.1816 38.8281 55.8838 38.2275C55.5859 37.6221 55.437 36.9312 55.437 36.1548V35.9351C55.437 35.1538 55.5884 34.4629 55.8911 33.8623C56.1938 33.2617 56.6211 32.7905 57.1729 32.4487C57.7246 32.1021 58.374 31.9287 59.1211 31.9287C59.834 31.9287 60.4468 32.041 60.9595 32.2656C61.4771 32.4854 61.897 32.7417 62.2192 33.0347L62.2046 35.3052H60.5933L60.3076 33.8916C60.1904 33.7744 60.0415 33.6792 59.8608 33.606C59.6802 33.5327 59.4971 33.4961 59.3115 33.4961C58.9209 33.4961 58.5962 33.5938 58.3374 33.7891C58.0835 33.9844 57.8931 34.2627 57.7661 34.624C57.6392 34.9854 57.5757 35.4224 57.5757 35.9351V36.1548C57.5757 36.6968 57.6465 37.1436 57.7881 37.4951C57.9297 37.8418 58.1177 38.0981 58.3521 38.2642C58.5913 38.4302 58.8574 38.5132 59.1504 38.5132C59.5264 38.5132 59.8267 38.4155 60.0513 38.2202C60.2808 38.02 60.437 37.7393 60.52 37.3779H62.3511L62.373 37.4219C62.29 37.9834 62.124 38.4692 61.875 38.8794C61.6309 39.2896 61.2842 39.6045 60.835 39.8242C60.3906 40.0439 59.8242 40.1538 59.1357 40.1538ZM63.2666 40V38.7183L64.2993 38.4985V33.584L63.1567 33.3643V32.0752H66.438V38.4985L67.4634 38.7183V40H63.2666ZM64.2261 30.3979V28.5742H66.438V30.3979H64.2261Z" fill="black"/>
</svg>
