<svg width="256" height="44" viewBox="0 0 256 44" fill="none" xmlns="http://www.w3.org/2000/svg">
<rect x="0.5" y="0.5" width="255" height="43" fill="#E5AD3F" stroke="black"/>
<path d="M58.5599 26.1538C57.803 26.1538 57.1414 25.9878 56.575 25.6558C56.0086 25.3188 55.5692 24.8574 55.2567 24.2715C54.949 23.6855 54.7952 23.0166 54.7952 22.2646V21.9717C54.7952 21.1855 54.9417 20.4897 55.2347 19.8843C55.5277 19.2739 55.9403 18.7954 56.4725 18.4487C57.0096 18.0972 57.6419 17.9238 58.3695 17.9287C59.0872 17.9287 59.6903 18.0703 60.1785 18.3535C60.6668 18.6367 61.0379 19.0444 61.2918 19.5767C61.5457 20.1089 61.6727 20.7534 61.6727 21.5103V22.6748H57.0145L56.9998 22.7188C57.0291 23.0654 57.1146 23.3755 57.2562 23.6489C57.4027 23.9175 57.6077 24.1299 57.8714 24.2861C58.1351 24.4375 58.4549 24.5132 58.8309 24.5132C59.2215 24.5132 59.5853 24.4644 59.9222 24.3667C60.264 24.2642 60.596 24.1152 60.9183 23.9199L61.4969 25.2383C61.1697 25.502 60.7571 25.7217 60.2591 25.8975C59.7659 26.0684 59.1995 26.1538 58.5599 26.1538ZM57.0291 21.2612H59.6732V21.0708C59.6732 20.7485 59.6292 20.4727 59.5413 20.2432C59.4583 20.0088 59.3216 19.8281 59.1312 19.7012C58.9456 19.5742 58.7039 19.5107 58.4061 19.5107C58.1229 19.5107 57.8836 19.5864 57.6883 19.7378C57.493 19.8843 57.3392 20.0869 57.2269 20.3457C57.1195 20.6045 57.0462 20.8975 57.0071 21.2246L57.0291 21.2612ZM57.0511 16.5737L58.5086 14.5742H60.7718L60.7864 14.6182L58.765 16.5737H57.1097H57.0511ZM66.3895 26.1538C65.6278 26.1538 64.9686 25.9829 64.4119 25.6411C63.8602 25.2993 63.4354 24.8281 63.1375 24.2275C62.8397 23.6221 62.6907 22.9312 62.6907 22.1548V21.9351C62.6907 21.1538 62.8421 20.4629 63.1448 19.8623C63.4476 19.2617 63.8748 18.7905 64.4266 18.4487C64.9783 18.1021 65.6278 17.9287 66.3748 17.9287C67.0877 17.9287 67.7005 18.041 68.2132 18.2656C68.7308 18.4854 69.1507 18.7417 69.473 19.0347L69.4583 21.3052H67.847L67.5613 19.8916C67.4442 19.7744 67.2952 19.6792 67.1146 19.606C66.9339 19.5327 66.7508 19.4961 66.5653 19.4961C66.1746 19.4961 65.8499 19.5938 65.5911 19.7891C65.3372 19.9844 65.1468 20.2627 65.0198 20.624C64.8929 20.9854 64.8294 21.4224 64.8294 21.9351V22.1548C64.8294 22.6968 64.9002 23.1436 65.0418 23.4951C65.1834 23.8418 65.3714 24.0981 65.6058 24.2642C65.845 24.4302 66.1112 24.5132 66.4041 24.5132C66.7801 24.5132 67.0804 24.4155 67.305 24.2202C67.5345 24.02 67.6907 23.7393 67.7738 23.3779H69.6048L69.6268 23.4219C69.5438 23.9834 69.3778 24.4692 69.1287 24.8794C68.8846 25.2896 68.5379 25.6045 68.0887 25.8242C67.6444 26.0439 67.0779 26.1538 66.3895 26.1538ZM74.3655 26.1538C73.5843 26.1538 72.9129 25.9829 72.3514 25.6411C71.7899 25.2993 71.3602 24.8257 71.0623 24.2202C70.7645 23.6099 70.6155 22.9092 70.6155 22.1182V21.9644C70.6155 21.1782 70.7645 20.4824 71.0623 19.877C71.3602 19.2666 71.7874 18.7905 72.3441 18.4487C72.9056 18.1021 73.5745 17.9287 74.3509 17.9287C75.137 17.9287 75.8084 18.1021 76.3651 18.4487C76.9217 18.7905 77.3489 19.2642 77.6468 19.8696C77.9446 20.4751 78.0936 21.1733 78.0936 21.9644V22.1182C78.0936 22.9092 77.9446 23.6099 77.6468 24.2202C77.3489 24.8257 76.9217 25.2993 76.3651 25.6411C75.8084 25.9829 75.1419 26.1538 74.3655 26.1538ZM74.3655 24.5132C74.7366 24.5132 75.0394 24.4131 75.2738 24.2129C75.5081 24.0127 75.6815 23.7344 75.7938 23.3779C75.9061 23.0166 75.9622 22.5967 75.9622 22.1182V21.9644C75.9622 21.4956 75.9061 21.083 75.7938 20.7266C75.6815 20.3652 75.5057 20.0845 75.2664 19.8843C75.0321 19.6792 74.7269 19.5767 74.3509 19.5767C73.9847 19.5767 73.682 19.6792 73.4427 19.8843C73.2034 20.0845 73.0277 20.3652 72.9154 20.7266C72.8079 21.083 72.7542 21.4956 72.7542 21.9644V22.1182C72.7542 22.5967 72.8079 23.0166 72.9154 23.3779C73.0277 23.7393 73.2034 24.02 73.4427 24.2202C73.682 24.4155 73.9896 24.5132 74.3655 24.5132ZM82.4149 26.1538C81.5799 26.1538 80.9232 25.8901 80.4446 25.3628C79.971 24.8306 79.7342 24.0054 79.7342 22.8872V19.584L78.8626 19.3643V18.0752H79.7342H81.8729V22.9019C81.8729 23.4683 81.9705 23.876 82.1658 24.125C82.366 24.3691 82.6663 24.4912 83.0667 24.4912C83.3841 24.4912 83.6649 24.4302 83.909 24.3081C84.1531 24.1812 84.3533 24.0029 84.5096 23.7734V19.584L83.5648 19.3643V18.0752H84.5096H86.6483V24.4985L87.6004 24.7183V26H84.7733L84.6268 24.9966C84.3778 25.3677 84.0653 25.6533 83.6893 25.8535C83.3133 26.0537 82.8885 26.1538 82.4149 26.1538ZM91.5115 26.1538C90.7742 26.1538 90.2054 25.9512 89.805 25.5459C89.4095 25.1406 89.2117 24.4985 89.2117 23.6196V19.5767H88.1204V18.0752H89.2117V16.1343H91.3431V18.0752H92.8006V19.5767H91.3431V23.6123C91.3431 23.9199 91.4066 24.1396 91.5335 24.2715C91.6654 24.4033 91.8436 24.4692 92.0682 24.4692C92.1903 24.4692 92.3172 24.4619 92.449 24.4473C92.5858 24.4277 92.7029 24.4082 92.8006 24.3887L92.9837 25.9341C92.764 25.9976 92.5247 26.0488 92.2659 26.0879C92.012 26.1318 91.7606 26.1538 91.5115 26.1538ZM97.4075 26.1538C96.6507 26.1538 95.9891 25.9878 95.4227 25.6558C94.8563 25.3188 94.4168 24.8574 94.1043 24.2715C93.7967 23.6855 93.6429 23.0166 93.6429 22.2646V21.9717C93.6429 21.1855 93.7894 20.4897 94.0823 19.8843C94.3753 19.2739 94.7879 18.7954 95.3201 18.4487C95.8572 18.0972 96.4896 17.9238 97.2171 17.9287C97.9349 17.9287 98.5379 18.0703 99.0262 18.3535C99.5145 18.6367 99.8856 19.0444 100.139 19.5767C100.393 20.1089 100.52 20.7534 100.52 21.5103V22.6748H95.8621L95.8475 22.7188C95.8768 23.0654 95.9622 23.3755 96.1038 23.6489C96.2503 23.9175 96.4554 24.1299 96.7191 24.2861C96.9827 24.4375 97.3026 24.5132 97.6785 24.5132C98.0692 24.5132 98.4329 24.4644 98.7698 24.3667C99.1116 24.2642 99.4437 24.1152 99.7659 23.9199L100.345 25.2383C100.017 25.502 99.6048 25.7217 99.1068 25.8975C98.6136 26.0684 98.0472 26.1538 97.4075 26.1538ZM95.8768 21.2612H98.5208V21.0708C98.5208 20.7485 98.4769 20.4727 98.389 20.2432C98.306 20.0088 98.1693 19.8281 97.9788 19.7012C97.7933 19.5742 97.5516 19.5107 97.2537 19.5107C96.9705 19.5107 96.7313 19.5864 96.536 19.7378C96.3406 19.8843 96.1868 20.0869 96.0745 20.3457C95.9671 20.6045 95.8939 20.8975 95.8548 21.2246L95.8768 21.2612ZM101.692 26V24.7402L105.816 19.5693H103.677L103.435 20.9243H101.868V18.0752H108.379V19.4448L104.49 24.4692H106.731L107.046 23.0117H108.548V26H101.692ZM116.7 26.1538C116.109 26.1538 115.557 26.0977 115.044 25.9854C114.536 25.873 114.048 25.7119 113.579 25.502L113.557 23.2607H115.044L115.33 24.4033C115.496 24.4863 115.677 24.5522 115.872 24.6011C116.072 24.6499 116.299 24.6743 116.553 24.6743C117.032 24.6743 117.368 24.5962 117.564 24.4399C117.759 24.2837 117.857 24.0884 117.857 23.854C117.857 23.6343 117.752 23.4414 117.542 23.2754C117.337 23.1045 116.924 22.9556 116.304 22.8286C115.367 22.6333 114.676 22.3306 114.231 21.9204C113.787 21.5103 113.565 20.9854 113.565 20.3457C113.565 19.9062 113.675 19.5059 113.894 19.1445C114.119 18.7832 114.458 18.4927 114.912 18.2729C115.371 18.0532 115.957 17.9434 116.67 17.9434C117.266 17.9434 117.81 18.002 118.304 18.1191C118.802 18.2314 119.219 18.3804 119.556 18.5659L119.578 20.7339H118.098L117.871 19.6938C117.74 19.5962 117.583 19.5229 117.403 19.4741C117.227 19.4253 117.027 19.4009 116.802 19.4009C116.426 19.4009 116.138 19.4766 115.938 19.6279C115.738 19.7793 115.638 19.9746 115.638 20.2139C115.638 20.3506 115.672 20.4775 115.74 20.5947C115.813 20.7119 115.955 20.8218 116.165 20.9243C116.375 21.0269 116.68 21.1245 117.08 21.2173C118.062 21.4419 118.777 21.7422 119.226 22.1182C119.676 22.4893 119.9 23.0117 119.9 23.6855C119.9 24.4229 119.632 25.0186 119.095 25.4727C118.562 25.9268 117.764 26.1538 116.7 26.1538ZM124.236 26.1538C123.401 26.1538 122.744 25.8901 122.266 25.3628C121.792 24.8306 121.555 24.0054 121.555 22.8872V19.584L120.684 19.3643V18.0752H121.555H123.694V22.9019C123.694 23.4683 123.792 23.876 123.987 24.125C124.187 24.3691 124.488 24.4912 124.888 24.4912C125.205 24.4912 125.486 24.4302 125.73 24.3081C125.974 24.1812 126.175 24.0029 126.331 23.7734V19.584L125.386 19.3643V18.0752H126.331H128.47V24.4985L129.422 24.7183V26H126.595L126.448 24.9966C126.199 25.3677 125.887 25.6533 125.511 25.8535C125.135 26.0537 124.71 26.1538 124.236 26.1538ZM130.381 26V24.7183L131.407 24.4985V19.584L130.271 19.3643V18.0752H133.399L133.479 19.0566L133.494 19.2324C133.689 18.8027 133.931 18.478 134.219 18.2583C134.507 18.0386 134.851 17.9287 135.252 17.9287C135.379 17.9287 135.518 17.9409 135.669 17.9653C135.821 17.9849 135.955 18.0117 136.072 18.0459L135.845 20.0161L134.783 19.9575C134.48 19.9429 134.234 19.9941 134.043 20.1113C133.858 20.2285 133.692 20.397 133.545 20.6167V24.4985L134.571 24.7183V26H130.381ZM143.784 26.1538C143.194 26.1538 142.642 26.0977 142.129 25.9854C141.621 25.873 141.133 25.7119 140.664 25.502L140.642 23.2607H142.129L142.415 24.4033C142.581 24.4863 142.762 24.5522 142.957 24.6011C143.157 24.6499 143.384 24.6743 143.638 24.6743C144.117 24.6743 144.453 24.5962 144.649 24.4399C144.844 24.2837 144.942 24.0884 144.942 23.854C144.942 23.6343 144.837 23.4414 144.627 23.2754C144.422 23.1045 144.009 22.9556 143.389 22.8286C142.451 22.6333 141.761 22.3306 141.316 21.9204C140.872 21.5103 140.65 20.9854 140.65 20.3457C140.65 19.9062 140.76 19.5059 140.979 19.1445C141.204 18.7832 141.543 18.4927 141.997 18.2729C142.456 18.0532 143.042 17.9434 143.755 17.9434C144.351 17.9434 144.895 18.002 145.388 18.1191C145.887 18.2314 146.304 18.3804 146.641 18.5659L146.663 20.7339H145.183L144.956 19.6938C144.825 19.5962 144.668 19.5229 144.488 19.4741C144.312 19.4253 144.112 19.4009 143.887 19.4009C143.511 19.4009 143.223 19.4766 143.023 19.6279C142.823 19.7793 142.722 19.9746 142.722 20.2139C142.722 20.3506 142.757 20.4775 142.825 20.5947C142.898 20.7119 143.04 20.8218 143.25 20.9243C143.46 21.0269 143.765 21.1245 144.165 21.2173C145.147 21.4419 145.862 21.7422 146.311 22.1182C146.761 22.4893 146.985 23.0117 146.985 23.6855C146.985 24.4229 146.717 25.0186 146.18 25.4727C145.647 25.9268 144.849 26.1538 143.784 26.1538ZM147.908 29.0469V27.7578L148.941 27.5381V19.584L147.798 19.3643V18.0752H150.904L151.006 18.998C151.241 18.6562 151.524 18.3926 151.856 18.207C152.188 18.0215 152.583 17.9287 153.042 17.9287C153.682 17.9287 154.229 18.1045 154.683 18.4561C155.137 18.8027 155.484 19.2886 155.723 19.9136C155.967 20.5386 156.089 21.2686 156.089 22.1035V22.2573C156.089 23.0386 155.967 23.7222 155.723 24.3081C155.484 24.8892 155.135 25.3433 154.676 25.6704C154.221 25.9927 153.672 26.1538 153.028 26.1538C152.603 26.1538 152.227 26.0781 151.9 25.9268C151.577 25.7705 151.302 25.5435 151.072 25.2456V27.5381L152.105 27.7578V29.0469H147.908ZM152.39 24.5132C152.937 24.5132 153.333 24.3105 153.577 23.9053C153.826 23.5 153.951 22.9507 153.951 22.2573V22.1035C153.951 21.6006 153.894 21.1636 153.782 20.7925C153.67 20.4165 153.496 20.1235 153.262 19.9136C153.033 19.6987 152.737 19.5913 152.376 19.5913C152.083 19.5913 151.824 19.6572 151.599 19.7891C151.38 19.9209 151.204 20.1089 151.072 20.353V23.8247C151.204 24.0493 151.38 24.2202 151.599 24.3374C151.824 24.4546 152.088 24.5132 152.39 24.5132ZM160.923 26.1538C160.142 26.1538 159.471 25.9829 158.909 25.6411C158.347 25.2993 157.918 24.8257 157.62 24.2202C157.322 23.6099 157.173 22.9092 157.173 22.1182V21.9644C157.173 21.1782 157.322 20.4824 157.62 19.877C157.918 19.2666 158.345 18.7905 158.902 18.4487C159.463 18.1021 160.132 17.9287 160.909 17.9287C161.695 17.9287 162.366 18.1021 162.923 18.4487C163.479 18.7905 163.907 19.2642 164.204 19.8696C164.502 20.4751 164.651 21.1733 164.651 21.9644V22.1182C164.651 22.9092 164.502 23.6099 164.204 24.2202C163.907 24.8257 163.479 25.2993 162.923 25.6411C162.366 25.9829 161.7 26.1538 160.923 26.1538ZM160.923 24.5132C161.294 24.5132 161.597 24.4131 161.831 24.2129C162.066 24.0127 162.239 23.7344 162.351 23.3779C162.464 23.0166 162.52 22.5967 162.52 22.1182V21.9644C162.52 21.4956 162.464 21.083 162.351 20.7266C162.239 20.3652 162.063 20.0845 161.824 19.8843C161.59 19.6792 161.284 19.5767 160.909 19.5767C160.542 19.5767 160.24 19.6792 160 19.8843C159.761 20.0845 159.585 20.3652 159.473 20.7266C159.366 21.083 159.312 21.4956 159.312 21.9644V22.1182C159.312 22.5967 159.366 23.0166 159.473 23.3779C159.585 23.7393 159.761 24.02 160 24.2202C160.24 24.4155 160.547 24.5132 160.923 24.5132ZM168.665 26.1538C167.928 26.1538 167.359 25.9512 166.958 25.5459C166.563 25.1406 166.365 24.4985 166.365 23.6196V19.5767H165.274V18.0752H166.365V16.1343H168.496V18.0752H169.954V19.5767H168.496V23.6123C168.496 23.9199 168.56 24.1396 168.687 24.2715C168.819 24.4033 168.997 24.4692 169.221 24.4692C169.344 24.4692 169.471 24.4619 169.602 24.4473C169.739 24.4277 169.856 24.4082 169.954 24.3887L170.137 25.9341C169.917 25.9976 169.678 26.0488 169.419 26.0879C169.165 26.1318 168.914 26.1538 168.665 26.1538ZM171.053 26V24.7183L172.085 24.4985V19.584L170.943 19.3643V18.0752H174.224V24.4985L175.249 24.7183V26H171.053ZM172.012 16.3979V14.5742H174.224V16.3979H172.012ZM176.084 26V24.7183L177.117 24.4985V19.5767H175.938V18.0752H177.117V17.1963C177.117 16.3076 177.371 15.624 177.879 15.1455C178.391 14.6621 179.107 14.4204 180.025 14.4204C180.254 14.4204 180.496 14.4399 180.75 14.479C181.004 14.5132 181.221 14.5547 181.402 14.6035L181.219 16.1929C181.101 16.1587 180.967 16.1343 180.816 16.1196C180.664 16.1001 180.511 16.0903 180.354 16.0903C179.983 16.0903 179.707 16.1855 179.527 16.376C179.346 16.5664 179.256 16.8398 179.256 17.1963V18.0752H181.05V19.5767H179.256V24.4985L180.655 24.7183V26H176.084ZM184.024 29.2007C183.838 29.2007 183.64 29.1836 183.43 29.1494C183.225 29.1201 183.03 29.0786 182.845 29.0249L183.086 27.4575C183.179 27.4771 183.282 27.4917 183.394 27.5015C183.506 27.5112 183.604 27.5161 183.687 27.5161C183.994 27.5161 184.261 27.4355 184.485 27.2744C184.71 27.1133 184.873 26.8813 184.976 26.5786L185.152 26.0879L182.5 19.5034L181.526 19.3643V18.0752H185.73V19.3643L184.763 19.5107L186.009 23.0044L186.162 23.4365H186.206L187.679 19.4961L186.734 19.3643V18.0752H190.652V19.3643L189.759 19.4888L186.734 27.1792C186.587 27.5454 186.399 27.8799 186.17 28.1826C185.945 28.4902 185.657 28.7368 185.305 28.9224C184.959 29.1079 184.532 29.2007 184.024 29.2007Z" fill="black"/>
</svg>
