<svg width="279" height="44" viewBox="0 0 279 44" fill="none" xmlns="http://www.w3.org/2000/svg">
<rect x="0.5" y="0.5" width="255" height="43" fill="#E5AD3F" stroke="black"/>
<path d="M75.8173 26V24.7183L76.85 24.4985V16.083L75.7074 15.8633V14.5742H78.9887V24.4985L80.0214 24.7183V26H75.8173ZM80.6586 26V24.7183L81.6913 24.4985V19.584L80.5487 19.3643V18.0752H83.83V24.4985L84.8554 24.7183V26H80.6586ZM81.6181 16.3979V14.5742H83.83V16.3979H81.6181ZM88.9716 26.1538C88.3808 26.1538 87.829 26.0977 87.3163 25.9854C86.8085 25.873 86.3202 25.7119 85.8515 25.502L85.8295 23.2607H87.3163L87.6019 24.4033C87.768 24.4863 87.9486 24.5522 88.1439 24.6011C88.3441 24.6499 88.5712 24.6743 88.8251 24.6743C89.3036 24.6743 89.6405 24.5962 89.8358 24.4399C90.0311 24.2837 90.1288 24.0884 90.1288 23.854C90.1288 23.6343 90.0238 23.4414 89.8139 23.2754C89.6088 23.1045 89.1962 22.9556 88.5761 22.8286C87.6386 22.6333 86.9476 22.3306 86.5033 21.9204C86.059 21.5103 85.8368 20.9854 85.8368 20.3457C85.8368 19.9062 85.9467 19.5059 86.1664 19.1445C86.391 18.7832 86.7304 18.4927 87.1845 18.2729C87.6434 18.0532 88.2294 17.9434 88.9423 17.9434C89.538 17.9434 90.0824 18.002 90.5756 18.1191C91.0736 18.2314 91.4911 18.3804 91.828 18.5659L91.85 20.7339H90.3705L90.1434 19.6938C90.0116 19.5962 89.8554 19.5229 89.6747 19.4741C89.4989 19.4253 89.2987 19.4009 89.0741 19.4009C88.6981 19.4009 88.41 19.4766 88.2099 19.6279C88.0097 19.7793 87.9096 19.9746 87.9096 20.2139C87.9096 20.3506 87.9437 20.4775 88.0121 20.5947C88.0853 20.7119 88.2269 20.8218 88.4369 20.9243C88.6469 21.0269 88.952 21.1245 89.3524 21.2173C90.3339 21.4419 91.0492 21.7422 91.4984 22.1182C91.9476 22.4893 92.1723 23.0117 92.1723 23.6855C92.1723 24.4229 91.9037 25.0186 91.3666 25.4727C90.8344 25.9268 90.036 26.1538 88.9716 26.1538ZM96.2592 26.1538C95.5219 26.1538 94.953 25.9512 94.5526 25.5459C94.1571 25.1406 93.9594 24.4985 93.9594 23.6196V19.5767H92.8681V18.0752H93.9594V16.1343H96.0907V18.0752H97.5482V19.5767H96.0907V23.6123C96.0907 23.9199 96.1542 24.1396 96.2811 24.2715C96.413 24.4033 96.5912 24.4692 96.8158 24.4692C96.9379 24.4692 97.0648 24.4619 97.1967 24.4473C97.3334 24.4277 97.4506 24.4082 97.5482 24.3887L97.7313 25.9341C97.5116 25.9976 97.2724 26.0488 97.0136 26.0879C96.7597 26.1318 96.5082 26.1538 96.2592 26.1538ZM102.155 26.1538C101.398 26.1538 100.737 25.9878 100.17 25.6558C99.6039 25.3188 99.1644 24.8574 98.8519 24.2715C98.5443 23.6855 98.3905 23.0166 98.3905 22.2646V21.9717C98.3905 21.1855 98.537 20.4897 98.83 19.8843C99.1229 19.2739 99.5355 18.7954 100.068 18.4487C100.605 18.0972 101.237 17.9238 101.965 17.9287C102.683 17.9287 103.286 18.0703 103.774 18.3535C104.262 18.6367 104.633 19.0444 104.887 19.5767C105.141 20.1089 105.268 20.7534 105.268 21.5103V22.6748H100.61L100.595 22.7188C100.624 23.0654 100.71 23.3755 100.851 23.6489C100.998 23.9175 101.203 24.1299 101.467 24.2861C101.73 24.4375 102.05 24.5132 102.426 24.5132C102.817 24.5132 103.181 24.4644 103.517 24.3667C103.859 24.2642 104.191 24.1152 104.514 23.9199L105.092 25.2383C104.765 25.502 104.352 25.7217 103.854 25.8975C103.361 26.0684 102.795 26.1538 102.155 26.1538ZM100.624 21.2612H103.268V21.0708C103.268 20.7485 103.225 20.4727 103.137 20.2432C103.054 20.0088 102.917 19.8281 102.726 19.7012C102.541 19.5742 102.299 19.5107 102.001 19.5107C101.718 19.5107 101.479 19.5864 101.284 19.7378C101.088 19.8843 100.934 20.0869 100.822 20.3457C100.715 20.6045 100.641 20.8975 100.602 21.2246L100.624 21.2612ZM106.176 26V24.7183L107.202 24.4985V19.584L106.066 19.3643V18.0752H109.194L109.289 19.2104C109.553 18.8052 109.877 18.4902 110.263 18.2656C110.654 18.041 111.098 17.9287 111.596 17.9287C112.382 17.9287 112.997 18.1802 113.442 18.6831C113.886 19.186 114.108 19.9746 114.108 21.0488V24.4985L115.134 24.7183V26H111.047V24.7183L111.962 24.4985V21.0562C111.962 20.5239 111.857 20.1479 111.647 19.9282C111.437 19.7036 111.125 19.5913 110.71 19.5913C110.402 19.5913 110.134 19.6572 109.904 19.7891C109.68 19.916 109.492 20.0991 109.34 20.3384V24.4985L110.204 24.7183V26H106.176ZM123.293 26.1538C122.512 26.1538 121.84 25.9829 121.279 25.6411C120.717 25.2993 120.287 24.8257 119.99 24.2202C119.692 23.6099 119.543 22.9092 119.543 22.1182V21.9644C119.543 21.1782 119.692 20.4824 119.99 19.877C120.287 19.2666 120.715 18.7905 121.271 18.4487C121.833 18.1021 122.502 17.9287 123.278 17.9287C124.064 17.9287 124.736 18.1021 125.292 18.4487C125.849 18.7905 126.276 19.2642 126.574 19.8696C126.872 20.4751 127.021 21.1733 127.021 21.9644V22.1182C127.021 22.9092 126.872 23.6099 126.574 24.2202C126.276 24.8257 125.849 25.2993 125.292 25.6411C124.736 25.9829 124.069 26.1538 123.293 26.1538ZM123.293 24.5132C123.664 24.5132 123.967 24.4131 124.201 24.2129C124.435 24.0127 124.609 23.7344 124.721 23.3779C124.833 23.0166 124.89 22.5967 124.89 22.1182V21.9644C124.89 21.4956 124.833 21.083 124.721 20.7266C124.609 20.3652 124.433 20.0845 124.194 19.8843C123.959 19.6792 123.654 19.5767 123.278 19.5767C122.912 19.5767 122.609 19.6792 122.37 19.8843C122.131 20.0845 121.955 20.3652 121.843 20.7266C121.735 21.083 121.682 21.4956 121.682 21.9644V22.1182C121.682 22.5967 121.735 23.0166 121.843 23.3779C121.955 23.7393 122.131 24.02 122.37 24.2202C122.609 24.4155 122.917 24.5132 123.293 24.5132ZM127.9 26V24.7183L128.925 24.4985V19.584L127.79 19.3643V18.0752H130.917L131.013 19.2104C131.276 18.8052 131.601 18.4902 131.987 18.2656C132.377 18.041 132.822 17.9287 133.32 17.9287C134.106 17.9287 134.721 18.1802 135.165 18.6831C135.61 19.186 135.832 19.9746 135.832 21.0488V24.4985L136.857 24.7183V26H132.77V24.7183L133.686 24.4985V21.0562C133.686 20.5239 133.581 20.1479 133.371 19.9282C133.161 19.7036 132.849 19.5913 132.433 19.5913C132.126 19.5913 131.857 19.6572 131.628 19.7891C131.403 19.916 131.215 20.0991 131.064 20.3384V24.4985L131.928 24.7183V26H127.9ZM144.636 26.1538C144.045 26.1538 143.493 26.0977 142.98 25.9854C142.473 25.873 141.984 25.7119 141.516 25.502L141.494 23.2607H142.98L143.266 24.4033C143.432 24.4863 143.613 24.5522 143.808 24.6011C144.008 24.6499 144.235 24.6743 144.489 24.6743C144.968 24.6743 145.305 24.5962 145.5 24.4399C145.695 24.2837 145.793 24.0884 145.793 23.854C145.793 23.6343 145.688 23.4414 145.478 23.2754C145.273 23.1045 144.86 22.9556 144.24 22.8286C143.303 22.6333 142.612 22.3306 142.167 21.9204C141.723 21.5103 141.501 20.9854 141.501 20.3457C141.501 19.9062 141.611 19.5059 141.83 19.1445C142.055 18.7832 142.394 18.4927 142.849 18.2729C143.308 18.0532 143.893 17.9434 144.606 17.9434C145.202 17.9434 145.746 18.002 146.24 18.1191C146.738 18.2314 147.155 18.3804 147.492 18.5659L147.514 20.7339H146.035L145.808 19.6938C145.676 19.5962 145.519 19.5229 145.339 19.4741C145.163 19.4253 144.963 19.4009 144.738 19.4009C144.362 19.4009 144.074 19.4766 143.874 19.6279C143.674 19.7793 143.574 19.9746 143.574 20.2139C143.574 20.3506 143.608 20.4775 143.676 20.5947C143.749 20.7119 143.891 20.8218 144.101 20.9243C144.311 21.0269 144.616 21.1245 145.016 21.2173C145.998 21.4419 146.713 21.7422 147.162 22.1182C147.612 22.4893 147.836 23.0117 147.836 23.6855C147.836 24.4229 147.568 25.0186 147.031 25.4727C146.498 25.9268 145.7 26.1538 144.636 26.1538ZM148.759 29.0469V27.7578L149.792 27.5381V19.584L148.649 19.3643V18.0752H151.755L151.857 18.998C152.092 18.6562 152.375 18.3926 152.707 18.207C153.039 18.0215 153.434 17.9287 153.893 17.9287C154.533 17.9287 155.08 18.1045 155.534 18.4561C155.988 18.8027 156.335 19.2886 156.574 19.9136C156.818 20.5386 156.94 21.2686 156.94 22.1035V22.2573C156.94 23.0386 156.818 23.7222 156.574 24.3081C156.335 24.8892 155.986 25.3433 155.527 25.6704C155.073 25.9927 154.523 26.1538 153.879 26.1538C153.454 26.1538 153.078 26.0781 152.751 25.9268C152.429 25.7705 152.153 25.5435 151.923 25.2456V27.5381L152.956 27.7578V29.0469H148.759ZM153.242 24.5132C153.788 24.5132 154.184 24.3105 154.428 23.9053C154.677 23.5 154.802 22.9507 154.802 22.2573V22.1035C154.802 21.6006 154.745 21.1636 154.633 20.7925C154.521 20.4165 154.348 20.1235 154.113 19.9136C153.884 19.6987 153.588 19.5913 153.227 19.5913C152.934 19.5913 152.675 19.6572 152.451 19.7891C152.231 19.9209 152.055 20.1089 151.923 20.353V23.8247C152.055 24.0493 152.231 24.2202 152.451 24.3374C152.675 24.4546 152.939 24.5132 153.242 24.5132ZM161.774 26.1538C160.993 26.1538 160.322 25.9829 159.76 25.6411C159.199 25.2993 158.769 24.8257 158.471 24.2202C158.173 23.6099 158.024 22.9092 158.024 22.1182V21.9644C158.024 21.1782 158.173 20.4824 158.471 19.877C158.769 19.2666 159.196 18.7905 159.753 18.4487C160.314 18.1021 160.983 17.9287 161.76 17.9287C162.546 17.9287 163.217 18.1021 163.774 18.4487C164.33 18.7905 164.758 19.2642 165.056 19.8696C165.353 20.4751 165.502 21.1733 165.502 21.9644V22.1182C165.502 22.9092 165.353 23.6099 165.056 24.2202C164.758 24.8257 164.33 25.2993 163.774 25.6411C163.217 25.9829 162.551 26.1538 161.774 26.1538ZM161.774 24.5132C162.145 24.5132 162.448 24.4131 162.683 24.2129C162.917 24.0127 163.09 23.7344 163.203 23.3779C163.315 23.0166 163.371 22.5967 163.371 22.1182V21.9644C163.371 21.4956 163.315 21.083 163.203 20.7266C163.09 20.3652 162.914 20.0845 162.675 19.8843C162.441 19.6792 162.136 19.5767 161.76 19.5767C161.393 19.5767 161.091 19.6792 160.851 19.8843C160.612 20.0845 160.436 20.3652 160.324 20.7266C160.217 21.083 160.163 21.4956 160.163 21.9644V22.1182C160.163 22.5967 160.217 23.0166 160.324 23.3779C160.436 23.7393 160.612 24.02 160.851 24.2202C161.091 24.4155 161.398 24.5132 161.774 24.5132ZM169.516 26.1538C168.779 26.1538 168.21 25.9512 167.809 25.5459C167.414 25.1406 167.216 24.4985 167.216 23.6196V19.5767H166.125V18.0752H167.216V16.1343H169.348V18.0752H170.805V19.5767H169.348V23.6123C169.348 23.9199 169.411 24.1396 169.538 24.2715C169.67 24.4033 169.848 24.4692 170.073 24.4692C170.195 24.4692 170.322 24.4619 170.454 24.4473C170.59 24.4277 170.707 24.4082 170.805 24.3887L170.988 25.9341C170.768 25.9976 170.529 26.0488 170.27 26.0879C170.016 26.1318 169.765 26.1538 169.516 26.1538ZM171.904 26V24.7183L172.936 24.4985V19.584L171.794 19.3643V18.0752H175.075V24.4985L176.1 24.7183V26H171.904ZM172.863 16.3979V14.5742H175.075V16.3979H172.863ZM176.935 26V24.7183L177.968 24.4985V19.5767H176.789V18.0752H177.968V17.1963C177.968 16.3076 178.222 15.624 178.73 15.1455C179.243 14.6621 179.958 14.4204 180.876 14.4204C181.105 14.4204 181.347 14.4399 181.601 14.479C181.855 14.5132 182.072 14.5547 182.253 14.6035L182.07 16.1929C181.953 16.1587 181.818 16.1343 181.667 16.1196C181.516 16.1001 181.362 16.0903 181.205 16.0903C180.834 16.0903 180.558 16.1855 180.378 16.376C180.197 16.5664 180.107 16.8398 180.107 17.1963V18.0752H181.901V19.5767H180.107V24.4985L181.506 24.7183V26H176.935ZM184.875 29.2007C184.689 29.2007 184.492 29.1836 184.282 29.1494C184.077 29.1201 183.881 29.0786 183.696 29.0249L183.937 27.4575C184.03 27.4771 184.133 27.4917 184.245 27.5015C184.357 27.5112 184.455 27.5161 184.538 27.5161C184.846 27.5161 185.112 27.4355 185.336 27.2744C185.561 27.1133 185.725 26.8813 185.827 26.5786L186.003 26.0879L183.351 19.5034L182.377 19.3643V18.0752H186.581V19.3643L185.615 19.5107L186.86 23.0044L187.014 23.4365H187.058L188.53 19.4961L187.585 19.3643V18.0752H191.503V19.3643L190.61 19.4888L187.585 27.1792C187.438 27.5454 187.25 27.8799 187.021 28.1826C186.796 28.4902 186.508 28.7368 186.157 28.9224C185.81 29.1079 185.383 29.2007 184.875 29.2007Z" fill="black"/>
</svg>
