<svg width="279" height="44" viewBox="0 0 279 44" fill="none" xmlns="http://www.w3.org/2000/svg">
<rect x="0.5" y="0.5" width="255" height="43" fill="#E5AD3F" stroke="black"/>
<path d="M65.7684 26.1538C65.0116 26.1538 64.35 25.9878 63.7836 25.6558C63.2172 25.3188 62.7777 24.8574 62.4652 24.2715C62.1576 23.6855 62.0038 23.0166 62.0038 22.2646V21.9717C62.0038 21.1855 62.1503 20.4897 62.4433 19.8843C62.7362 19.2739 63.1488 18.7954 63.681 18.4487C64.2182 18.0972 64.8505 17.9238 65.578 17.9287C66.2958 17.9287 66.8988 18.0703 67.3871 18.3535C67.8754 18.6367 68.2465 19.0444 68.5004 19.5767C68.7543 20.1089 68.8812 20.7534 68.8812 21.5103V22.6748H64.223L64.2084 22.7188C64.2377 23.0654 64.3231 23.3755 64.4647 23.6489C64.6112 23.9175 64.8163 24.1299 65.08 24.2861C65.3436 24.4375 65.6635 24.5132 66.0394 24.5132C66.4301 24.5132 66.7938 24.4644 67.1308 24.3667C67.4725 24.2642 67.8046 24.1152 68.1268 23.9199L68.7055 25.2383C68.3783 25.502 67.9657 25.7217 67.4677 25.8975C66.9745 26.0684 66.4081 26.1538 65.7684 26.1538ZM64.2377 21.2612H66.8817V21.0708C66.8817 20.7485 66.8378 20.4727 66.7499 20.2432C66.6669 20.0088 66.5302 19.8281 66.3397 19.7012C66.1542 19.5742 65.9125 19.5107 65.6146 19.5107C65.3314 19.5107 65.0922 19.5864 64.8969 19.7378C64.7016 19.8843 64.5477 20.0869 64.4354 20.3457C64.328 20.6045 64.2548 20.8975 64.2157 21.2246L64.2377 21.2612ZM64.2597 16.5737L65.7172 14.5742H67.9804L67.995 14.6182L65.9735 16.5737H64.3183H64.2597ZM73.598 26.1538C72.8363 26.1538 72.1771 25.9829 71.6205 25.6411C71.0687 25.2993 70.6439 24.8281 70.3461 24.2275C70.0482 23.6221 69.8993 22.9312 69.8993 22.1548V21.9351C69.8993 21.1538 70.0507 20.4629 70.3534 19.8623C70.6561 19.2617 71.0834 18.7905 71.6351 18.4487C72.1869 18.1021 72.8363 17.9287 73.5834 17.9287C74.2963 17.9287 74.9091 18.041 75.4218 18.2656C75.9393 18.4854 76.3593 18.7417 76.6815 19.0347L76.6669 21.3052H75.0556L74.7699 19.8916C74.6527 19.7744 74.5038 19.6792 74.3231 19.606C74.1425 19.5327 73.9594 19.4961 73.7738 19.4961C73.3832 19.4961 73.0585 19.5938 72.7997 19.7891C72.5458 19.9844 72.3554 20.2627 72.2284 20.624C72.1015 20.9854 72.038 21.4224 72.038 21.9351V22.1548C72.038 22.6968 72.1088 23.1436 72.2504 23.4951C72.392 23.8418 72.58 24.0981 72.8143 24.2642C73.0536 24.4302 73.3197 24.5132 73.6127 24.5132C73.9887 24.5132 74.289 24.4155 74.5136 24.2202C74.7431 24.02 74.8993 23.7393 74.9823 23.3779H76.8134L76.8353 23.4219C76.7523 23.9834 76.5863 24.4692 76.3373 24.8794C76.0932 25.2896 75.7465 25.6045 75.2973 25.8242C74.8529 26.0439 74.2865 26.1538 73.598 26.1538ZM81.5741 26.1538C80.7929 26.1538 80.1215 25.9829 79.56 25.6411C78.9984 25.2993 78.5687 24.8257 78.2709 24.2202C77.973 23.6099 77.8241 22.9092 77.8241 22.1182V21.9644C77.8241 21.1782 77.973 20.4824 78.2709 19.877C78.5687 19.2666 78.996 18.7905 79.5526 18.4487C80.1142 18.1021 80.7831 17.9287 81.5595 17.9287C82.3456 17.9287 83.017 18.1021 83.5736 18.4487C84.1303 18.7905 84.5575 19.2642 84.8554 19.8696C85.1532 20.4751 85.3021 21.1733 85.3021 21.9644V22.1182C85.3021 22.9092 85.1532 23.6099 84.8554 24.2202C84.5575 24.8257 84.1303 25.2993 83.5736 25.6411C83.017 25.9829 82.3505 26.1538 81.5741 26.1538ZM81.5741 24.5132C81.9452 24.5132 82.2479 24.4131 82.4823 24.2129C82.7167 24.0127 82.89 23.7344 83.0023 23.3779C83.1146 23.0166 83.1708 22.5967 83.1708 22.1182V21.9644C83.1708 21.4956 83.1146 21.083 83.0023 20.7266C82.89 20.3652 82.7142 20.0845 82.475 19.8843C82.2406 19.6792 81.9354 19.5767 81.5595 19.5767C81.1933 19.5767 80.8905 19.6792 80.6513 19.8843C80.412 20.0845 80.2362 20.3652 80.1239 20.7266C80.0165 21.083 79.9628 21.4956 79.9628 21.9644V22.1182C79.9628 22.5967 80.0165 23.0166 80.1239 23.3779C80.2362 23.7393 80.412 24.02 80.6513 24.2202C80.8905 24.4155 81.1981 24.5132 81.5741 24.5132ZM89.6234 26.1538C88.7885 26.1538 88.1317 25.8901 87.6532 25.3628C87.1796 24.8306 86.9428 24.0054 86.9428 22.8872V19.584L86.0712 19.3643V18.0752H86.9428H89.0814V22.9019C89.0814 23.4683 89.1791 23.876 89.3744 24.125C89.5746 24.3691 89.8749 24.4912 90.2753 24.4912C90.5927 24.4912 90.8734 24.4302 91.1176 24.3081C91.3617 24.1812 91.5619 24.0029 91.7182 23.7734V19.584L90.7733 19.3643V18.0752H91.7182H93.8568V24.4985L94.809 24.7183V26H91.9818L91.8353 24.9966C91.5863 25.3677 91.2738 25.6533 90.8978 25.8535C90.5219 26.0537 90.0971 26.1538 89.6234 26.1538ZM98.7201 26.1538C97.9828 26.1538 97.414 25.9512 97.0136 25.5459C96.6181 25.1406 96.4203 24.4985 96.4203 23.6196V19.5767H95.329V18.0752H96.4203V16.1343H98.5517V18.0752H100.009V19.5767H98.5517V23.6123C98.5517 23.9199 98.6151 24.1396 98.7421 24.2715C98.8739 24.4033 99.0521 24.4692 99.2767 24.4692C99.3988 24.4692 99.5258 24.4619 99.6576 24.4473C99.7943 24.4277 99.9115 24.4082 100.009 24.3887L100.192 25.9341C99.9725 25.9976 99.7333 26.0488 99.4745 26.0879C99.2206 26.1318 98.9691 26.1538 98.7201 26.1538ZM104.616 26.1538C103.859 26.1538 103.198 25.9878 102.631 25.6558C102.065 25.3188 101.625 24.8574 101.313 24.2715C101.005 23.6855 100.851 23.0166 100.851 22.2646V21.9717C100.851 21.1855 100.998 20.4897 101.291 19.8843C101.584 19.2739 101.996 18.7954 102.529 18.4487C103.066 18.0972 103.698 17.9238 104.426 17.9287C105.143 17.9287 105.746 18.0703 106.235 18.3535C106.723 18.6367 107.094 19.0444 107.348 19.5767C107.602 20.1089 107.729 20.7534 107.729 21.5103V22.6748H103.071L103.056 22.7188C103.085 23.0654 103.171 23.3755 103.312 23.6489C103.459 23.9175 103.664 24.1299 103.928 24.2861C104.191 24.4375 104.511 24.5132 104.887 24.5132C105.278 24.5132 105.641 24.4644 105.978 24.3667C106.32 24.2642 106.652 24.1152 106.975 23.9199L107.553 25.2383C107.226 25.502 106.813 25.7217 106.315 25.8975C105.822 26.0684 105.256 26.1538 104.616 26.1538ZM103.085 21.2612H105.729V21.0708C105.729 20.7485 105.685 20.4727 105.598 20.2432C105.515 20.0088 105.378 19.8281 105.187 19.7012C105.002 19.5742 104.76 19.5107 104.462 19.5107C104.179 19.5107 103.94 19.5864 103.745 19.7378C103.549 19.8843 103.395 20.0869 103.283 20.3457C103.176 20.6045 103.102 20.8975 103.063 21.2246L103.085 21.2612ZM108.901 26V24.7402L113.024 19.5693H110.886L110.644 20.9243H109.077V18.0752H115.588V19.4448L111.699 24.4692H113.94L114.255 23.0117H115.756V26H108.901ZM123.908 26.1538C123.317 26.1538 122.766 26.0977 122.253 25.9854C121.745 25.873 121.257 25.7119 120.788 25.502L120.766 23.2607H122.253L122.538 24.4033C122.704 24.4863 122.885 24.5522 123.08 24.6011C123.281 24.6499 123.508 24.6743 123.762 24.6743C124.24 24.6743 124.577 24.5962 124.772 24.4399C124.968 24.2837 125.065 24.0884 125.065 23.854C125.065 23.6343 124.96 23.4414 124.75 23.2754C124.545 23.1045 124.133 22.9556 123.513 22.8286C122.575 22.6333 121.884 22.3306 121.44 21.9204C120.995 21.5103 120.773 20.9854 120.773 20.3457C120.773 19.9062 120.883 19.5059 121.103 19.1445C121.328 18.7832 121.667 18.4927 122.121 18.2729C122.58 18.0532 123.166 17.9434 123.879 17.9434C124.475 17.9434 125.019 18.002 125.512 18.1191C126.01 18.2314 126.428 18.3804 126.765 18.5659L126.787 20.7339H125.307L125.08 19.6938C124.948 19.5962 124.792 19.5229 124.611 19.4741C124.435 19.4253 124.235 19.4009 124.011 19.4009C123.635 19.4009 123.347 19.4766 123.146 19.6279C122.946 19.7793 122.846 19.9746 122.846 20.2139C122.846 20.3506 122.88 20.4775 122.949 20.5947C123.022 20.7119 123.163 20.8218 123.373 20.9243C123.583 21.0269 123.889 21.1245 124.289 21.2173C125.27 21.4419 125.986 21.7422 126.435 22.1182C126.884 22.4893 127.109 23.0117 127.109 23.6855C127.109 24.4229 126.84 25.0186 126.303 25.4727C125.771 25.9268 124.973 26.1538 123.908 26.1538ZM131.445 26.1538C130.61 26.1538 129.953 25.8901 129.475 25.3628C129.001 24.8306 128.764 24.0054 128.764 22.8872V19.584L127.892 19.3643V18.0752H128.764H130.903V22.9019C130.903 23.4683 131 23.876 131.196 24.125C131.396 24.3691 131.696 24.4912 132.097 24.4912C132.414 24.4912 132.695 24.4302 132.939 24.3081C133.183 24.1812 133.383 24.0029 133.539 23.7734V19.584L132.595 19.3643V18.0752H133.539H135.678V24.4985L136.63 24.7183V26H133.803L133.657 24.9966C133.408 25.3677 133.095 25.6533 132.719 25.8535C132.343 26.0537 131.918 26.1538 131.445 26.1538ZM137.59 26V24.7183L138.615 24.4985V19.584L137.48 19.3643V18.0752H140.607L140.688 19.0566L140.703 19.2324C140.898 18.8027 141.14 18.478 141.428 18.2583C141.716 18.0386 142.06 17.9287 142.46 17.9287C142.587 17.9287 142.726 17.9409 142.878 17.9653C143.029 17.9849 143.163 18.0117 143.281 18.0459L143.054 20.0161L141.992 19.9575C141.689 19.9429 141.442 19.9941 141.252 20.1113C141.066 20.2285 140.9 20.397 140.754 20.6167V24.4985L141.779 24.7183V26H137.59ZM149.792 29.2007C149.606 29.2007 149.409 29.1836 149.199 29.1494C148.994 29.1201 148.798 29.0786 148.613 29.0249L148.854 27.4575C148.947 27.4771 149.05 27.4917 149.162 27.5015C149.274 27.5112 149.372 27.5161 149.455 27.5161C149.763 27.5161 150.029 27.4355 150.253 27.2744C150.478 27.1133 150.641 26.8813 150.744 26.5786L150.92 26.0879L148.268 19.5034L147.294 19.3643V18.0752H151.498V19.3643L150.532 19.5107L151.777 23.0044L151.931 23.4365H151.975L153.447 19.4961L152.502 19.3643V18.0752H156.42V19.3643L155.527 19.4888L152.502 27.1792C152.355 27.5454 152.167 27.8799 151.938 28.1826C151.713 28.4902 151.425 28.7368 151.074 28.9224C150.727 29.1079 150.3 29.2007 149.792 29.2007ZM160.632 26.1538C159.85 26.1538 159.179 25.9829 158.618 25.6411C158.056 25.2993 157.626 24.8257 157.329 24.2202C157.031 23.6099 156.882 22.9092 156.882 22.1182V21.9644C156.882 21.1782 157.031 20.4824 157.329 19.877C157.626 19.2666 158.054 18.7905 158.61 18.4487C159.172 18.1021 159.841 17.9287 160.617 17.9287C161.403 17.9287 162.075 18.1021 162.631 18.4487C163.188 18.7905 163.615 19.2642 163.913 19.8696C164.211 20.4751 164.36 21.1733 164.36 21.9644V22.1182C164.36 22.9092 164.211 23.6099 163.913 24.2202C163.615 24.8257 163.188 25.2993 162.631 25.6411C162.075 25.9829 161.408 26.1538 160.632 26.1538ZM160.632 24.5132C161.003 24.5132 161.306 24.4131 161.54 24.2129C161.774 24.0127 161.948 23.7344 162.06 23.3779C162.172 23.0166 162.228 22.5967 162.228 22.1182V21.9644C162.228 21.4956 162.172 21.083 162.06 20.7266C161.948 20.3652 161.772 20.0845 161.533 19.8843C161.298 19.6792 160.993 19.5767 160.617 19.5767C160.251 19.5767 159.948 19.6792 159.709 19.8843C159.47 20.0845 159.294 20.3652 159.182 20.7266C159.074 21.083 159.02 21.4956 159.02 21.9644V22.1182C159.02 22.5967 159.074 23.0166 159.182 23.3779C159.294 23.7393 159.47 24.02 159.709 24.2202C159.948 24.4155 160.256 24.5132 160.632 24.5132ZM168.681 26.1538C167.846 26.1538 167.189 25.8901 166.711 25.3628C166.237 24.8306 166 24.0054 166 22.8872V19.584L165.129 19.3643V18.0752H166H168.139V22.9019C168.139 23.4683 168.237 23.876 168.432 24.125C168.632 24.3691 168.933 24.4912 169.333 24.4912C169.65 24.4912 169.931 24.4302 170.175 24.3081C170.419 24.1812 170.62 24.0029 170.776 23.7734V19.584L169.831 19.3643V18.0752H170.776H172.914V24.4985L173.867 24.7183V26H171.039L170.893 24.9966C170.644 25.3677 170.331 25.6533 169.955 25.8535C169.579 26.0537 169.155 26.1538 168.681 26.1538ZM177.778 26.1538C177.04 26.1538 176.472 25.9512 176.071 25.5459C175.676 25.1406 175.478 24.4985 175.478 23.6196V19.5767H174.387V18.0752H175.478V16.1343H177.609V18.0752H179.067V19.5767H177.609V23.6123C177.609 23.9199 177.673 24.1396 177.8 24.2715C177.932 24.4033 178.11 24.4692 178.334 24.4692C178.456 24.4692 178.583 24.4619 178.715 24.4473C178.852 24.4277 178.969 24.4082 179.067 24.3887L179.25 25.9341C179.03 25.9976 178.791 26.0488 178.532 26.0879C178.278 26.1318 178.027 26.1538 177.778 26.1538ZM183.417 26.1538C182.582 26.1538 181.926 25.8901 181.447 25.3628C180.974 24.8306 180.737 24.0054 180.737 22.8872V19.584L179.865 19.3643V18.0752H180.737H182.875V22.9019C182.875 23.4683 182.973 23.876 183.168 24.125C183.369 24.3691 183.669 24.4912 184.069 24.4912C184.387 24.4912 184.667 24.4302 184.912 24.3081C185.156 24.1812 185.356 24.0029 185.512 23.7734V19.584L184.567 19.3643V18.0752H185.512H187.651V24.4985L188.603 24.7183V26H185.776L185.629 24.9966C185.38 25.3677 185.068 25.6533 184.692 25.8535C184.316 26.0537 183.891 26.1538 183.417 26.1538ZM194.045 26.1538C193.552 26.1538 193.132 26.0586 192.785 25.8682C192.438 25.6729 192.148 25.3921 191.913 25.0259L191.76 26H189.914V16.083L188.779 15.8633V14.5742H192.045V18.9175C192.275 18.6001 192.556 18.356 192.888 18.1851C193.225 18.0142 193.615 17.9287 194.059 17.9287C194.699 17.9287 195.241 18.1021 195.685 18.4487C196.135 18.7905 196.476 19.2739 196.711 19.8989C196.945 20.5239 197.062 21.2588 197.062 22.1035V22.2573C197.062 23.0435 196.945 23.7295 196.711 24.3154C196.476 24.8965 196.135 25.3481 195.685 25.6704C195.236 25.9927 194.689 26.1538 194.045 26.1538ZM193.393 24.4912C193.94 24.4912 194.333 24.2983 194.572 23.9126C194.811 23.522 194.931 22.9702 194.931 22.2573V22.1035C194.931 21.5859 194.877 21.1416 194.77 20.7705C194.667 20.3945 194.504 20.104 194.279 19.8989C194.059 19.6938 193.771 19.5913 193.415 19.5913C193.093 19.5913 192.817 19.667 192.587 19.8184C192.358 19.9697 192.177 20.1748 192.045 20.4336V23.7441C192.192 23.9883 192.377 24.1738 192.602 24.3008C192.831 24.4277 193.095 24.4912 193.393 24.4912ZM201.955 26.1538C201.198 26.1538 200.537 25.9878 199.97 25.6558C199.404 25.3188 198.964 24.8574 198.652 24.2715C198.344 23.6855 198.19 23.0166 198.19 22.2646V21.9717C198.19 21.1855 198.337 20.4897 198.63 19.8843C198.923 19.2739 199.335 18.7954 199.868 18.4487C200.405 18.0972 201.037 17.9238 201.765 17.9287C202.482 17.9287 203.085 18.0703 203.574 18.3535C204.062 18.6367 204.433 19.0444 204.687 19.5767C204.941 20.1089 205.068 20.7534 205.068 21.5103V22.6748H200.41L200.395 22.7188C200.424 23.0654 200.51 23.3755 200.651 23.6489C200.798 23.9175 201.003 24.1299 201.266 24.2861C201.53 24.4375 201.85 24.5132 202.226 24.5132C202.617 24.5132 202.98 24.4644 203.317 24.3667C203.659 24.2642 203.991 24.1152 204.313 23.9199L204.892 25.2383C204.565 25.502 204.152 25.7217 203.654 25.8975C203.161 26.0684 202.595 26.1538 201.955 26.1538ZM200.424 21.2612H203.068V21.0708C203.068 20.7485 203.024 20.4727 202.936 20.2432C202.853 20.0088 202.717 19.8281 202.526 19.7012C202.341 19.5742 202.099 19.5107 201.801 19.5107C201.518 19.5107 201.279 19.5864 201.083 19.7378C200.888 19.8843 200.734 20.0869 200.622 20.3457C200.515 20.6045 200.441 20.8975 200.402 21.2246L200.424 21.2612Z" fill="black"/>
</svg>
