<svg width="256" height="44" viewBox="0 0 256 44" fill="none" xmlns="http://www.w3.org/2000/svg">
<rect x="0.5" y="0.5" width="255" height="43" fill="#E5AD3F" stroke="black"/>
<path d="M60.2144 26.1538C59.4575 26.1538 58.7959 25.9878 58.2295 25.6558C57.6631 25.3188 57.2236 24.8574 56.9111 24.2715C56.6035 23.6855 56.4497 23.0166 56.4497 22.2646V21.9717C56.4497 21.1855 56.5962 20.4897 56.8892 19.8843C57.1821 19.2739 57.5947 18.7954 58.127 18.4487C58.6641 18.0972 59.2964 17.9238 60.0239 17.9287C60.7417 17.9287 61.3447 18.0703 61.833 18.3535C62.3213 18.6367 62.6924 19.0444 62.9463 19.5767C63.2002 20.1089 63.3271 20.7534 63.3271 21.5103V22.6748H58.6689L58.6543 22.7188C58.6836 23.0654 58.769 23.3755 58.9106 23.6489C59.0571 23.9175 59.2622 24.1299 59.5259 24.2861C59.7896 24.4375 60.1094 24.5132 60.4854 24.5132C60.876 24.5132 61.2397 24.4644 61.5767 24.3667C61.9185 24.2642 62.2505 24.1152 62.5728 23.9199L63.1514 25.2383C62.8242 25.502 62.4116 25.7217 61.9136 25.8975C61.4204 26.0684 60.854 26.1538 60.2144 26.1538ZM58.6836 21.2612H61.3276V21.0708C61.3276 20.7485 61.2837 20.4727 61.1958 20.2432C61.1128 20.0088 60.9761 19.8281 60.7856 19.7012C60.6001 19.5742 60.3584 19.5107 60.0605 19.5107C59.7773 19.5107 59.5381 19.5864 59.3428 19.7378C59.1475 19.8843 58.9937 20.0869 58.8813 20.3457C58.7739 20.6045 58.7007 20.8975 58.6616 21.2246L58.6836 21.2612ZM58.7056 16.5737L60.1631 14.5742H62.4263L62.4409 14.6182L60.4194 16.5737H58.7642H58.7056ZM68.0439 26.1538C67.2822 26.1538 66.623 25.9829 66.0664 25.6411C65.5146 25.2993 65.0898 24.8281 64.792 24.2275C64.4941 23.6221 64.3452 22.9312 64.3452 22.1548V21.9351C64.3452 21.1538 64.4966 20.4629 64.7993 19.8623C65.1021 19.2617 65.5293 18.7905 66.0811 18.4487C66.6328 18.1021 67.2822 17.9287 68.0293 17.9287C68.7422 17.9287 69.355 18.041 69.8677 18.2656C70.3853 18.4854 70.8052 18.7417 71.1274 19.0347L71.1128 21.3052H69.5015L69.2158 19.8916C69.0986 19.7744 68.9497 19.6792 68.769 19.606C68.5884 19.5327 68.4053 19.4961 68.2197 19.4961C67.8291 19.4961 67.5044 19.5938 67.2456 19.7891C66.9917 19.9844 66.8013 20.2627 66.6743 20.624C66.5474 20.9854 66.4839 21.4224 66.4839 21.9351V22.1548C66.4839 22.6968 66.5547 23.1436 66.6963 23.4951C66.8379 23.8418 67.0259 24.0981 67.2603 24.2642C67.4995 24.4302 67.7656 24.5132 68.0586 24.5132C68.4346 24.5132 68.7349 24.4155 68.9595 24.2202C69.189 24.02 69.3452 23.7393 69.4282 23.3779H71.2593L71.2812 23.4219C71.1982 23.9834 71.0322 24.4692 70.7832 24.8794C70.5391 25.2896 70.1924 25.6045 69.7432 25.8242C69.2988 26.0439 68.7324 26.1538 68.0439 26.1538ZM76.02 26.1538C75.2388 26.1538 74.5674 25.9829 74.0059 25.6411C73.4443 25.2993 73.0146 24.8257 72.7168 24.2202C72.4189 23.6099 72.27 22.9092 72.27 22.1182V21.9644C72.27 21.1782 72.4189 20.4824 72.7168 19.877C73.0146 19.2666 73.4419 18.7905 73.9985 18.4487C74.5601 18.1021 75.229 17.9287 76.0054 17.9287C76.7915 17.9287 77.4629 18.1021 78.0195 18.4487C78.5762 18.7905 79.0034 19.2642 79.3013 19.8696C79.5991 20.4751 79.748 21.1733 79.748 21.9644V22.1182C79.748 22.9092 79.5991 23.6099 79.3013 24.2202C79.0034 24.8257 78.5762 25.2993 78.0195 25.6411C77.4629 25.9829 76.7964 26.1538 76.02 26.1538ZM76.02 24.5132C76.3911 24.5132 76.6938 24.4131 76.9282 24.2129C77.1626 24.0127 77.3359 23.7344 77.4482 23.3779C77.5605 23.0166 77.6167 22.5967 77.6167 22.1182V21.9644C77.6167 21.4956 77.5605 21.083 77.4482 20.7266C77.3359 20.3652 77.1602 20.0845 76.9209 19.8843C76.6865 19.6792 76.3813 19.5767 76.0054 19.5767C75.6392 19.5767 75.3364 19.6792 75.0972 19.8843C74.8579 20.0845 74.6821 20.3652 74.5698 20.7266C74.4624 21.083 74.4087 21.4956 74.4087 21.9644V22.1182C74.4087 22.5967 74.4624 23.0166 74.5698 23.3779C74.6821 23.7393 74.8579 24.02 75.0972 24.2202C75.3364 24.4155 75.644 24.5132 76.02 24.5132ZM84.0693 26.1538C83.2344 26.1538 82.5776 25.8901 82.0991 25.3628C81.6255 24.8306 81.3887 24.0054 81.3887 22.8872V19.584L80.5171 19.3643V18.0752H81.3887H83.5273V22.9019C83.5273 23.4683 83.625 23.876 83.8203 24.125C84.0205 24.3691 84.3208 24.4912 84.7212 24.4912C85.0386 24.4912 85.3193 24.4302 85.5635 24.3081C85.8076 24.1812 86.0078 24.0029 86.1641 23.7734V19.584L85.2192 19.3643V18.0752H86.1641H88.3027V24.4985L89.2549 24.7183V26H86.4277L86.2812 24.9966C86.0322 25.3677 85.7197 25.6533 85.3438 25.8535C84.9678 26.0537 84.543 26.1538 84.0693 26.1538ZM93.166 26.1538C92.4287 26.1538 91.8599 25.9512 91.4595 25.5459C91.064 25.1406 90.8662 24.4985 90.8662 23.6196V19.5767H89.7749V18.0752H90.8662V16.1343H92.9976V18.0752H94.4551V19.5767H92.9976V23.6123C92.9976 23.9199 93.061 24.1396 93.188 24.2715C93.3198 24.4033 93.498 24.4692 93.7227 24.4692C93.8447 24.4692 93.9717 24.4619 94.1035 24.4473C94.2402 24.4277 94.3574 24.4082 94.4551 24.3887L94.6382 25.9341C94.4185 25.9976 94.1792 26.0488 93.9204 26.0879C93.6665 26.1318 93.415 26.1538 93.166 26.1538ZM99.062 26.1538C98.3052 26.1538 97.6436 25.9878 97.0771 25.6558C96.5107 25.3188 96.0713 24.8574 95.7588 24.2715C95.4512 23.6855 95.2974 23.0166 95.2974 22.2646V21.9717C95.2974 21.1855 95.4438 20.4897 95.7368 19.8843C96.0298 19.2739 96.4424 18.7954 96.9746 18.4487C97.5117 18.0972 98.144 17.9238 98.8716 17.9287C99.5894 17.9287 100.192 18.0703 100.681 18.3535C101.169 18.6367 101.54 19.0444 101.794 19.5767C102.048 20.1089 102.175 20.7534 102.175 21.5103V22.6748H97.5166L97.502 22.7188C97.5312 23.0654 97.6167 23.3755 97.7583 23.6489C97.9048 23.9175 98.1099 24.1299 98.3735 24.2861C98.6372 24.4375 98.957 24.5132 99.333 24.5132C99.7236 24.5132 100.087 24.4644 100.424 24.3667C100.766 24.2642 101.098 24.1152 101.42 23.9199L101.999 25.2383C101.672 25.502 101.259 25.7217 100.761 25.8975C100.268 26.0684 99.7017 26.1538 99.062 26.1538ZM97.5312 21.2612H100.175V21.0708C100.175 20.7485 100.131 20.4727 100.043 20.2432C99.9604 20.0088 99.8237 19.8281 99.6333 19.7012C99.4478 19.5742 99.2061 19.5107 98.9082 19.5107C98.625 19.5107 98.3857 19.5864 98.1904 19.7378C97.9951 19.8843 97.8413 20.0869 97.729 20.3457C97.6216 20.6045 97.5483 20.8975 97.5093 21.2246L97.5312 21.2612ZM103.347 26V24.7402L107.47 19.5693H105.332L105.09 20.9243H103.522V18.0752H110.034V19.4448L106.145 24.4692H108.386L108.701 23.0117H110.202V26H103.347ZM118.354 26.1538C117.763 26.1538 117.211 26.0977 116.699 25.9854C116.191 25.873 115.703 25.7119 115.234 25.502L115.212 23.2607H116.699L116.984 24.4033C117.15 24.4863 117.331 24.5522 117.526 24.6011C117.727 24.6499 117.954 24.6743 118.208 24.6743C118.686 24.6743 119.023 24.5962 119.218 24.4399C119.414 24.2837 119.511 24.0884 119.511 23.854C119.511 23.6343 119.406 23.4414 119.196 23.2754C118.991 23.1045 118.579 22.9556 117.958 22.8286C117.021 22.6333 116.33 22.3306 115.886 21.9204C115.441 21.5103 115.219 20.9854 115.219 20.3457C115.219 19.9062 115.329 19.5059 115.549 19.1445C115.773 18.7832 116.113 18.4927 116.567 18.2729C117.026 18.0532 117.612 17.9434 118.325 17.9434C118.92 17.9434 119.465 18.002 119.958 18.1191C120.456 18.2314 120.874 18.3804 121.21 18.5659L121.232 20.7339H119.753L119.526 19.6938C119.394 19.5962 119.238 19.5229 119.057 19.4741C118.881 19.4253 118.681 19.4009 118.457 19.4009C118.081 19.4009 117.792 19.4766 117.592 19.6279C117.392 19.7793 117.292 19.9746 117.292 20.2139C117.292 20.3506 117.326 20.4775 117.395 20.5947C117.468 20.7119 117.609 20.8218 117.819 20.9243C118.029 21.0269 118.334 21.1245 118.735 21.2173C119.716 21.4419 120.432 21.7422 120.881 22.1182C121.33 22.4893 121.555 23.0117 121.555 23.6855C121.555 24.4229 121.286 25.0186 120.749 25.4727C120.217 25.9268 119.418 26.1538 118.354 26.1538ZM125.891 26.1538C125.056 26.1538 124.399 25.8901 123.92 25.3628C123.447 24.8306 123.21 24.0054 123.21 22.8872V19.584L122.338 19.3643V18.0752H123.21H125.349V22.9019C125.349 23.4683 125.446 23.876 125.642 24.125C125.842 24.3691 126.142 24.4912 126.542 24.4912C126.86 24.4912 127.141 24.4302 127.385 24.3081C127.629 24.1812 127.829 24.0029 127.985 23.7734V19.584L127.041 19.3643V18.0752H127.985H130.124V24.4985L131.076 24.7183V26H128.249L128.103 24.9966C127.854 25.3677 127.541 25.6533 127.165 25.8535C126.789 26.0537 126.364 26.1538 125.891 26.1538ZM132.036 26V24.7183L133.061 24.4985V19.584L131.926 19.3643V18.0752H135.053L135.134 19.0566L135.148 19.2324C135.344 18.8027 135.585 18.478 135.874 18.2583C136.162 18.0386 136.506 17.9287 136.906 17.9287C137.033 17.9287 137.172 17.9409 137.324 17.9653C137.475 17.9849 137.609 18.0117 137.727 18.0459L137.5 20.0161L136.438 19.9575C136.135 19.9429 135.888 19.9941 135.698 20.1113C135.512 20.2285 135.346 20.397 135.2 20.6167V24.4985L136.225 24.7183V26H132.036ZM144.238 29.2007C144.052 29.2007 143.854 29.1836 143.645 29.1494C143.439 29.1201 143.244 29.0786 143.059 29.0249L143.3 27.4575C143.393 27.4771 143.496 27.4917 143.608 27.5015C143.72 27.5112 143.818 27.5161 143.901 27.5161C144.208 27.5161 144.475 27.4355 144.699 27.2744C144.924 27.1133 145.087 26.8813 145.19 26.5786L145.366 26.0879L142.714 19.5034L141.74 19.3643V18.0752H145.944V19.3643L144.978 19.5107L146.223 23.0044L146.376 23.4365H146.42L147.893 19.4961L146.948 19.3643V18.0752H150.866V19.3643L149.973 19.4888L146.948 27.1792C146.801 27.5454 146.613 27.8799 146.384 28.1826C146.159 28.4902 145.871 28.7368 145.52 28.9224C145.173 29.1079 144.746 29.2007 144.238 29.2007ZM155.078 26.1538C154.296 26.1538 153.625 25.9829 153.063 25.6411C152.502 25.2993 152.072 24.8257 151.774 24.2202C151.477 23.6099 151.328 22.9092 151.328 22.1182V21.9644C151.328 21.1782 151.477 20.4824 151.774 19.877C152.072 19.2666 152.5 18.7905 153.056 18.4487C153.618 18.1021 154.287 17.9287 155.063 17.9287C155.849 17.9287 156.521 18.1021 157.077 18.4487C157.634 18.7905 158.061 19.2642 158.359 19.8696C158.657 20.4751 158.806 21.1733 158.806 21.9644V22.1182C158.806 22.9092 158.657 23.6099 158.359 24.2202C158.061 24.8257 157.634 25.2993 157.077 25.6411C156.521 25.9829 155.854 26.1538 155.078 26.1538ZM155.078 24.5132C155.449 24.5132 155.751 24.4131 155.986 24.2129C156.22 24.0127 156.394 23.7344 156.506 23.3779C156.618 23.0166 156.674 22.5967 156.674 22.1182V21.9644C156.674 21.4956 156.618 21.083 156.506 20.7266C156.394 20.3652 156.218 20.0845 155.979 19.8843C155.744 19.6792 155.439 19.5767 155.063 19.5767C154.697 19.5767 154.394 19.6792 154.155 19.8843C153.916 20.0845 153.74 20.3652 153.627 20.7266C153.52 21.083 153.466 21.4956 153.466 21.9644V22.1182C153.466 22.5967 153.52 23.0166 153.627 23.3779C153.74 23.7393 153.916 24.02 154.155 24.2202C154.394 24.4155 154.702 24.5132 155.078 24.5132ZM163.127 26.1538C162.292 26.1538 161.635 25.8901 161.157 25.3628C160.683 24.8306 160.446 24.0054 160.446 22.8872V19.584L159.575 19.3643V18.0752H160.446H162.585V22.9019C162.585 23.4683 162.683 23.876 162.878 24.125C163.078 24.3691 163.378 24.4912 163.779 24.4912C164.096 24.4912 164.377 24.4302 164.621 24.3081C164.865 24.1812 165.065 24.0029 165.222 23.7734V19.584L164.277 19.3643V18.0752H165.222H167.36V24.4985L168.312 24.7183V26H165.485L165.339 24.9966C165.09 25.3677 164.777 25.6533 164.401 25.8535C164.025 26.0537 163.601 26.1538 163.127 26.1538ZM172.224 26.1538C171.486 26.1538 170.917 25.9512 170.517 25.5459C170.122 25.1406 169.924 24.4985 169.924 23.6196V19.5767H168.833V18.0752H169.924V16.1343H172.055V18.0752H173.513V19.5767H172.055V23.6123C172.055 23.9199 172.119 24.1396 172.246 24.2715C172.377 24.4033 172.556 24.4692 172.78 24.4692C172.902 24.4692 173.029 24.4619 173.161 24.4473C173.298 24.4277 173.415 24.4082 173.513 24.3887L173.696 25.9341C173.476 25.9976 173.237 26.0488 172.978 26.0879C172.724 26.1318 172.473 26.1538 172.224 26.1538ZM177.863 26.1538C177.028 26.1538 176.372 25.8901 175.893 25.3628C175.419 24.8306 175.183 24.0054 175.183 22.8872V19.584L174.311 19.3643V18.0752H175.183H177.321V22.9019C177.321 23.4683 177.419 23.876 177.614 24.125C177.814 24.3691 178.115 24.4912 178.515 24.4912C178.833 24.4912 179.113 24.4302 179.357 24.3081C179.602 24.1812 179.802 24.0029 179.958 23.7734V19.584L179.013 19.3643V18.0752H179.958H182.097V24.4985L183.049 24.7183V26H180.222L180.075 24.9966C179.826 25.3677 179.514 25.6533 179.138 25.8535C178.762 26.0537 178.337 26.1538 177.863 26.1538ZM188.491 26.1538C187.998 26.1538 187.578 26.0586 187.231 25.8682C186.884 25.6729 186.594 25.3921 186.359 25.0259L186.206 26H184.36V16.083L183.225 15.8633V14.5742H186.491V18.9175C186.721 18.6001 187.001 18.356 187.333 18.1851C187.67 18.0142 188.061 17.9287 188.505 17.9287C189.145 17.9287 189.687 18.1021 190.131 18.4487C190.581 18.7905 190.922 19.2739 191.157 19.8989C191.391 20.5239 191.508 21.2588 191.508 22.1035V22.2573C191.508 23.0435 191.391 23.7295 191.157 24.3154C190.922 24.8965 190.581 25.3481 190.131 25.6704C189.682 25.9927 189.135 26.1538 188.491 26.1538ZM187.839 24.4912C188.386 24.4912 188.779 24.2983 189.018 23.9126C189.257 23.522 189.377 22.9702 189.377 22.2573V22.1035C189.377 21.5859 189.323 21.1416 189.216 20.7705C189.113 20.3945 188.95 20.104 188.725 19.8989C188.505 19.6938 188.217 19.5913 187.861 19.5913C187.539 19.5913 187.263 19.667 187.033 19.8184C186.804 19.9697 186.623 20.1748 186.491 20.4336V23.7441C186.638 23.9883 186.823 24.1738 187.048 24.3008C187.277 24.4277 187.541 24.4912 187.839 24.4912ZM196.401 26.1538C195.644 26.1538 194.982 25.9878 194.416 25.6558C193.85 25.3188 193.41 24.8574 193.098 24.2715C192.79 23.6855 192.636 23.0166 192.636 22.2646V21.9717C192.636 21.1855 192.783 20.4897 193.076 19.8843C193.369 19.2739 193.781 18.7954 194.313 18.4487C194.851 18.0972 195.483 17.9238 196.21 17.9287C196.928 17.9287 197.531 18.0703 198.02 18.3535C198.508 18.6367 198.879 19.0444 199.133 19.5767C199.387 20.1089 199.514 20.7534 199.514 21.5103V22.6748H194.855L194.841 22.7188C194.87 23.0654 194.956 23.3755 195.097 23.6489C195.244 23.9175 195.449 24.1299 195.712 24.2861C195.976 24.4375 196.296 24.5132 196.672 24.5132C197.062 24.5132 197.426 24.4644 197.763 24.3667C198.105 24.2642 198.437 24.1152 198.759 23.9199L199.338 25.2383C199.011 25.502 198.598 25.7217 198.1 25.8975C197.607 26.0684 197.041 26.1538 196.401 26.1538ZM194.87 21.2612H197.514V21.0708C197.514 20.7485 197.47 20.4727 197.382 20.2432C197.299 20.0088 197.163 19.8281 196.972 19.7012C196.787 19.5742 196.545 19.5107 196.247 19.5107C195.964 19.5107 195.725 19.5864 195.529 19.7378C195.334 19.8843 195.18 20.0869 195.068 20.3457C194.96 20.6045 194.887 20.8975 194.848 21.2246L194.87 21.2612Z" fill="black"/>
</svg>
