<svg width="279" height="44" viewBox="0 0 279 44" fill="none" xmlns="http://www.w3.org/2000/svg">
<rect x="0.5" y="0.5" width="255" height="43" fill="#E5AD3F" stroke="black"/>
<path d="M72.016 26V24.7183L73.0487 24.4985V16.083L71.9061 15.8633V14.5742H75.1874V24.4985L76.2201 24.7183V26H72.016ZM76.8573 26V24.7183L77.89 24.4985V19.584L76.7475 19.3643V18.0752H80.0287V24.4985L81.0541 24.7183V26H76.8573ZM77.8168 16.3979V14.5742H80.0287V16.3979H77.8168ZM85.1703 26.1538C84.5795 26.1538 84.0277 26.0977 83.515 25.9854C83.0072 25.873 82.5189 25.7119 82.0502 25.502L82.0282 23.2607H83.515L83.8007 24.4033C83.9667 24.4863 84.1474 24.5522 84.3427 24.6011C84.5429 24.6499 84.7699 24.6743 85.0238 24.6743C85.5023 24.6743 85.8392 24.5962 86.0346 24.4399C86.2299 24.2837 86.3275 24.0884 86.3275 23.854C86.3275 23.6343 86.2225 23.4414 86.0126 23.2754C85.8075 23.1045 85.3949 22.9556 84.7748 22.8286C83.8373 22.6333 83.1464 22.3306 82.702 21.9204C82.2577 21.5103 82.0355 20.9854 82.0355 20.3457C82.0355 19.9062 82.1454 19.5059 82.3651 19.1445C82.5897 18.7832 82.9291 18.4927 83.3832 18.2729C83.8422 18.0532 84.4281 17.9434 85.141 17.9434C85.7367 17.9434 86.2811 18.002 86.7743 18.1191C87.2724 18.2314 87.6898 18.3804 88.0267 18.5659L88.0487 20.7339H86.5692L86.3422 19.6938C86.2103 19.5962 86.0541 19.5229 85.8734 19.4741C85.6976 19.4253 85.4975 19.4009 85.2728 19.4009C84.8969 19.4009 84.6088 19.4766 84.4086 19.6279C84.2084 19.7793 84.1083 19.9746 84.1083 20.2139C84.1083 20.3506 84.1425 20.4775 84.2108 20.5947C84.2841 20.7119 84.4257 20.8218 84.6356 20.9243C84.8456 21.0269 85.1508 21.1245 85.5512 21.2173C86.5326 21.4419 87.2479 21.7422 87.6972 22.1182C88.1464 22.4893 88.371 23.0117 88.371 23.6855C88.371 24.4229 88.1024 25.0186 87.5653 25.4727C87.0331 25.9268 86.2348 26.1538 85.1703 26.1538ZM92.4579 26.1538C91.7206 26.1538 91.1517 25.9512 90.7514 25.5459C90.3559 25.1406 90.1581 24.4985 90.1581 23.6196V19.5767H89.0668V18.0752H90.1581V16.1343H92.2894V18.0752H93.747V19.5767H92.2894V23.6123C92.2894 23.9199 92.3529 24.1396 92.4799 24.2715C92.6117 24.4033 92.7899 24.4692 93.0145 24.4692C93.1366 24.4692 93.2636 24.4619 93.3954 24.4473C93.5321 24.4277 93.6493 24.4082 93.747 24.3887L93.9301 25.9341C93.7103 25.9976 93.4711 26.0488 93.2123 26.0879C92.9584 26.1318 92.7069 26.1538 92.4579 26.1538ZM98.3539 26.1538C97.5971 26.1538 96.9354 25.9878 96.369 25.6558C95.8026 25.3188 95.3632 24.8574 95.0507 24.2715C94.7431 23.6855 94.5892 23.0166 94.5892 22.2646V21.9717C94.5892 21.1855 94.7357 20.4897 95.0287 19.8843C95.3217 19.2739 95.7343 18.7954 96.2665 18.4487C96.8036 18.0972 97.4359 17.9238 98.1635 17.9287C98.8812 17.9287 99.4843 18.0703 99.9725 18.3535C100.461 18.6367 100.832 19.0444 101.086 19.5767C101.34 20.1089 101.467 20.7534 101.467 21.5103V22.6748H96.8085L96.7938 22.7188C96.8231 23.0654 96.9086 23.3755 97.0502 23.6489C97.1967 23.9175 97.4017 24.1299 97.6654 24.2861C97.9291 24.4375 98.2489 24.5132 98.6249 24.5132C99.0155 24.5132 99.3793 24.4644 99.7162 24.3667C100.058 24.2642 100.39 24.1152 100.712 23.9199L101.291 25.2383C100.964 25.502 100.551 25.7217 100.053 25.8975C99.56 26.0684 98.9935 26.1538 98.3539 26.1538ZM96.8231 21.2612H99.4672V21.0708C99.4672 20.7485 99.4232 20.4727 99.3353 20.2432C99.2523 20.0088 99.1156 19.8281 98.9252 19.7012C98.7396 19.5742 98.4979 19.5107 98.2001 19.5107C97.9169 19.5107 97.6776 19.5864 97.4823 19.7378C97.287 19.8843 97.1332 20.0869 97.0209 20.3457C96.9135 20.6045 96.8402 20.8975 96.8012 21.2246L96.8231 21.2612ZM102.375 26V24.7183L103.4 24.4985V19.584L102.265 19.3643V18.0752H105.392L105.488 19.2104C105.751 18.8052 106.076 18.4902 106.462 18.2656C106.852 18.041 107.297 17.9287 107.795 17.9287C108.581 17.9287 109.196 18.1802 109.641 18.6831C110.085 19.186 110.307 19.9746 110.307 21.0488V24.4985L111.332 24.7183V26H107.245V24.7183L108.161 24.4985V21.0562C108.161 20.5239 108.056 20.1479 107.846 19.9282C107.636 19.7036 107.324 19.5913 106.909 19.5913C106.601 19.5913 106.332 19.6572 106.103 19.7891C105.878 19.916 105.69 20.0991 105.539 20.3384V24.4985L106.403 24.7183V26H102.375ZM119.492 26.1538C118.71 26.1538 118.039 25.9829 117.477 25.6411C116.916 25.2993 116.486 24.8257 116.188 24.2202C115.891 23.6099 115.742 22.9092 115.742 22.1182V21.9644C115.742 21.1782 115.891 20.4824 116.188 19.877C116.486 19.2666 116.913 18.7905 117.47 18.4487C118.032 18.1021 118.701 17.9287 119.477 17.9287C120.263 17.9287 120.934 18.1021 121.491 18.4487C122.048 18.7905 122.475 19.2642 122.773 19.8696C123.071 20.4751 123.22 21.1733 123.22 21.9644V22.1182C123.22 22.9092 123.071 23.6099 122.773 24.2202C122.475 24.8257 122.048 25.2993 121.491 25.6411C120.934 25.9829 120.268 26.1538 119.492 26.1538ZM119.492 24.5132C119.863 24.5132 120.165 24.4131 120.4 24.2129C120.634 24.0127 120.808 23.7344 120.92 23.3779C121.032 23.0166 121.088 22.5967 121.088 22.1182V21.9644C121.088 21.4956 121.032 21.083 120.92 20.7266C120.808 20.3652 120.632 20.0845 120.392 19.8843C120.158 19.6792 119.853 19.5767 119.477 19.5767C119.111 19.5767 118.808 19.6792 118.569 19.8843C118.329 20.0845 118.154 20.3652 118.041 20.7266C117.934 21.083 117.88 21.4956 117.88 21.9644V22.1182C117.88 22.5967 117.934 23.0166 118.041 23.3779C118.154 23.7393 118.329 24.02 118.569 24.2202C118.808 24.4155 119.116 24.5132 119.492 24.5132ZM124.099 26V24.7183L125.124 24.4985V19.584L123.989 19.3643V18.0752H127.116L127.211 19.2104C127.475 18.8052 127.8 18.4902 128.185 18.2656C128.576 18.041 129.02 17.9287 129.518 17.9287C130.305 17.9287 130.92 18.1802 131.364 18.6831C131.808 19.186 132.031 19.9746 132.031 21.0488V24.4985L133.056 24.7183V26H128.969V24.7183L129.885 24.4985V21.0562C129.885 20.5239 129.78 20.1479 129.57 19.9282C129.36 19.7036 129.047 19.5913 128.632 19.5913C128.325 19.5913 128.056 19.6572 127.827 19.7891C127.602 19.916 127.414 20.0991 127.263 20.3384V24.4985L128.127 24.7183V26H124.099ZM139.633 29.2007C139.448 29.2007 139.25 29.1836 139.04 29.1494C138.835 29.1201 138.64 29.0786 138.454 29.0249L138.696 27.4575C138.788 27.4771 138.891 27.4917 139.003 27.5015C139.116 27.5112 139.213 27.5161 139.296 27.5161C139.604 27.5161 139.87 27.4355 140.095 27.2744C140.319 27.1133 140.483 26.8813 140.585 26.5786L140.761 26.0879L138.11 19.5034L137.136 19.3643V18.0752H141.34V19.3643L140.373 19.5107L141.618 23.0044L141.772 23.4365H141.816L143.288 19.4961L142.343 19.3643V18.0752H146.262V19.3643L145.368 19.4888L142.343 27.1792C142.197 27.5454 142.009 27.8799 141.779 28.1826C141.555 28.4902 141.266 28.7368 140.915 28.9224C140.568 29.1079 140.141 29.2007 139.633 29.2007ZM150.473 26.1538C149.692 26.1538 149.02 25.9829 148.459 25.6411C147.897 25.2993 147.468 24.8257 147.17 24.2202C146.872 23.6099 146.723 22.9092 146.723 22.1182V21.9644C146.723 21.1782 146.872 20.4824 147.17 19.877C147.468 19.2666 147.895 18.7905 148.452 18.4487C149.013 18.1021 149.682 17.9287 150.458 17.9287C151.245 17.9287 151.916 18.1021 152.473 18.4487C153.029 18.7905 153.456 19.2642 153.754 19.8696C154.052 20.4751 154.201 21.1733 154.201 21.9644V22.1182C154.201 22.9092 154.052 23.6099 153.754 24.2202C153.456 24.8257 153.029 25.2993 152.473 25.6411C151.916 25.9829 151.249 26.1538 150.473 26.1538ZM150.473 24.5132C150.844 24.5132 151.147 24.4131 151.381 24.2129C151.616 24.0127 151.789 23.7344 151.901 23.3779C152.014 23.0166 152.07 22.5967 152.07 22.1182V21.9644C152.07 21.4956 152.014 21.083 151.901 20.7266C151.789 20.3652 151.613 20.0845 151.374 19.8843C151.14 19.6792 150.834 19.5767 150.458 19.5767C150.092 19.5767 149.789 19.6792 149.55 19.8843C149.311 20.0845 149.135 20.3652 149.023 20.7266C148.915 21.083 148.862 21.4956 148.862 21.9644V22.1182C148.862 22.5967 148.915 23.0166 149.023 23.3779C149.135 23.7393 149.311 24.02 149.55 24.2202C149.789 24.4155 150.097 24.5132 150.473 24.5132ZM158.522 26.1538C157.687 26.1538 157.031 25.8901 156.552 25.3628C156.079 24.8306 155.842 24.0054 155.842 22.8872V19.584L154.97 19.3643V18.0752H155.842H157.98V22.9019C157.98 23.4683 158.078 23.876 158.273 24.125C158.474 24.3691 158.774 24.4912 159.174 24.4912C159.492 24.4912 159.772 24.4302 160.016 24.3081C160.261 24.1812 160.461 24.0029 160.617 23.7734V19.584L159.672 19.3643V18.0752H160.617H162.756V24.4985L163.708 24.7183V26H160.881L160.734 24.9966C160.485 25.3677 160.173 25.6533 159.797 25.8535C159.421 26.0537 158.996 26.1538 158.522 26.1538ZM167.619 26.1538C166.882 26.1538 166.313 25.9512 165.912 25.5459C165.517 25.1406 165.319 24.4985 165.319 23.6196V19.5767H164.228V18.0752H165.319V16.1343H167.451V18.0752H168.908V19.5767H167.451V23.6123C167.451 23.9199 167.514 24.1396 167.641 24.2715C167.773 24.4033 167.951 24.4692 168.176 24.4692C168.298 24.4692 168.425 24.4619 168.557 24.4473C168.693 24.4277 168.81 24.4082 168.908 24.3887L169.091 25.9341C168.871 25.9976 168.632 26.0488 168.373 26.0879C168.12 26.1318 167.868 26.1538 167.619 26.1538ZM173.259 26.1538C172.424 26.1538 171.767 25.8901 171.288 25.3628C170.815 24.8306 170.578 24.0054 170.578 22.8872V19.584L169.706 19.3643V18.0752H170.578H172.717V22.9019C172.717 23.4683 172.814 23.876 173.01 24.125C173.21 24.3691 173.51 24.4912 173.911 24.4912C174.228 24.4912 174.509 24.4302 174.753 24.3081C174.997 24.1812 175.197 24.0029 175.353 23.7734V19.584L174.409 19.3643V18.0752H175.353H177.492V24.4985L178.444 24.7183V26H175.617L175.471 24.9966C175.222 25.3677 174.909 25.6533 174.533 25.8535C174.157 26.0537 173.732 26.1538 173.259 26.1538ZM183.886 26.1538C183.393 26.1538 182.973 26.0586 182.626 25.8682C182.28 25.6729 181.989 25.3921 181.755 25.0259L181.601 26H179.755V16.083L178.62 15.8633V14.5742H181.887V18.9175C182.116 18.6001 182.397 18.356 182.729 18.1851C183.066 18.0142 183.456 17.9287 183.901 17.9287C184.54 17.9287 185.082 18.1021 185.527 18.4487C185.976 18.7905 186.318 19.2739 186.552 19.8989C186.787 20.5239 186.904 21.2588 186.904 22.1035V22.2573C186.904 23.0435 186.787 23.7295 186.552 24.3154C186.318 24.8965 185.976 25.3481 185.527 25.6704C185.078 25.9927 184.531 26.1538 183.886 26.1538ZM183.234 24.4912C183.781 24.4912 184.174 24.2983 184.413 23.9126C184.653 23.522 184.772 22.9702 184.772 22.2573V22.1035C184.772 21.5859 184.719 21.1416 184.611 20.7705C184.509 20.3945 184.345 20.104 184.12 19.8989C183.901 19.6938 183.613 19.5913 183.256 19.5913C182.934 19.5913 182.658 19.667 182.429 19.8184C182.199 19.9697 182.018 20.1748 181.887 20.4336V23.7441C182.033 23.9883 182.219 24.1738 182.443 24.3008C182.673 24.4277 182.936 24.4912 183.234 24.4912ZM191.796 26.1538C191.039 26.1538 190.378 25.9878 189.811 25.6558C189.245 25.3188 188.806 24.8574 188.493 24.2715C188.185 23.6855 188.032 23.0166 188.032 22.2646V21.9717C188.032 21.1855 188.178 20.4897 188.471 19.8843C188.764 19.2739 189.177 18.7954 189.709 18.4487C190.246 18.0972 190.878 17.9238 191.606 17.9287C192.324 17.9287 192.927 18.0703 193.415 18.3535C193.903 18.6367 194.274 19.0444 194.528 19.5767C194.782 20.1089 194.909 20.7534 194.909 21.5103V22.6748H190.251L190.236 22.7188C190.266 23.0654 190.351 23.3755 190.493 23.6489C190.639 23.9175 190.844 24.1299 191.108 24.2861C191.371 24.4375 191.691 24.5132 192.067 24.5132C192.458 24.5132 192.822 24.4644 193.159 24.3667C193.5 24.2642 193.832 24.1152 194.155 23.9199L194.733 25.2383C194.406 25.502 193.994 25.7217 193.495 25.8975C193.002 26.0684 192.436 26.1538 191.796 26.1538ZM190.266 21.2612H192.91V21.0708C192.91 20.7485 192.866 20.4727 192.778 20.2432C192.695 20.0088 192.558 19.8281 192.368 19.7012C192.182 19.5742 191.94 19.5107 191.642 19.5107C191.359 19.5107 191.12 19.5864 190.925 19.7378C190.729 19.8843 190.576 20.0869 190.463 20.3457C190.356 20.6045 190.283 20.8975 190.244 21.2246L190.266 21.2612Z" fill="black"/>
</svg>
